<svg width="25" height="26" viewBox="0 0 25 26" fill="none" xmlns="http://www.w3.org/2000/svg">
<g opacity="0.75">
<path d="M23.074 16.119C22.7301 16.119 22.4514 16.3977 22.4514 16.7416V22.2699C22.4502 23.3011 21.6147 24.1368 20.5835 24.1378H3.11315C2.08192 24.1368 1.24647 23.3011 1.24526 22.2699V6.04479C1.24647 5.0138 2.08192 4.17812 3.11315 4.1769H8.64142C8.98532 4.1769 9.26405 3.89818 9.26405 3.55427C9.26405 3.21061 8.98532 2.93164 8.64142 2.93164H3.11315C1.39459 2.93359 0.00194572 4.32623 0 6.04479V22.2701C0.00194572 23.9887 1.39459 25.3813 3.11315 25.3833H20.5835C22.3021 25.3813 23.6947 23.9887 23.6966 22.2701V16.7416C23.6966 16.3977 23.4179 16.119 23.074 16.119Z" fill="#262626"/>
<path d="M23.4501 1.32946C22.3559 0.235233 20.5819 0.235233 19.4877 1.32946L8.37959 12.4376C8.30346 12.5137 8.24849 12.608 8.2198 12.7117L6.75905 17.9853C6.69897 18.2015 6.76002 18.433 6.9186 18.5919C7.07742 18.7504 7.30896 18.8115 7.52517 18.7517L12.7988 17.2907C12.9024 17.262 12.9968 17.207 13.0729 17.1309L24.1808 6.02253C25.2733 4.92757 25.2733 3.15503 24.1808 2.06007L23.4501 1.32946ZM9.73624 12.8423L18.8274 3.7509L21.7593 6.68285L12.6679 15.7742L9.73624 12.8423ZM9.15058 14.0175L11.493 16.3601L8.25287 17.2578L9.15058 14.0175ZM23.3003 5.14209L22.64 5.80242L19.7078 2.87022L20.3684 2.20989C20.9762 1.6021 21.9617 1.6021 22.5695 2.20989L23.3003 2.94051C23.9071 3.54903 23.9071 4.53381 23.3003 5.14209Z" fill="#262626"/>
</g>
</svg>
