<svg width="93" height="88" viewBox="0 0 93 88" fill="none" xmlns="http://www.w3.org/2000/svg">
<path d="M39.5399 62.4836C56.6392 62.4836 70.5018 48.5285 70.5018 31.2539C70.5018 13.9793 56.6392 0.0244141 39.5399 0.0244141C22.4407 0.0244141 8.57812 13.9793 8.57812 31.2539C8.57812 48.5285 22.4407 62.4836 39.5399 62.4836Z" fill="#EAEEF9"/>
<path d="M74.0429 18.4057C75.4255 18.4057 76.5467 17.2773 76.5467 15.8852C76.5467 14.4932 75.4255 13.3647 74.0429 13.3647C72.6603 13.3647 71.5391 14.4932 71.5391 15.8852C71.5391 17.2773 72.6603 18.4057 74.0429 18.4057Z" fill="#EAEEF9"/>
<path d="M77.706 8.50805C78.6501 8.50805 79.4159 7.7374 79.4159 6.78674C79.4159 5.83609 78.6501 5.06543 77.706 5.06543C76.7619 5.06543 75.9961 5.83609 75.9961 6.78674C75.9961 7.7374 76.7619 8.50805 77.706 8.50805Z" fill="url(#paint0_linear_1727_61675)"/>
<path d="M6.50094 20.1882C7.4453 20.1882 8.21086 19.4176 8.21086 18.4669C8.21086 17.5163 7.4453 16.7456 6.50094 16.7456C5.55658 16.7456 4.79102 17.5163 4.79102 18.4669C4.79102 19.4176 5.55658 20.1882 6.50094 20.1882Z" fill="url(#paint1_linear_1727_61675)"/>
<path d="M9.67557 57.6268C11.4294 57.6268 12.8511 56.1956 12.8511 54.4301C12.8511 52.6646 11.4294 51.2334 9.67557 51.2334C7.92175 51.2334 6.5 52.6646 6.5 54.4301C6.5 56.1956 7.92175 57.6268 9.67557 57.6268Z" fill="#EAEEF9"/>
<path d="M58.7147 13.0569V38.6921C58.7147 40.229 57.4323 41.52 55.9056 41.52H13.7681C12.2414 41.52 10.959 40.2905 10.959 38.6921V13.0569C10.959 11.52 12.2414 10.229 13.7681 10.229H55.9056C57.4323 10.229 58.7147 11.52 58.7147 13.0569Z" fill="#D5DDEA"/>
<path opacity="0.3" d="M58.7143 21.6021V38.6922C58.7143 40.2291 57.4319 41.5201 55.9051 41.5201H20.6074V24.4299C20.6074 22.893 21.8288 21.6021 23.4166 21.6021H58.7143Z" fill="#989FB0"/>
<g filter="url(#filter0_d_1727_61675)">
<path d="M66.2245 54.4301H27.0795C24.6978 54.4301 22.8047 52.5244 22.8047 50.1269V27.4424C22.8047 25.0449 24.6978 23.1392 27.0795 23.1392H66.2245C68.6062 23.1392 70.4993 25.0449 70.4993 27.4424V50.1269C70.4993 52.5244 68.6062 54.4301 66.2245 54.4301Z" fill="url(#paint2_linear_1727_61675)"/>
</g>
<path d="M34.8975 47.3603H28.6685C28.1189 47.3603 27.6914 46.93 27.6914 46.3767C27.6914 45.8234 28.1189 45.3931 28.6685 45.3931H34.8975C35.4471 45.3931 35.8746 45.8234 35.8746 46.3767C35.8746 46.93 35.4471 47.3603 34.8975 47.3603Z" fill="#D5DDEA"/>
<path d="M44.9737 47.3603H38.7447C38.1951 47.3603 37.7676 46.93 37.7676 46.3767C37.7676 45.8234 38.1951 45.3931 38.7447 45.3931H44.9737C45.5233 45.3931 45.9508 45.8234 45.9508 46.3767C45.9508 46.93 45.5233 47.3603 44.9737 47.3603Z" fill="#D5DDEA"/>
<path d="M55.0499 47.3603H48.8208C48.2712 47.3603 47.8438 46.93 47.8438 46.3767C47.8438 45.8234 48.2712 45.3931 48.8208 45.3931H55.0499C55.5995 45.3931 56.027 45.8234 56.027 46.3767C56.027 46.93 55.5995 47.3603 55.0499 47.3603Z" fill="#D5DDEA"/>
<path d="M65.126 47.3603H58.897C58.3474 47.3603 57.9199 46.93 57.9199 46.3767C57.9199 45.8234 58.3474 45.3931 58.897 45.3931H65.126C65.6756 45.3931 66.1031 45.8234 66.1031 46.3767C66.1031 46.93 65.6756 47.3603 65.126 47.3603Z" fill="#D5DDEA"/>
<path d="M62.8672 35.5572C64.8909 35.5572 66.5313 33.9058 66.5313 31.8687C66.5313 29.8316 64.8909 28.1802 62.8672 28.1802C60.8436 28.1802 59.2031 29.8316 59.2031 31.8687C59.2031 33.9058 60.8436 35.5572 62.8672 35.5572Z" fill="url(#paint3_linear_1727_61675)"/>
<path d="M58.043 35.5572C60.0667 35.5572 61.7071 33.9058 61.7071 31.8687C61.7071 29.8316 60.0667 28.1802 58.043 28.1802C56.0194 28.1802 54.3789 29.8316 54.3789 31.8687C54.3789 33.9058 56.0194 35.5572 58.043 35.5572Z" fill="url(#paint4_linear_1727_61675)"/>
<path d="M58.7142 15.4546H11.0195V21.4792H58.7142V15.4546Z" fill="url(#paint5_linear_1727_61675)"/>
<path d="M35.4471 36.7251H28.6074C28.1189 36.7251 27.6914 36.2948 27.6914 35.803V31.3767C27.6914 30.8849 28.1189 30.4546 28.6074 30.4546H35.3861C35.8746 30.4546 36.3021 30.8849 36.3021 31.3767V35.803C36.3632 36.2948 35.9357 36.7251 35.4471 36.7251Z" fill="#D5DDEA"/>
<defs>
<filter id="filter0_d_1727_61675" x="0.804688" y="12.1392" width="91.6953" height="75.291" filterUnits="userSpaceOnUse" color-interpolation-filters="sRGB">
<feFlood flood-opacity="0" result="BackgroundImageFix"/>
<feColorMatrix in="SourceAlpha" type="matrix" values="0 0 0 0 0 0 0 0 0 0 0 0 0 0 0 0 0 0 127 0" result="hardAlpha"/>
<feOffset dy="11"/>
<feGaussianBlur stdDeviation="11"/>
<feColorMatrix type="matrix" values="0 0 0 0 0.397708 0 0 0 0 0.47749 0 0 0 0 0.575 0 0 0 0.27 0"/>
<feBlend mode="normal" in2="BackgroundImageFix" result="effect1_dropShadow_1727_61675"/>
<feBlend mode="normal" in="SourceGraphic" in2="effect1_dropShadow_1727_61675" result="shape"/>
</filter>
<linearGradient id="paint0_linear_1727_61675" x1="77.706" y1="5.06543" x2="77.706" y2="8.50805" gradientUnits="userSpaceOnUse">
<stop stop-color="#972563"/>
<stop offset="1" stop-color="#745A68"/>
</linearGradient>
<linearGradient id="paint1_linear_1727_61675" x1="6.50119" y1="16.8652" x2="6.51456" y2="20.1971" gradientUnits="userSpaceOnUse">
<stop stop-color="#48A194"/>
<stop offset="1" stop-color="#7DA0A7"/>
</linearGradient>
<linearGradient id="paint2_linear_1727_61675" x1="46.6364" y1="22.4154" x2="46.6364" y2="54.7675" gradientUnits="userSpaceOnUse">
<stop stop-color="#FDFEFF"/>
<stop offset="0.9964" stop-color="#ECF0F5"/>
</linearGradient>
<linearGradient id="paint3_linear_1727_61675" x1="62.8678" y1="28.4364" x2="62.8964" y2="35.5763" gradientUnits="userSpaceOnUse">
<stop stop-color="#48A194"/>
<stop offset="1" stop-color="#7DA0A7"/>
</linearGradient>
<linearGradient id="paint4_linear_1727_61675" x1="58.043" y1="28.1802" x2="58.043" y2="35.5572" gradientUnits="userSpaceOnUse">
<stop stop-color="#972563"/>
<stop offset="1" stop-color="#745A68"/>
</linearGradient>
<linearGradient id="paint5_linear_1727_61675" x1="34.8704" y1="15.6639" x2="34.8733" y2="21.4949" gradientUnits="userSpaceOnUse">
<stop stop-color="#48A194"/>
<stop offset="1" stop-color="#7DA0A7"/>
</linearGradient>
</defs>
</svg>
