<svg width="34" height="38" viewBox="0 0 34 38" fill="none" xmlns="http://www.w3.org/2000/svg">
  <g clip-path="url(#clip0_1255_46979)">
    <path d="M7.75982 17.0259C5.72939 17.0259 3.69855 17.0251 1.66811 17.0271C1.4227 17.0279 1.20985 17.067 1.2591 16.6747C1.953 11.13 4.35501 6.5624 9.05891 3.42212C15.521 -0.889851 23.9097 0.475573 29.014 6.57461C31.4063 9.43365 32.7436 12.7416 33.232 16.4211C33.2975 16.9168 33.1734 17.0422 32.6732 17.0393C28.9339 17.0182 25.1945 17.0288 21.4556 17.0251C20.4731 17.0243 19.8736 16.4427 19.8688 15.5083C19.8635 14.5576 20.4792 13.9654 21.4914 13.9634C23.928 13.9573 26.365 13.9564 28.8008 13.9589C29.0629 13.9593 29.2749 13.9837 29.1451 13.5934C27.798 9.53866 25.4713 6.27385 21.412 4.63208C16.8791 2.79863 12.8166 3.86166 9.29129 7.12647C7.40167 8.87731 6.18195 11.0693 5.39485 13.5157C5.27031 13.9035 5.35863 13.9646 5.72939 13.963C8.38535 13.9524 11.0421 13.956 13.6989 13.963C14.7408 13.9662 15.3525 14.6133 15.2918 15.6263C15.2414 16.4757 14.6765 17.0186 13.8002 17.0231C11.7861 17.032 9.77275 17.0263 7.75982 17.0263" fill="#2196f3"/>
    <path d="M16.3832 36.5675C11.6337 36.4068 7.38891 33.8452 4.27998 29.2842C2.87019 27.2159 1.99315 24.9177 1.48808 22.4729C1.29314 21.5275 1.86902 20.6358 2.79002 20.4266C3.70898 20.217 4.6019 20.7587 4.82818 21.7188C5.29743 23.7045 5.89814 25.6376 6.98966 27.3824C8.8919 30.4189 11.449 32.6255 15.028 33.3508C19.2765 34.2115 22.8131 32.7781 25.7625 29.7099C26.5761 28.8634 27.1357 27.8244 27.8463 26.8997C28.0103 26.6848 28.1633 26.4557 28.3595 26.2738C29.0021 25.6759 29.8954 25.6482 30.5287 26.1858C31.2063 26.7597 31.3064 27.662 30.8258 28.4234C29.3607 30.7416 27.585 32.7578 25.2432 34.2298C22.7907 35.7711 20.1226 36.572 16.3832 36.5675Z" fill="#2196f3"/>
  </g>
  <defs>
    <clipPath id="clip0_1255_46979">
      <rect width="33" height="37" fill="white" transform="translate(0.5 0.5)"/>
    </clipPath>
  </defs>
</svg>


