<svg width="22" height="23" viewBox="0 0 22 23" fill="none" xmlns="http://www.w3.org/2000/svg">
<path fill-rule="evenodd" clip-rule="evenodd" d="M11 21.1667C16.3388 21.1667 20.6667 16.8388 20.6667 11.5C20.6667 6.16124 16.3388 1.83333 11 1.83333C5.66124 1.83333 1.33333 6.16124 1.33333 11.5C1.33333 16.8388 5.66124 21.1667 11 21.1667ZM21.875 11.5C21.875 17.5061 17.0061 22.375 11 22.375C4.99391 22.375 0.125 17.5061 0.125 11.5C0.125 5.49391 4.99391 0.625 11 0.625C17.0061 0.625 21.875 5.49391 21.875 11.5Z" fill="#46A294"/>
<path fill-rule="evenodd" clip-rule="evenodd" d="M10.3955 16.3346V9.0835H11.6038V16.3346H10.3955Z" fill="#46A294"/>
<path fill-rule="evenodd" clip-rule="evenodd" d="M10.3955 7.87591V6.6665H11.6038V7.87591H10.3955Z" fill="#46A294"/>
</svg>
