<?xml version="1.0" encoding="utf-8"?>
<!-- Generator: Adobe Illustrator 19.0.0, SVG Export Plug-In . SVG Version: 6.00 Build 0)  -->
<svg version="1.1" id="Capa_1" xmlns="http://www.w3.org/2000/svg" xmlns:xlink="http://www.w3.org/1999/xlink" x="0px" y="0px"
	 viewBox="102 20.9 800 800" style="enable-background:new 102 20.9 800 800;" xml:space="preserve">
<style type="text/css">
	.st0{fill:#FFFFFF;stroke:#000000;stroke-width:22.6772;stroke-linecap:round;stroke-linejoin:round;}
</style>
<g>
	<path class="st0" d="M854.8,108.5c-0.4-45-46.3-17.9-46.3-17.9C662.1,188.2,553.1,216.5,486.9,223c0.3,5.1,0.5,10.3,0.4,15.5
		L485.2,652c-0.2,36.9-13.9,72.2-38.7,99.4c-18.7,20.5-25,31.9-59,48.5l66.7-7.2C750.5,758,851.5,675,851.5,675
		S855.2,153.5,854.8,108.5z"/>
	<path class="st0" d="M496.9,106.3c-28.6-35.9-75.2-68.5-150.1-68.5c-70.7,0-117,29-146.9,62.3c-33.3,37.1-50.9,85.6-50.7,135.4
		l2.1,389.5c0.4,79.2,52.5,149.4,128.6,171.2c17.4,5,36.8,7.9,58.4,7.9c81.4,0,136-41.6,167.1-75.7c20.6-22.6,32.1-52.1,32.2-82.7
		l2.2-413.6C540.1,186.4,525.3,141.9,496.9,106.3z M343.8,761.4C267.2,761.4,205,716,205,659.9s62.2-101.5,138.8-101.5
		s138.8,45.4,138.8,101.5S420.5,761.4,343.8,761.4z"/>
	<ellipse cx="343.7" cy="665.9" rx="47.8" ry="33.3"/>
</g>
</svg>
