<svg width="110" height="111" viewBox="0 0 110 111" fill="none" xmlns="http://www.w3.org/2000/svg">
<path d="M102.775 54.4557H8.14055C4.79027 54.4557 2.07422 51.7396 2.07422 48.3893V43.9219H108.841V48.3893C108.841 51.7396 106.125 54.4557 102.775 54.4557Z" fill="#494A47"/>
<path d="M7.0818 48.3893V43.9219H2.07422V48.3893C2.07422 51.7396 4.79027 54.4557 8.14055 54.4557H13.1483C9.79785 54.4557 7.0818 51.7396 7.0818 48.3893Z" fill="#333331"/>
<path d="M16.4756 29.9966H94.4407V45.1029H16.4756V29.9966Z" fill="#2C685F"/>
<path d="M26.4541 33.2275H84.4617V41.9648H26.4541V33.2275Z" fill="#CDCDC6"/>
<path d="M26.4541 41.0337H23.0166C21.118 41.0337 19.5791 39.4948 19.5791 37.5962C19.5791 35.6976 21.118 34.1587 23.0166 34.1587H26.4541V41.0337Z" fill="#494A47"/>
<path d="M84.4619 41.0337H87.8994C89.798 41.0337 91.3369 39.4948 91.3369 37.5962C91.3369 35.6976 89.798 34.1587 87.8994 34.1587H84.4619V41.0337Z" fill="#494A47"/>
<path d="M16.4756 21.2666H94.4407V29.9963H16.4756V21.2666Z" fill="#46A294"/>
<path d="M16.4752 43.9217H2.07422V26.9264C2.07422 23.8007 4.60809 21.2666 7.73406 21.2666H16.4752V43.9217Z" fill="#46A294"/>
<path d="M12.7416 21.2666H7.73406C4.6083 21.2666 2.07422 23.8005 2.07422 26.9264V43.9217H7.08201V26.9264C7.0818 23.8007 9.61588 21.2666 12.7416 21.2666Z" fill="#2C685F"/>
<path d="M108.841 43.9217H94.4404V21.2666H103.182C106.307 21.2666 108.841 23.8005 108.841 26.9264V43.9217Z" fill="#46A294"/>
<path d="M30.3525 33.2275H80.5639V102.578H30.3525V33.2275Z" fill="white"/>
<path d="M30.3525 33.2275H35.3603V102.578H30.3525V33.2275Z" fill="#CDCDC6"/>
<path d="M11.916 54.4556H18.791V95.7032H11.916V54.4556Z" fill="#333331"/>
<path d="M5.94238 99.1406C5.94238 97.2421 7.48131 95.7031 9.37988 95.7031H21.3273C23.2259 95.7031 24.7648 97.2421 24.7648 99.1406C24.7648 101.039 23.2259 102.578 21.3273 102.578H9.37988C7.48152 102.578 5.94238 101.039 5.94238 99.1406Z" fill="#333331"/>
<path d="M86.1504 99.1406C86.1504 97.2421 87.6893 95.7031 89.5879 95.7031H101.535C103.434 95.7031 104.973 97.2421 104.973 99.1406C104.973 101.039 103.434 102.578 101.535 102.578H89.5879C87.6893 102.578 86.1504 101.039 86.1504 99.1406Z" fill="#333331"/>
<path d="M92.125 54.4556H99V95.7032H92.125V54.4556Z" fill="#333331"/>
<path d="M16.3779 15.001H48.8758V21.2669H16.3779V15.001Z" fill="#494A47"/>
<path d="M20.0557 9.37158H26.3416V18.2648H20.0557V9.37158Z" fill="#494A47"/>
<path d="M26.3418 9.37158H32.6277V18.2648H26.3418V9.37158Z" fill="#46A294"/>
<path d="M32.627 9.37158H38.9129V18.2648H32.627V9.37158Z" fill="#F8D250"/>
<path d="M38.9131 9.37158H45.199V18.2648H38.9131V9.37158Z" fill="#972563"/>
<path d="M65.1551 33.2275H45.7588C45.7588 34.6096 46.4991 35.8183 47.6047 36.4801C47.2908 37.7296 47.6219 39.108 48.5992 40.0851C49.5766 41.0625 50.9548 41.3935 52.2043 41.0796C52.8658 42.1852 54.0747 42.9256 55.4568 42.9256C56.8389 42.9256 58.0476 42.1852 58.7094 41.0796C59.9589 41.3935 61.3373 41.0625 62.3144 40.0851C63.2918 39.1078 63.6228 37.7296 63.3089 36.4801C64.4147 35.8183 65.1551 34.6096 65.1551 33.2275Z" fill="#972563"/>
<path d="M55.457 37.4421C57.7846 37.4421 59.6716 35.5552 59.6716 33.2275H51.2422C51.2424 35.5552 53.1294 37.4421 55.457 37.4421Z" fill="#F8D250"/>
<path d="M77.3108 42.0029C76.0612 41.689 74.6828 42.0201 73.7057 42.9974C72.7284 43.9747 72.3973 45.3529 72.7112 46.6025C71.6056 47.264 70.8652 48.4729 70.8652 49.855C70.8652 51.2371 71.6056 52.4458 72.7112 53.1075C72.3973 54.3571 72.7284 55.7355 73.7057 56.7126C74.683 57.6899 76.0612 58.021 77.3108 57.7071C77.9723 58.8127 79.1812 59.553 80.5633 59.553V40.1567C79.181 40.1567 77.9723 40.8973 77.3108 42.0029Z" fill="#972563"/>
<path d="M76.3486 49.8549C76.3486 52.1826 78.2356 54.0695 80.5632 54.0695V45.6401C78.2356 45.6404 76.3486 47.5273 76.3486 49.8549Z" fill="#F8D250"/>
<path d="M33.6041 57.7074C34.8536 58.0213 36.2321 57.6902 37.2092 56.7129C38.1865 55.7355 38.5176 54.3573 38.2037 53.1078C39.3093 52.4463 40.0496 51.2374 40.0496 49.8553C40.0496 48.4732 39.3093 47.2645 38.2037 46.6028C38.5176 45.3532 38.1865 43.9748 37.2092 42.9977C36.2318 42.0204 34.8536 41.6893 33.6041 42.0032C32.9426 40.8976 31.7337 40.1572 30.3516 40.1572V59.5535C31.7339 59.5533 32.9426 58.813 33.6041 57.7074Z" fill="#972563"/>
<path d="M33.6041 57.7074C34.1792 57.852 34.7812 57.858 35.3594 57.7291V41.9815C34.7814 41.8526 34.1792 41.8586 33.6041 42.0032C32.9426 40.8976 31.7337 40.1572 30.3516 40.1572V59.5535C31.7339 59.5533 32.9426 58.813 33.6041 57.7074Z" fill="#BF3730"/>
<path d="M34.5662 49.8552C34.5662 47.5276 32.6792 45.6406 30.3516 45.6406V54.07C32.6792 54.0698 34.5662 52.1828 34.5662 49.8552Z" fill="#F8AE46"/>
<path d="M77.3108 77.3486C76.0612 77.0347 74.6828 77.3658 73.7057 78.3431C72.7284 79.3204 72.3973 80.6987 72.7112 81.9482C71.6056 82.6097 70.8652 83.8186 70.8652 85.2007C70.8652 86.5828 71.6056 87.7915 72.7112 88.4532C72.3973 89.7028 72.7284 91.0812 73.7057 92.0583C74.683 93.0356 76.0612 93.3667 77.3108 93.0528C77.9723 94.1584 79.1812 94.8988 80.5633 94.8988V75.5024C79.181 75.5027 77.9723 76.243 77.3108 77.3486Z" fill="#972563"/>
<path d="M76.3486 85.2006C76.3486 87.5283 78.2356 89.4152 80.5632 89.4152V80.9858C78.2356 80.9861 76.3486 82.873 76.3486 85.2006Z" fill="#F8D250"/>
<path d="M33.6041 93.0531C34.8536 93.367 36.2321 93.0359 37.2092 92.0586C38.1865 91.0812 38.5176 89.703 38.2037 88.4535C39.3093 87.792 40.0496 86.5831 40.0496 85.201C40.0496 83.8189 39.3093 82.6102 38.2037 81.9485C38.5176 80.6989 38.1865 79.3205 37.2092 78.3434C36.2318 77.3661 34.8536 77.035 33.6041 77.3489C32.9426 76.2433 31.7337 75.5029 30.3516 75.5029V94.8992C31.7339 94.899 32.9426 94.1585 33.6041 93.0531Z" fill="#972563"/>
<path d="M33.6041 93.0531C34.1792 93.1977 34.7812 93.2037 35.3594 93.0748V77.3272C34.7814 77.1983 34.1792 77.2043 33.6041 77.3489C32.9426 76.2433 31.7337 75.5029 30.3516 75.5029V94.8992C31.7339 94.899 32.9426 94.1585 33.6041 93.0531Z" fill="#BF3730"/>
<path d="M34.5662 85.2009C34.5662 82.8733 32.6792 80.9863 30.3516 80.9863V89.4157C32.6792 89.4157 34.5662 87.5288 34.5662 85.2009Z" fill="#F8AE46"/>
<path d="M45.7773 67.9026C45.7773 69.2847 46.5177 70.4934 47.6233 71.1552C47.3094 72.4047 47.6405 73.7831 48.6178 74.7602C49.5951 75.7376 50.9733 76.0686 52.2229 75.7547C52.8844 76.8603 54.0933 77.6007 55.4754 77.6007C56.8575 77.6007 58.0662 76.8603 58.7279 75.7547C59.9774 76.0686 61.3559 75.7376 62.333 74.7602C63.3103 73.7829 63.6414 72.4047 63.3275 71.1552C64.4331 70.4937 65.1734 69.2847 65.1734 67.9026C65.1734 66.5205 64.4331 65.3118 63.3275 64.6501C63.6414 63.4006 63.3103 62.0222 62.333 61.045C61.3557 60.0677 59.9774 59.7366 58.7279 60.0505C58.0664 58.9449 56.8575 58.2046 55.4754 58.2046C54.0933 58.2046 52.8846 58.9449 52.2229 60.0505C50.9733 59.7366 49.5949 60.0677 48.6178 61.045C47.6405 62.0224 47.3094 63.4006 47.6233 64.6501C46.5179 65.3116 45.7773 66.5205 45.7773 67.9026Z" fill="#972563"/>
<path d="M55.4753 72.1172C57.803 72.1172 59.6899 70.2302 59.6899 67.9026C59.6899 65.5749 57.803 63.688 55.4753 63.688C53.1477 63.688 51.2607 65.5749 51.2607 67.9026C51.2607 70.2302 53.1477 72.1172 55.4753 72.1172Z" fill="#F8D250"/>
<path d="M63.3275 99.3254C63.6414 98.0759 63.3103 96.6974 62.333 95.7203C61.3557 94.743 59.9774 94.4119 58.7279 94.7258C58.0664 93.6202 56.8575 92.8799 55.4754 92.8799C54.0933 92.8799 52.8846 93.6202 52.2229 94.7258C50.9733 94.4119 49.5949 94.743 48.6178 95.7203C47.6407 96.6977 47.3094 98.0759 47.6233 99.3254C46.5177 99.9869 45.7773 101.196 45.7773 102.578H65.1737C65.1737 101.196 64.4331 99.9871 63.3275 99.3254Z" fill="#972563"/>
<path d="M55.4753 98.3633C53.1477 98.3633 51.2607 100.25 51.2607 102.578H59.6901C59.6899 100.25 57.803 98.3633 55.4753 98.3633Z" fill="#F8D250"/>
<path d="M97.9834 26.9502H105.299V38.2383H97.9834V26.9502Z" fill="white"/>
<path d="M8.14055 55.5297H10.842V94.6289H9.37998C6.89209 94.6289 4.86826 96.6529 4.86826 99.1406C4.86826 101.628 6.89209 103.652 9.37998 103.652H21.3274C23.8153 103.652 25.8392 101.628 25.8392 99.1406C25.8392 96.6529 23.8153 94.6289 21.3274 94.6289H19.8654V55.5297H29.2779V102.578C29.2779 103.171 29.759 103.652 30.3522 103.652H80.5635C81.1569 103.652 81.6377 103.171 81.6377 102.578V55.5297H91.0505V94.6289H89.5882C87.1006 94.6289 85.0765 96.6529 85.0765 99.1406C85.0765 101.628 87.1006 103.652 89.5882 103.652H101.536C104.023 103.652 106.047 101.628 106.047 99.1406C106.047 96.6529 104.023 94.6289 101.536 94.6289H100.074V55.5297H102.775C106.712 55.5297 109.915 52.3266 109.915 48.3891V26.9265C109.915 23.2133 106.894 20.1924 103.181 20.1924H94.4401H49.9502V15.0009C49.9502 14.4077 49.4692 13.9267 48.876 13.9267H46.2732V9.37158C46.2732 8.7784 45.7921 8.29736 45.1989 8.29736H38.9133H32.6276H26.3419H20.0558C19.4626 8.29736 18.9816 8.7784 18.9816 9.37158V13.9267H16.3783C15.7851 13.9267 15.3041 14.4077 15.3041 15.0009V20.1926H7.73406C4.02092 20.1926 1 23.2135 1 26.9267V48.3894C1 52.3264 4.20332 55.5297 8.14055 55.5297ZM21.3272 96.7773C22.6303 96.7773 23.6905 97.8376 23.6905 99.1406C23.6905 100.444 22.6303 101.504 21.3272 101.504H9.37977C8.07674 101.504 7.01648 100.444 7.01648 99.1406C7.01648 97.8376 8.07674 96.7773 9.37977 96.7773H11.916H18.791H21.3272ZM12.9902 94.6289V55.5297H17.7168V94.6289H12.9902ZM29.2779 44.0287H17.5494V43.9217V38.6703H18.6393C19.1231 40.6402 20.8993 42.1078 23.0163 42.1078H25.394C25.4645 42.6326 25.9096 43.0389 26.4538 43.0389H29.2777V44.0287H29.2779ZM20.653 37.596C20.653 36.293 21.7133 35.2328 23.0163 35.2328H25.3796V39.9593H23.0163C21.7133 39.9593 20.653 38.8991 20.653 37.596ZM29.2779 40.157V40.8904H27.528V34.3016H29.2777V40.157H29.2779ZM52.5243 101.504C52.9638 100.3 54.121 99.4377 55.4753 99.4377C56.8297 99.4377 57.9867 100.3 58.4264 101.504H52.5243ZM60.6544 101.504C60.1566 99.1009 58.0238 97.2893 55.4753 97.2893C52.9271 97.2893 50.7941 99.1009 50.2963 101.504H47.07C47.2909 100.989 47.6711 100.549 48.1747 100.247C48.5812 100.004 48.7804 99.5235 48.665 99.0639C48.4298 98.1272 48.6962 97.1612 49.3772 96.48C50.0585 95.7987 51.0244 95.5323 51.9612 95.7678C52.4207 95.8831 52.9015 95.684 53.1447 95.2775C53.6406 94.4488 54.5118 93.9541 55.4753 93.9541C56.4387 93.9541 57.3101 94.4488 57.806 95.2775C58.0494 95.684 58.5304 95.8834 58.9895 95.7678C59.9271 95.5321 60.892 95.7989 61.5735 96.48C62.2547 97.1612 62.5209 98.1272 62.2855 99.0637C62.1701 99.5232 62.3693 100.004 62.7757 100.247C63.2793 100.549 63.6596 100.989 63.8807 101.504H60.6544V101.504ZM79.4891 88.152C78.2849 87.7122 77.4229 86.5553 77.4229 85.2007C77.4229 83.8461 78.2849 82.6892 79.4891 82.2496V88.152ZM79.4891 80.0217C77.0861 80.5195 75.2745 82.6524 75.2745 85.2007C75.2745 87.7489 77.0861 89.8819 79.4891 90.3797V93.606C78.9741 93.3852 78.5341 93.0049 78.2327 92.5013C78.0354 92.1719 77.6822 91.9786 77.311 91.9786C77.2242 91.9786 77.1363 91.9891 77.0491 92.011C76.1111 92.2465 75.1464 91.9799 74.4652 91.2988C73.7839 90.6175 73.5177 89.6516 73.7532 88.7151C73.8686 88.2555 73.6694 87.7747 73.2629 87.5315C72.4343 87.0357 71.9395 86.1643 71.9395 85.2009C71.9395 84.2375 72.4343 83.3661 73.2629 82.8703C73.6696 82.6271 73.8686 82.146 73.7532 81.6867C73.5177 80.7502 73.7841 79.7843 74.4652 79.103C75.1467 78.4217 76.1122 78.1555 77.0491 78.3908C77.5071 78.5057 77.989 78.3072 78.2327 77.9005C78.5339 77.3969 78.9739 77.0166 79.4891 76.7958V80.0217ZM79.4891 52.8063C78.2849 52.3668 77.4229 51.2096 77.4229 49.8552C77.4229 48.5006 78.2849 47.3437 79.4891 46.9039V52.8063ZM79.4891 44.6762C77.0861 45.174 75.2745 47.307 75.2745 49.8552C75.2745 52.4035 77.0861 54.5365 79.4891 55.0343V58.2606C78.9741 58.0397 78.5341 57.6594 78.2325 57.1558C78.0354 56.8265 77.6822 56.6331 77.311 56.6331C77.2242 56.6331 77.1363 56.6437 77.0491 56.6656C76.1111 56.9012 75.1464 56.6344 74.4652 55.9534C73.7839 55.2721 73.5177 54.3061 73.7532 53.3696C73.8686 52.9101 73.6694 52.4293 73.2629 52.1861C72.4343 51.6902 71.9395 50.819 71.9395 49.8554C71.9395 48.8919 72.4343 48.0207 73.2629 47.5248C73.6696 47.2816 73.8686 46.8006 73.7532 46.3412C73.5177 45.4047 73.7841 44.439 74.4652 43.7575C75.1464 43.0763 76.1113 42.8096 77.0491 43.0453C77.5071 43.1603 77.9893 42.9618 78.2325 42.5551C78.5339 42.0515 78.9739 41.6712 79.4891 41.4503V44.6762ZM79.4891 39.2048C78.4531 39.4422 77.5123 40.0158 76.827 40.8352C75.4036 40.7085 73.9687 41.2153 72.9462 42.2379C71.9231 43.2608 71.4165 44.6966 71.5435 46.1189C70.4476 47.035 69.791 48.4085 69.791 49.855C69.791 51.3016 70.448 52.6751 71.5435 53.5912C71.4165 55.0136 71.9234 56.4492 72.9462 57.4723C73.9689 58.4952 75.4038 59.002 76.827 58.875C77.5121 59.6944 78.4531 60.2681 79.4891 60.5055V74.5502C78.4531 74.7876 77.5123 75.3613 76.827 76.1807C75.4068 76.0546 73.9689 76.5605 72.9462 77.5834C71.9231 78.6063 71.4165 80.0421 71.5435 81.4646C70.4478 82.3806 69.791 83.7541 69.791 85.2007C69.791 86.6472 70.4478 88.0207 71.5435 88.9368C71.4165 90.3593 71.9234 91.7949 72.9462 92.8177C73.9689 93.8406 75.4038 94.347 76.827 94.2205C77.5121 95.0399 78.4531 95.6135 79.4891 95.8509V101.504H66.1256C65.8882 100.468 65.3146 99.5267 64.4951 98.8418C64.6221 97.4193 64.1153 95.9837 63.0924 94.9608C62.0698 93.938 60.634 93.4311 59.2117 93.5581C58.2954 92.4624 56.9221 91.8058 55.4753 91.8058C54.0286 91.8058 52.6553 92.4626 51.7392 93.5581C50.3163 93.4318 48.8809 93.938 47.8581 94.9608C46.8352 95.9837 46.3284 97.4193 46.4553 98.8418C45.6359 99.5269 45.0623 100.468 44.8249 101.504H31.4262V95.8511C32.4621 95.6137 33.4032 95.0401 34.0883 94.2207C35.5103 94.3474 36.9466 93.8408 37.9692 92.818C38.9921 91.7951 39.4989 90.3595 39.372 88.937C40.4674 88.0209 41.1242 86.6474 41.1242 85.2009C41.1242 83.7544 40.4674 82.3809 39.372 81.4648C39.4989 80.0423 38.9921 78.6067 37.9692 77.5836C36.9461 76.5607 35.5099 76.0544 34.0883 76.1809C33.4032 75.3615 32.4621 74.7878 31.4262 74.5504V60.5057C32.4621 60.2683 33.4032 59.6946 34.0881 58.8752C35.5112 59.002 36.9464 58.4954 37.9692 57.4725C38.9921 56.4496 39.4989 55.0141 39.372 53.5914C40.4677 52.6753 41.1242 51.3018 41.1242 49.8552C41.1242 48.4087 40.4674 47.0352 39.372 46.1191C39.4989 44.6966 38.9921 43.261 37.9692 42.2382C36.9464 41.2153 35.5108 40.7087 34.0881 40.8355C33.4032 40.016 32.4621 39.4424 31.4262 39.205V34.3016H44.8071C45.0445 35.3376 45.6181 36.2784 46.4373 36.9635C46.3103 38.386 46.8171 39.8216 47.84 40.8447C48.8629 41.8676 50.2983 42.3739 51.721 42.2474C52.637 43.3431 54.0105 43.9999 55.4573 43.9999C56.9041 43.9999 58.2773 43.3431 59.1937 42.2474C60.6146 42.3739 62.0517 41.8676 63.0744 40.8447C64.0975 39.8218 64.6041 38.386 64.4771 36.9635C65.2965 36.2784 65.8701 35.3376 66.1075 34.3016H79.4889V39.2048H79.4891ZM35.641 85.2007C35.641 82.6524 33.8292 80.5195 31.4264 80.0217V76.7953C31.9414 77.0162 32.3816 77.3965 32.6828 77.9001C32.926 78.3066 33.4066 78.5055 33.8664 78.3904C34.8031 78.1549 35.769 78.4213 36.4503 79.1026C37.1316 79.7838 37.398 80.7498 37.1625 81.6863C37.0469 82.1458 37.2463 82.6266 37.6528 82.8698C38.4814 83.3657 38.9762 84.2369 38.9762 85.2005C38.9762 86.164 38.4814 87.0352 37.6528 87.5311C37.2463 87.7743 37.0471 88.2551 37.1625 88.7147C37.3978 89.6512 37.1316 90.6171 36.4503 91.2984C35.7692 91.9797 34.8033 92.2461 33.8664 92.0106C33.4068 91.8952 32.926 92.0944 32.6828 92.5009C32.3816 93.0044 31.9414 93.3847 31.4264 93.6056V90.3793C33.8292 89.8819 35.641 87.7489 35.641 85.2007ZM31.4264 88.152V82.2496C32.6306 82.6892 33.4925 83.8463 33.4925 85.2007C33.4925 86.5551 32.6306 87.7122 31.4264 88.152ZM35.641 49.8552C35.641 47.307 33.8292 45.174 31.4264 44.6762V41.4499C31.9414 41.6708 32.3814 42.051 32.6828 42.5546C32.926 42.9611 33.4068 43.1603 33.8664 43.0449C34.8035 42.8097 35.769 43.0761 36.4503 43.7571C37.1316 44.4384 37.398 45.4043 37.1625 46.3408C37.0469 46.8004 37.2463 47.2812 37.6528 47.5244C38.4814 48.0203 38.9762 48.8917 38.9762 49.855C38.9762 50.8186 38.4814 51.6898 37.6528 52.1856C37.2463 52.4288 37.0471 52.9097 37.1625 53.3692C37.3978 54.3057 37.1316 55.2717 36.4503 55.9529C35.7692 56.6342 34.8033 56.9008 33.8664 56.6651C33.4068 56.5496 32.926 56.7489 32.6828 57.1554C32.3814 57.659 31.9414 58.0393 31.4264 58.2601V55.0338C33.8292 54.5365 35.641 52.4035 35.641 49.8552ZM31.4264 52.8063V46.9039C32.6306 47.3437 33.4925 48.5006 33.4925 49.8552C33.4925 51.2098 32.6306 52.3668 31.4264 52.8063ZM55.4575 38.5162C58.0058 38.5162 60.1388 36.7046 60.6365 34.3016H63.8629C63.642 34.8166 63.2617 35.2568 62.7579 35.558C62.3512 35.8012 62.1523 36.2823 62.2676 36.7416C62.5031 37.6781 62.2367 38.644 61.5556 39.3253C60.8742 40.0066 59.9086 40.2728 58.9717 40.0375C58.5126 39.9224 58.0316 40.1213 57.7881 40.5278C57.2923 41.3564 56.4211 41.8512 55.4575 41.8512C54.4939 41.8512 53.6225 41.3564 53.1267 40.5278C52.9294 40.1984 52.5762 40.0051 52.205 40.0051C52.1182 40.0051 52.0303 40.0156 51.9431 40.0375C51.0066 40.2728 50.0407 40.0068 49.3594 39.3253C48.6781 38.644 48.4117 37.6781 48.6472 36.7416C48.7628 36.282 48.5634 35.8012 48.1569 35.558C47.6533 35.2566 47.273 34.8166 47.0522 34.3016H50.2783C50.7763 36.7044 52.9093 38.5162 55.4575 38.5162ZM52.5062 34.3016H58.4086C57.9688 35.5058 56.8119 36.3678 55.4575 36.3678C54.1031 36.3678 52.946 35.5058 52.5062 34.3016ZM26.4538 32.1532C25.9096 32.1532 25.4647 32.5595 25.394 33.0843H23.0163C20.8993 33.0843 19.1231 34.5519 18.6393 36.5218H17.5494V31.0708H93.3663V36.5218H92.2761C91.7923 34.5519 90.016 33.0843 87.8991 33.0843H85.5215C85.451 32.5595 85.0061 32.1532 84.4616 32.1532H26.4538ZM84.4614 43.0389C85.0058 43.0389 85.4506 42.6326 85.5212 42.1078H87.8989C90.016 42.1078 91.7921 40.6402 92.2759 38.6703H93.3661V43.9217V44.0287H81.6375V43.0389H84.4614ZM81.6375 40.8904V40.157V34.3014H83.3872V40.8902H81.6375V40.8904ZM85.5356 39.9593V35.2328H87.8989C89.202 35.2328 90.2622 36.293 90.2622 37.596C90.2622 38.8991 89.202 39.9593 87.8989 39.9593H85.5356ZM101.536 96.7773C102.839 96.7773 103.899 97.8376 103.899 99.1406C103.899 100.444 102.839 101.504 101.536 101.504H89.5882C88.2852 101.504 87.225 100.444 87.225 99.1406C87.225 97.8376 88.2852 96.7773 89.5882 96.7773H92.1247H98.9997H101.536ZM93.1987 94.6289V55.5297H97.9252V94.6289H93.1987ZM95.5145 22.3408H103.182C105.71 22.3408 107.767 24.398 107.767 26.9265V42.8475H95.5147L95.5145 22.3408ZM95.5145 45.1029V44.9959H107.767V48.3891C107.767 51.1417 105.527 53.3812 102.775 53.3812H98.9995H92.1245H81.6375V46.1771H94.4403C95.0337 46.1771 95.5145 45.6961 95.5145 45.1029ZM93.3661 22.3408V28.9221H17.5494V22.3408H93.3661ZM39.9873 10.4458H44.1245V17.1906H39.9873V10.4458ZM33.7016 10.4458H37.8388V17.1906H33.7016V10.4458ZM27.4159 10.4458H31.5531V17.1906H27.4159V10.4458ZM21.13 10.4458H25.2675V17.1906H21.13V10.4458ZM17.4525 16.0751H18.9816V18.265C18.9816 18.8582 19.4626 19.3393 20.0558 19.3393H45.1989C45.7921 19.3393 46.2732 18.8582 46.2732 18.265V16.0751H47.8022V20.1926H17.4525V16.0751ZM3.14844 26.9265C3.14844 24.398 5.20557 22.3408 7.73406 22.3408H15.401V42.8472H3.14844V26.9265ZM3.14844 44.9959H15.401V45.1029C15.401 45.6961 15.882 46.1771 16.4752 46.1771H29.2779V53.3812H18.791H11.916H8.14055C5.38775 53.3812 3.14844 51.1419 3.14844 48.3891V44.9959Z" fill="black"/>
<path d="M64.4954 64.1663C64.6224 62.7438 64.1156 61.3082 63.0927 60.2854C62.07 59.2625 60.6342 58.7559 59.212 58.8826C58.2956 57.7869 56.9224 57.1304 55.4756 57.1304C54.0288 57.1304 52.6556 57.7871 51.7395 58.8826C50.3166 58.7559 48.8812 59.2625 47.8583 60.2854C46.8355 61.3082 46.3286 62.7438 46.4556 64.1663C45.3599 65.0824 44.7031 66.4559 44.7031 67.9026C44.7031 69.3492 45.3599 70.7227 46.4556 71.6388C46.3286 73.0612 46.8355 74.4968 47.8583 75.5197C48.8812 76.5426 50.3166 77.0494 51.7395 76.9224C52.6556 78.0181 54.0291 78.6747 55.4756 78.6747C56.9221 78.6747 58.2956 78.0179 59.212 76.9224C60.6342 77.049 62.07 76.5424 63.0927 75.5197C64.1158 74.4968 64.6224 73.061 64.4954 71.6386C65.5911 70.7225 66.2479 69.349 66.2479 67.9024C66.2481 66.4559 65.5913 65.0826 64.4954 64.1663ZM62.7762 70.2333C62.3695 70.4765 62.1706 70.9575 62.2859 71.4168C62.5214 72.3533 62.255 73.3193 61.5739 74.0005C60.8927 74.6818 59.9278 74.9484 58.99 74.7128C58.5311 74.5974 58.0499 74.7963 57.8064 75.203C57.3106 76.0317 56.4394 76.5265 55.4758 76.5265C54.5122 76.5265 53.6411 76.0317 53.1452 75.203C52.9482 74.8737 52.5948 74.6803 52.2235 74.6803C52.1367 74.6803 52.0488 74.6908 51.9616 74.7128C51.0247 74.9482 50.0592 74.6818 49.3777 74.0005C48.6964 73.3193 48.4302 72.3533 48.6655 71.4166C48.7811 70.9573 48.5817 70.4765 48.1752 70.233C47.3466 69.7372 46.8518 68.866 46.8518 67.9024C46.8518 66.9388 47.3466 66.0677 48.1752 65.5718C48.5817 65.3286 48.7809 64.8478 48.6655 64.3882C48.4302 63.4515 48.6966 62.4856 49.3777 61.8043C50.059 61.123 51.0249 60.8566 51.9616 61.0921C52.4212 61.2075 52.902 61.0083 53.1452 60.6018C53.6411 59.7732 54.5122 59.2784 55.4758 59.2784C56.4392 59.2784 57.3106 59.7732 57.8064 60.6018C58.0499 61.0083 58.5309 61.2077 58.99 61.0921C59.9276 60.8566 60.8925 61.1232 61.5739 61.8043C62.2552 62.4856 62.5214 63.4515 62.2859 64.388C62.1706 64.8476 62.3697 65.3284 62.7762 65.5716C63.6049 66.0674 64.0996 66.9388 64.0996 67.9022C64.0996 68.8656 63.6049 69.7374 62.7762 70.2333Z" fill="black"/>
<path d="M55.4753 62.6138C52.559 62.6138 50.1865 64.9863 50.1865 67.9026C50.1865 70.8189 52.559 73.1914 55.4753 73.1914C58.3916 73.1914 60.7641 70.8189 60.7641 67.9026C60.7641 64.9863 58.3916 62.6138 55.4753 62.6138ZM55.4753 71.0429C53.7437 71.0429 52.335 69.6342 52.335 67.9026C52.335 66.1709 53.7437 64.7622 55.4753 64.7622C57.207 64.7622 58.6157 66.1709 58.6157 67.9026C58.6157 69.6342 57.207 71.0429 55.4753 71.0429Z" fill="black"/>
<path d="M105.298 25.876H97.9824C97.389 25.876 96.9082 26.357 96.9082 26.9502V38.2383C96.9082 38.8315 97.389 39.3125 97.9824 39.3125H105.298C105.891 39.3125 106.372 38.8315 106.372 38.2383V26.9502C106.372 26.357 105.891 25.876 105.298 25.876ZM104.224 37.1641H99.0566V28.0244H104.224V37.1641Z" fill="black"/>
<path d="M101.641 35.7076C102.236 35.7076 102.719 35.225 102.719 34.6299C102.719 34.0348 102.236 33.5522 101.641 33.5522C101.046 33.5522 100.563 34.0348 100.563 34.6299C100.563 35.225 101.046 35.7076 101.641 35.7076Z" fill="black"/>
<path d="M101.641 31.8892C102.236 31.8892 102.719 31.4067 102.719 30.8115C102.719 30.2164 102.236 29.7339 101.641 29.7339C101.046 29.7339 100.563 30.2164 100.563 30.8115C100.563 31.4067 101.046 31.8892 101.641 31.8892Z" fill="black"/>
</svg>
