<svg width="191" height="139" viewBox="0 0 191 139" fill="none" xmlns="http://www.w3.org/2000/svg">
<g clip-path="url(#clip0_1680_30173)">
<path d="M86.7596 115.977C114.759 115.977 137.459 93.2774 137.459 65.1774C137.459 37.0774 114.759 14.3774 86.7596 14.3774C58.7596 14.3774 36.0596 37.0774 36.0596 65.1774C36.0596 93.2774 58.7596 115.977 86.7596 115.977Z" fill="#EAEEF9"/>
<g filter="url(#filter0_d_1680_30173)">
<path d="M97.0466 45.5656C97.0466 53.005 91.0304 59.0212 83.5264 59.0212C83.397 59.0212 82.2973 59.0212 74.211 59.0212C68.583 59.0212 59.5911 59.0212 45.2299 59.0212H38.3727C29.3808 59.2152 22.2002 52.0346 22.2002 43.3662C22.2002 34.633 29.4455 27.3877 38.5668 27.8406C46.3943 3.3877 82.2326 6.81627 85.273 32.1101C92.0008 32.9511 97.0466 38.6438 97.0466 45.5656Z" fill="url(#paint0_linear_1680_30173)"/>
</g>
<path d="M83.5262 59.021C90.9655 59.021 97.0464 53.0048 97.0464 45.5655C97.0464 38.1261 90.9655 32.1099 83.5262 32.1099C76.0868 32.1099 70.0059 38.1261 70.0059 45.5655C70.0059 53.0048 76.0868 59.021 83.5262 59.021Z" fill="url(#paint1_linear_1680_30173)"/>
<path d="M61.467 59.1504C74.7284 59.1504 85.5317 48.4118 85.5317 35.1504C85.5317 21.8889 74.7284 11.1504 61.467 11.1504C48.2055 11.1504 37.4023 21.8889 37.4023 35.1504C37.4023 48.4118 48.1408 59.1504 61.467 59.1504Z" fill="url(#paint2_linear_1680_30173)"/>
<g filter="url(#filter1_d_1680_30173)">
<path d="M168.606 80.7013C168.606 88.8718 161.999 95.4792 153.757 95.4792C153.615 95.4792 152.407 95.4792 143.526 95.4792C137.345 95.4792 127.47 95.4792 111.697 95.4792H104.166C94.2905 95.6924 86.4043 87.8061 86.4043 78.2857C86.4043 68.6943 94.3616 60.737 104.379 61.2343C112.976 34.3783 152.336 38.1438 155.675 65.9234C163.064 66.847 168.606 73.0992 168.606 80.7013Z" fill="url(#paint3_linear_1680_30173)"/>
</g>
<path d="M153.757 95.4796C161.928 95.4796 168.606 88.8721 168.606 80.7017C168.606 72.5312 161.928 65.9238 153.757 65.9238C145.587 65.9238 138.908 72.5312 138.908 80.7017C138.908 88.8721 145.587 95.4796 153.757 95.4796Z" fill="url(#paint4_linear_1680_30173)"/>
<path d="M129.53 95.6216C144.095 95.6216 155.96 83.8277 155.96 69.2629C155.96 54.6982 144.095 42.9043 129.53 42.9043C114.965 42.9043 103.1 54.6982 103.1 69.2629C103.1 83.8277 114.894 95.6216 129.53 95.6216Z" fill="url(#paint5_linear_1680_30173)"/>
<g filter="url(#filter2_d_1680_30173)">
<path d="M85.5319 97.3547C85.5319 102.004 81.7718 105.765 77.0818 105.765C77.0009 105.765 76.3136 105.765 71.2597 105.765C67.7421 105.765 62.1222 105.765 53.1465 105.765H48.8607C43.2408 105.886 38.7529 101.398 38.7529 95.98C38.7529 90.5218 43.2812 85.9935 48.982 86.2765C53.8742 70.9935 76.2731 73.1364 78.1734 88.945C82.3783 89.4706 85.5319 93.0286 85.5319 97.3547Z" fill="url(#paint6_linear_1680_30173)"/>
</g>
<path d="M77.0819 105.765C81.7315 105.765 85.5321 102.004 85.5321 97.355C85.5321 92.7054 81.7315 88.9453 77.0819 88.9453C72.4323 88.9453 68.6318 92.7054 68.6318 97.355C68.6318 102.004 72.4323 105.765 77.0819 105.765Z" fill="url(#paint7_linear_1680_30173)"/>
<path d="M63.2953 105.845C71.5837 105.845 78.3358 99.1341 78.3358 90.8457C78.3358 82.5572 71.5837 75.8457 63.2953 75.8457C55.0069 75.8457 48.2549 82.5572 48.2549 90.8457C48.2549 99.1341 54.9665 105.845 63.2953 105.845Z" fill="url(#paint8_linear_1680_30173)"/>
<path d="M83.1172 46.1166L76.5223 51.4322C75.2926 52.3493 73.6869 51.6957 73.3109 50.1248L71.1094 34.8735" fill="url(#paint9_linear_1680_30173)"/>
<path d="M146.145 7.56934L141.907 11.4902L97.5604 52.8317C95.5397 54.7687 92.4144 54.6864 90.3309 52.9014L74.3988 38.238L71.2029 35.266L62.3909 26.9949C60.5032 25.1631 61.3646 21.8428 63.9572 21.4298L136.847 9.37964L146.145 7.56934Z" fill="#46A294"/>
<path d="M146.145 7.56934L141.907 11.4902L97.5604 52.8317C95.5397 54.7687 92.4144 54.6864 90.3309 52.9014L74.3988 38.238L71.2029 35.266L62.3909 26.9949C60.5032 25.1631 61.3646 21.8428 63.9572 21.4298L136.847 9.37964L146.145 7.56934Z" fill="white" fill-opacity="0.4"/>
<path d="M146.145 7.56934L141.908 11.4902L74.548 37.9947L71.1562 35.0697L136.996 9.13641L146.145 7.56934Z" fill="url(#paint10_linear_1680_30173)"/>
<path d="M23.3521 90.8299L20.5279 93.2341C20.0004 93.6501 19.2899 93.3828 19.1068 92.6996L17.9639 86.0498" fill="url(#paint11_linear_1680_30173)"/>
<path d="M50.4874 73.2163L48.6787 74.9823L29.7533 93.5993C28.8916 94.4709 27.5226 94.4716 26.5897 93.7148L19.4436 87.4837L18.0098 86.2204L14.0554 82.7036C13.2076 81.924 13.5457 80.4605 14.6756 80.2492L46.4391 74.1179L50.4874 73.2163Z" fill="#46A294"/>
<path d="M50.4874 73.2163L48.6787 74.9823L29.7533 93.5993C28.8916 94.4709 27.5226 94.4716 26.5897 93.7148L19.4436 87.4837L18.0098 86.2204L14.0554 82.7036C13.2076 81.924 13.5457 80.4605 14.6756 80.2492L46.4391 74.1179L50.4874 73.2163Z" fill="white" fill-opacity="0.4"/>
<path d="M50.4878 73.2163L48.6791 74.9823L19.5063 87.3755L17.9873 86.135L46.5018 74.0097L50.4878 73.2163Z" fill="url(#paint12_linear_1680_30173)"/>
<path d="M78.3756 101.333L73.2044 105.735C72.2386 106.497 70.9376 106.007 70.6025 104.756L68.5098 92.5806" fill="url(#paint13_linear_1680_30173)"/>
<path d="M128.06 69.0825L124.749 72.3161L90.0961 106.404C88.5182 108 86.0117 108.001 84.3034 106.616L71.2188 95.2064L68.5935 92.8932L61.353 86.454C59.8007 85.0265 60.4196 82.3468 62.4886 81.96L120.648 70.7335L128.06 69.0825Z" fill="#46A294"/>
<path d="M128.06 69.0825L124.749 72.3161L90.0961 106.404C88.5182 108 86.0117 108.001 84.3034 106.616L71.2188 95.2064L68.5935 92.8932L61.353 86.454C59.8007 85.0265 60.4196 82.3468 62.4886 81.96L120.648 70.7335L128.06 69.0825Z" fill="white" fill-opacity="0.4"/>
<path d="M128.061 69.0825L124.749 72.3161L71.3331 95.0082L68.5518 92.7369L120.762 70.5354L128.061 69.0825Z" fill="url(#paint14_linear_1680_30173)"/>
</g>
<defs>
<filter id="filter0_d_1680_30173" x="0.200195" y="0.208984" width="118.847" height="91.8159" filterUnits="userSpaceOnUse" color-interpolation-filters="sRGB">
<feFlood flood-opacity="0" result="BackgroundImageFix"/>
<feColorMatrix in="SourceAlpha" type="matrix" values="0 0 0 0 0 0 0 0 0 0 0 0 0 0 0 0 0 0 127 0" result="hardAlpha"/>
<feOffset dy="11"/>
<feGaussianBlur stdDeviation="11"/>
<feColorMatrix type="matrix" values="0 0 0 0 0.397708 0 0 0 0 0.47749 0 0 0 0 0.575 0 0 0 0.27 0"/>
<feBlend mode="normal" in2="BackgroundImageFix" result="effect1_dropShadow_1680_30173"/>
<feBlend mode="normal" in="SourceGraphic" in2="effect1_dropShadow_1680_30173" result="shape"/>
</filter>
<filter id="filter1_d_1680_30173" x="64.4043" y="31.9683" width="126.202" height="96.5151" filterUnits="userSpaceOnUse" color-interpolation-filters="sRGB">
<feFlood flood-opacity="0" result="BackgroundImageFix"/>
<feColorMatrix in="SourceAlpha" type="matrix" values="0 0 0 0 0 0 0 0 0 0 0 0 0 0 0 0 0 0 127 0" result="hardAlpha"/>
<feOffset dy="11"/>
<feGaussianBlur stdDeviation="11"/>
<feColorMatrix type="matrix" values="0 0 0 0 0.397708 0 0 0 0 0.47749 0 0 0 0 0.575 0 0 0 0.27 0"/>
<feBlend mode="normal" in2="BackgroundImageFix" result="effect1_dropShadow_1680_30173"/>
<feBlend mode="normal" in="SourceGraphic" in2="effect1_dropShadow_1680_30173" result="shape"/>
</filter>
<filter id="filter2_d_1680_30173" x="16.7529" y="64.8818" width="90.7793" height="73.8853" filterUnits="userSpaceOnUse" color-interpolation-filters="sRGB">
<feFlood flood-opacity="0" result="BackgroundImageFix"/>
<feColorMatrix in="SourceAlpha" type="matrix" values="0 0 0 0 0 0 0 0 0 0 0 0 0 0 0 0 0 0 127 0" result="hardAlpha"/>
<feOffset dy="11"/>
<feGaussianBlur stdDeviation="11"/>
<feColorMatrix type="matrix" values="0 0 0 0 0.397708 0 0 0 0 0.47749 0 0 0 0 0.575 0 0 0 0.27 0"/>
<feBlend mode="normal" in2="BackgroundImageFix" result="effect1_dropShadow_1680_30173"/>
<feBlend mode="normal" in="SourceGraphic" in2="effect1_dropShadow_1680_30173" result="shape"/>
</filter>
<linearGradient id="paint0_linear_1680_30173" x1="59.6234" y1="30.9684" x2="59.599" y2="59.5405" gradientUnits="userSpaceOnUse">
<stop stop-color="white"/>
<stop offset="0.9964" stop-color="#ECF0F5"/>
</linearGradient>
<linearGradient id="paint1_linear_1680_30173" x1="68.5672" y1="29.213" x2="80.5528" y2="42.3216" gradientUnits="userSpaceOnUse">
<stop stop-color="#BCCBE1"/>
<stop offset="0.9942" stop-color="white" stop-opacity="0"/>
</linearGradient>
<linearGradient id="paint2_linear_1680_30173" x1="35.1489" y1="24.1374" x2="54.0392" y2="31.5297" gradientUnits="userSpaceOnUse">
<stop stop-color="#E2E8F0"/>
<stop offset="0.9942" stop-color="white" stop-opacity="0"/>
</linearGradient>
<linearGradient id="paint3_linear_1680_30173" x1="127.505" y1="64.6696" x2="127.478" y2="96.0496" gradientUnits="userSpaceOnUse">
<stop stop-color="white"/>
<stop offset="0.9964" stop-color="#ECF0F5"/>
</linearGradient>
<linearGradient id="paint4_linear_1680_30173" x1="137.328" y1="62.7421" x2="150.492" y2="77.139" gradientUnits="userSpaceOnUse">
<stop stop-color="#BCCBE1"/>
<stop offset="0.9942" stop-color="white" stop-opacity="0"/>
</linearGradient>
<linearGradient id="paint5_linear_1680_30173" x1="100.625" y1="57.1677" x2="121.372" y2="65.2865" gradientUnits="userSpaceOnUse">
<stop stop-color="#E2E8F0"/>
<stop offset="0.9942" stop-color="white" stop-opacity="0"/>
</linearGradient>
<linearGradient id="paint6_linear_1680_30173" x1="62.1424" y1="88.2315" x2="62.1272" y2="106.089" gradientUnits="userSpaceOnUse">
<stop stop-color="white"/>
<stop offset="0.9964" stop-color="#ECF0F5"/>
</linearGradient>
<linearGradient id="paint7_linear_1680_30173" x1="67.7326" y1="87.1347" x2="75.2235" y2="95.3276" gradientUnits="userSpaceOnUse">
<stop stop-color="#BCCBE1"/>
<stop offset="0.9942" stop-color="white" stop-opacity="0"/>
</linearGradient>
<linearGradient id="paint8_linear_1680_30173" x1="46.8465" y1="83.9626" x2="58.6529" y2="88.5828" gradientUnits="userSpaceOnUse">
<stop stop-color="#E2E8F0"/>
<stop offset="0.9942" stop-color="white" stop-opacity="0"/>
</linearGradient>
<linearGradient id="paint9_linear_1680_30173" x1="77.1142" y1="35.4633" x2="77.2068" y2="51.8955" gradientUnits="userSpaceOnUse">
<stop stop-color="#48A194"/>
<stop offset="1" stop-color="#7DA0A7"/>
</linearGradient>
<linearGradient id="paint10_linear_1680_30173" x1="108.656" y1="8.62625" x2="108.704" y2="38.0738" gradientUnits="userSpaceOnUse">
<stop stop-color="#48A194"/>
<stop offset="1" stop-color="#7DA0A7"/>
</linearGradient>
<linearGradient id="paint11_linear_1680_30173" x1="20.6584" y1="86.3063" x2="20.6974" y2="93.4514" gradientUnits="userSpaceOnUse">
<stop stop-color="#48A194"/>
<stop offset="1" stop-color="#7DA0A7"/>
</linearGradient>
<linearGradient id="paint12_linear_1680_30173" x1="34.2399" y1="73.7082" x2="34.2637" y2="87.4123" gradientUnits="userSpaceOnUse">
<stop stop-color="#48A194"/>
<stop offset="1" stop-color="#7DA0A7"/>
</linearGradient>
<linearGradient id="paint13_linear_1680_30173" x1="73.4434" y1="93.0501" x2="73.5149" y2="106.133" gradientUnits="userSpaceOnUse">
<stop stop-color="#48A194"/>
<stop offset="1" stop-color="#7DA0A7"/>
</linearGradient>
<linearGradient id="paint14_linear_1680_30173" x1="98.3108" y1="69.9831" x2="98.3544" y2="95.0757" gradientUnits="userSpaceOnUse">
<stop stop-color="#48A194"/>
<stop offset="1" stop-color="#7DA0A7"/>
</linearGradient>
<clipPath id="clip0_1680_30173">
<rect width="191" height="139" fill="white"/>
</clipPath>
</defs>
</svg>
