<svg width="26" height="23" viewBox="0 0 26 23" fill="none" xmlns="http://www.w3.org/2000/svg">
<g opacity="0.75">
<path fill-rule="evenodd" clip-rule="evenodd" d="M1.46129 2.26431V7.26431H23.734V2.26431H1.46129ZM1.23402 0.959961C0.606424 0.959961 0.0976562 1.44661 0.0976562 2.04692V7.4817C0.0976562 8.08201 0.606424 8.56866 1.23402 8.56866H23.9613C24.5889 8.56866 25.0977 8.08201 25.0977 7.4817V2.04692C25.0977 1.44661 24.5889 0.959961 23.9613 0.959961H1.23402Z" fill="#262626"/>
<path fill-rule="evenodd" clip-rule="evenodd" d="M0.0976562 12.2645C0.0976562 11.9043 0.402917 11.6123 0.779474 11.6123H24.4158C24.7924 11.6123 25.0977 11.9043 25.0977 12.2645C25.0977 12.6247 24.7924 12.9167 24.4158 12.9167H0.779474C0.402917 12.9167 0.0976562 12.6247 0.0976562 12.2645Z" fill="#262626"/>
<path fill-rule="evenodd" clip-rule="evenodd" d="M0.0976562 17.1556C0.0976562 16.7954 0.402917 16.5034 0.779474 16.5034H24.4158C24.7924 16.5034 25.0977 16.7954 25.0977 17.1556C25.0977 17.5158 24.7924 17.8078 24.4158 17.8078H0.779474C0.402917 17.8078 0.0976562 17.5158 0.0976562 17.1556Z" fill="#262626"/>
<path fill-rule="evenodd" clip-rule="evenodd" d="M0.0976562 22.0472C0.0976562 21.687 0.402917 21.395 0.779474 21.395H24.4158C24.7924 21.395 25.0977 21.687 25.0977 22.0472C25.0977 22.4074 24.7924 22.6994 24.4158 22.6994H0.779474C0.402917 22.6994 0.0976562 22.4074 0.0976562 22.0472Z" fill="#262626"/>
</g>
</svg>
