<svg width="344" height="242" viewBox="0 0 344 242" fill="none" xmlns="http://www.w3.org/2000/svg">
<g clip-path="url(#clip0_1921_11813)">
<path d="M36.2002 221.297H77.9382V224.907H36.2002V221.297Z" fill="#E7EBF2"/>
<path d="M38.7802 213.21C39.1312 212.061 40.1366 211.283 41.2708 211.283H72.9772C74.1113 211.283 75.1167 212.061 75.4678 213.21L77.9384 221.297H36.3096L38.7802 213.21Z" fill="#E7EBF2"/>
<path d="M23.3066 67.8218V81.4459H142.839L131.257 68.9862L23.3066 67.8218Z" stroke="#E7EBF2" stroke-width="2" stroke-miterlimit="10" stroke-linejoin="round"/>
<path d="M91.1592 81.4455V68.9858L104.489 81.4455V68.9858L117.928 81.4455V68.9858L131.258 81.4455V69.4516V68.9858" stroke="#E7EBF2" stroke-width="2" stroke-miterlimit="10" stroke-linejoin="round"/>
<path d="M37.6201 81.4455V68.0542" stroke="#E7EBF2" stroke-width="2" stroke-miterlimit="10" stroke-linejoin="round"/>
<path d="M77.7196 68.9858V81.4455L64.3896 68.9858" stroke="#E7EBF2" stroke-width="2" stroke-miterlimit="10" stroke-linejoin="round"/>
<path d="M64.3896 68.9858V81.4455" stroke="#E7EBF2" stroke-width="2" stroke-miterlimit="10" stroke-linejoin="round"/>
<path d="M49.9668 205.46H64.2801V55.1291L57.0688 48.0259L49.9668 55.1291V205.46Z" stroke="#E7EBF2" stroke-width="2" stroke-miterlimit="10" stroke-linejoin="round"/>
<path d="M64.2801 55.9438H49.9668" stroke="#E7EBF2" stroke-width="2" stroke-miterlimit="10"/>
<path d="M64.2801 94.3711H49.9668" stroke="#E7EBF2" stroke-width="2" stroke-miterlimit="10" stroke-linejoin="round"/>
<path d="M64.2801 106.714H49.9668" stroke="#E7EBF2" stroke-width="2" stroke-miterlimit="10"/>
<path d="M64.2801 118.941H49.9668" stroke="#E7EBF2" stroke-width="2" stroke-miterlimit="10"/>
<path d="M64.2801 131.284H49.9668" stroke="#E7EBF2" stroke-width="2" stroke-miterlimit="10"/>
<path d="M64.2801 143.627H49.9668" stroke="#E7EBF2" stroke-width="2" stroke-miterlimit="10"/>
<path d="M64.2801 155.971H49.9668" stroke="#E7EBF2" stroke-width="2" stroke-miterlimit="10"/>
<path d="M64.2801 168.197H49.9668" stroke="#E7EBF2" stroke-width="2" stroke-miterlimit="10"/>
<path d="M64.2801 180.542H49.9668" stroke="#E7EBF2" stroke-width="2" stroke-miterlimit="10"/>
<path d="M64.2801 192.884H49.9668" stroke="#E7EBF2" stroke-width="2" stroke-miterlimit="10"/>
<path d="M120.659 68.8696L57.0692 48.0259L26.8037 67.9381" stroke="#E7EBF2" stroke-width="2" stroke-miterlimit="10" stroke-linejoin="round"/>
<path d="M64.3893 81.4455L49.9668 68.2871" stroke="#E7EBF2" stroke-width="2" stroke-miterlimit="10" stroke-linejoin="round"/>
<path d="M50.4043 81.9116L63.9527 93.9052" stroke="#E7EBF2" stroke-width="2" stroke-miterlimit="10" stroke-linejoin="round"/>
<path d="M50.4043 56.1768L64.0621 67.8213" stroke="#E7EBF2" stroke-width="2" stroke-miterlimit="10" stroke-linejoin="round"/>
<path d="M38.0576 68.2871L49.4209 81.2126" stroke="#E7EBF2" stroke-width="2" stroke-miterlimit="10" stroke-linejoin="round"/>
<path d="M37.2922 81.2126L23.416 68.2871" stroke="#E7EBF2" stroke-width="2" stroke-miterlimit="10" stroke-linejoin="round"/>
<path d="M78.1562 68.8696L90.7212 80.8635" stroke="#E7EBF2" stroke-width="2" stroke-miterlimit="10" stroke-linejoin="round"/>
<path d="M50.5137 94.7202L63.9528 106.249" stroke="#E7EBF2" stroke-width="2" stroke-miterlimit="10" stroke-linejoin="round"/>
<path d="M50.5137 107.181L63.9528 118.475" stroke="#E7EBF2" stroke-width="2" stroke-miterlimit="10" stroke-linejoin="round"/>
<path d="M50.4043 119.407L63.9527 130.819" stroke="#E7EBF2" stroke-width="2" stroke-miterlimit="10" stroke-linejoin="round"/>
<path d="M50.4043 131.867L63.9527 143.162" stroke="#E7EBF2" stroke-width="2" stroke-miterlimit="10" stroke-linejoin="round"/>
<path d="M50.4043 144.094L63.9527 155.389" stroke="#E7EBF2" stroke-width="2" stroke-miterlimit="10" stroke-linejoin="round"/>
<path d="M50.4043 156.32L63.9527 167.732" stroke="#E7EBF2" stroke-width="2" stroke-miterlimit="10" stroke-linejoin="round"/>
<path d="M50.4043 168.664L63.9527 180.075" stroke="#E7EBF2" stroke-width="2" stroke-miterlimit="10" stroke-linejoin="round"/>
<path d="M50.4043 181.007L63.9527 192.419" stroke="#E7EBF2" stroke-width="2" stroke-miterlimit="10" stroke-linejoin="round"/>
<path d="M50.4043 193.466L63.9527 204.761" stroke="#E7EBF2" stroke-width="2" stroke-miterlimit="10" stroke-linejoin="round"/>
<path d="M43.4093 205.344H70.7287C71.6931 205.344 72.4749 206.177 72.4749 207.205V211.282H41.6631V207.205C41.6631 206.177 42.4449 205.344 43.4093 205.344Z" fill="#E7EBF2"/>
<path d="M79.9047 92.7411L71.7101 101.475C71.1638 102.056 70.3989 102.406 69.7433 102.406H49.2021V81.9116H80.888V90.5286C80.6696 91.4602 80.4511 92.1589 79.9047 92.7411Z" fill="#E7EBF2"/>
<path d="M61.237 91.2146H53.3682C52.886 91.2146 52.4951 90.798 52.4951 90.2841V86.2064C52.4951 85.6925 52.886 85.2759 53.3682 85.2759H61.237C61.7192 85.2759 62.1101 85.6925 62.1101 86.2064V90.2841C62.1101 90.798 61.7192 91.2146 61.237 91.2146Z" fill="white"/>
<path d="M73.6668 91.2141H65.7979C65.3157 91.2141 64.9248 90.7975 64.9248 90.2836V86.2059C64.9248 85.692 65.3157 85.2754 65.7979 85.2754H73.6668C74.149 85.2754 74.5399 85.692 74.5399 86.2059V90.2836C74.5399 90.7975 74.149 91.2141 73.6668 91.2141Z" fill="white"/>
<path d="M25.4491 188.501H21.165V225.763H25.4491V188.501Z" fill="#B9C0D0"/>
<path d="M55.8525 188.501H51.5684V225.763H55.8525V188.501Z" fill="#B9C0D0"/>
<path d="M185.204 224.438C173.596 224.732 159.775 224.438 149.964 224.29C140.152 224.585 126.332 224.732 114.724 224.438C126.194 217.515 130.064 204.702 130.755 196.159H169.035C169.864 204.702 173.734 217.515 185.204 224.438Z" fill="url(#paint0_linear_1921_11813)"/>
<path d="M221.965 88.9378V194.834C221.965 197.485 220.03 199.4 217.68 199.4H82.248C79.8986 199.4 77.9639 197.338 77.9639 194.834V88.9378C77.9639 86.434 79.8986 84.3721 82.248 84.3721H217.68C220.03 84.3721 221.965 86.2867 221.965 88.9378Z" fill="#E8EDF8"/>
<path d="M221.964 88.9378V180.253H78.1016V88.9378C78.1016 86.434 80.0363 84.3721 82.3857 84.3721H217.818C220.029 84.3721 221.964 86.2867 221.964 88.9378Z" fill="#B9C0D0"/>
<path d="M216.85 89.9678H83.2148V174.95H216.713V89.9678H216.85Z" fill="white"/>
<path d="M149.964 193.508C151.948 193.508 153.558 191.794 153.558 189.679C153.558 187.564 151.948 185.849 149.964 185.849C147.979 185.849 146.371 187.564 146.371 189.679C146.371 191.794 147.979 193.508 149.964 193.508Z" fill="#B9C0D0"/>
<path d="M300.97 192.625H297.238V225.322H300.97V192.625Z" fill="#B9C0D0"/>
<path d="M327.643 192.625H323.911V225.322H327.643V192.625Z" fill="#B9C0D0"/>
<path d="M332.34 194.098H293.093V207.5H332.34V194.098Z" fill="#E8EDF8"/>
<path d="M302.63 194.098L298.483 207.5H293.784L297.793 194.098H302.63Z" fill="url(#paint1_linear_1921_11813)"/>
<path d="M312.164 194.098L308.017 207.5H303.319L307.327 194.098H312.164Z" fill="url(#paint2_linear_1921_11813)"/>
<path d="M321.699 194.098L317.553 207.5H312.854L316.863 194.098H321.699Z" fill="url(#paint3_linear_1921_11813)"/>
<path d="M331.235 194.098L327.09 207.5H322.391L326.398 194.098H331.235Z" fill="url(#paint4_linear_1921_11813)"/>
<path d="M61.2425 190.268H16.4668V205.586H61.2425V190.268Z" fill="#E8EDF8"/>
<path d="M27.2456 190.268L22.5469 205.438H17.1572L21.8559 190.268H27.2456Z" fill="url(#paint5_linear_1921_11813)"/>
<path d="M38.1636 190.268L33.4649 205.438H28.0752L32.6357 190.268H38.1636Z" fill="url(#paint6_linear_1921_11813)"/>
<path d="M49.0806 190.268L44.3819 205.438H38.9922L43.5527 190.268H49.0806Z" fill="url(#paint7_linear_1921_11813)"/>
<path d="M59.9985 190.268L55.2998 205.438H49.9102L54.4706 190.268H59.9985Z" fill="url(#paint8_linear_1921_11813)"/>
<path d="M167.515 43.2803V61.2487" stroke="#BBC1CF" stroke-width="2" stroke-miterlimit="10" stroke-linejoin="round"/>
<path d="M167.584 69.0542C170.294 69.0542 172.49 66.7133 172.49 63.8257C172.49 60.938 170.294 58.5972 167.584 58.5972C164.874 58.5972 162.678 60.938 162.678 63.8257C162.678 66.7133 164.874 69.0542 167.584 69.0542Z" fill="#B9C0D0"/>
<path d="M162.816 77.7443C162.816 80.9844 165.58 83.6355 168.897 82.7518C170.693 82.3099 172.076 80.8371 172.49 78.9225C173.043 76.1241 171.523 73.4731 169.173 72.7366C168.344 72.4421 167.791 71.7057 167.791 70.6747V66.1089" stroke="#BBC1CF" stroke-width="2" stroke-miterlimit="10" stroke-linejoin="round"/>
<path d="M286.917 220.903H234.126V225.469H286.917V220.903Z" fill="url(#paint9_linear_1921_11813)"/>
<path d="M283.498 210.164C283.147 209.015 282.141 208.237 281.007 208.237H239.897C238.763 208.237 237.757 209.015 237.406 210.164L234.126 220.903H286.779L283.498 210.164Z" fill="#CAD0DD"/>
<path d="M303.223 26.7837V44.0158H152.036L166.685 28.2565L303.223 26.7837Z" stroke="#BBC1CF" stroke-width="2" stroke-miterlimit="10" stroke-linejoin="round"/>
<path d="M217.404 44.016V28.2568L200.544 44.016V28.2568L183.546 44.016V28.2568L166.686 44.016V28.8459V28.2568" stroke="#BBC1CF" stroke-width="2" stroke-miterlimit="10" stroke-linejoin="round"/>
<path d="M285.12 44.0162V27.0786" stroke="#BBC1CF" stroke-width="2" stroke-miterlimit="10" stroke-linejoin="round"/>
<path d="M234.401 28.2568V44.016L251.262 28.2568" stroke="#BBC1CF" stroke-width="2" stroke-miterlimit="10" stroke-linejoin="round"/>
<path d="M251.262 28.2568V44.016" stroke="#BBC1CF" stroke-width="2" stroke-miterlimit="10" stroke-linejoin="round"/>
<path d="M269.504 200.872H251.4V10.7299L260.522 1.74561L269.504 10.7299V200.872Z" stroke="#BBC1CF" stroke-width="2" stroke-miterlimit="10" stroke-linejoin="round"/>
<path d="M251.4 11.7612H269.504" stroke="#BBC1CF" stroke-width="2" stroke-miterlimit="10"/>
<path d="M251.4 60.3643H269.504" stroke="#BBC1CF" stroke-width="2" stroke-miterlimit="10" stroke-linejoin="round"/>
<path d="M251.4 75.9761H269.504" stroke="#BBC1CF" stroke-width="2" stroke-miterlimit="10"/>
<path d="M251.4 91.4409H269.504" stroke="#BBC1CF" stroke-width="2" stroke-miterlimit="10"/>
<path d="M251.4 107.053H269.504" stroke="#BBC1CF" stroke-width="2" stroke-miterlimit="10"/>
<path d="M251.4 122.665H269.504" stroke="#BBC1CF" stroke-width="2" stroke-miterlimit="10"/>
<path d="M251.4 138.277H269.504" stroke="#BBC1CF" stroke-width="2" stroke-miterlimit="10"/>
<path d="M251.4 153.741H269.504" stroke="#BBC1CF" stroke-width="2" stroke-miterlimit="10"/>
<path d="M251.4 169.354H269.504" stroke="#BBC1CF" stroke-width="2" stroke-miterlimit="10"/>
<path d="M251.4 184.965H269.504" stroke="#BBC1CF" stroke-width="2" stroke-miterlimit="10"/>
<path d="M180.091 28.1092L260.521 1.74561L298.801 26.931" stroke="#BBC1CF" stroke-width="2" stroke-miterlimit="10" stroke-linejoin="round"/>
<path d="M251.262 44.0155L269.503 27.3726" stroke="#BBC1CF" stroke-width="2" stroke-miterlimit="10" stroke-linejoin="round"/>
<path d="M268.951 44.605L251.814 59.7751" stroke="#BBC1CF" stroke-width="2" stroke-miterlimit="10" stroke-linejoin="round"/>
<path d="M268.951 12.0557L251.677 26.7839" stroke="#BBC1CF" stroke-width="2" stroke-miterlimit="10" stroke-linejoin="round"/>
<path d="M284.567 27.3726L270.195 43.7209" stroke="#BBC1CF" stroke-width="2" stroke-miterlimit="10" stroke-linejoin="round"/>
<path d="M285.535 43.7209L303.086 27.3726" stroke="#BBC1CF" stroke-width="2" stroke-miterlimit="10" stroke-linejoin="round"/>
<path d="M233.849 28.1094L217.956 43.2795" stroke="#BBC1CF" stroke-width="2" stroke-miterlimit="10" stroke-linejoin="round"/>
<path d="M268.813 60.8062L251.814 75.3871" stroke="#BBC1CF" stroke-width="2" stroke-miterlimit="10" stroke-linejoin="round"/>
<path d="M268.813 76.5654L251.814 90.8519" stroke="#BBC1CF" stroke-width="2" stroke-miterlimit="10" stroke-linejoin="round"/>
<path d="M268.951 92.0303L251.814 106.464" stroke="#BBC1CF" stroke-width="2" stroke-miterlimit="10" stroke-linejoin="round"/>
<path d="M268.951 107.789L251.814 122.076" stroke="#BBC1CF" stroke-width="2" stroke-miterlimit="10" stroke-linejoin="round"/>
<path d="M268.951 123.254L251.814 137.54" stroke="#BBC1CF" stroke-width="2" stroke-miterlimit="10" stroke-linejoin="round"/>
<path d="M268.951 138.719L251.814 153.152" stroke="#BBC1CF" stroke-width="2" stroke-miterlimit="10" stroke-linejoin="round"/>
<path d="M268.951 154.331L251.814 168.765" stroke="#BBC1CF" stroke-width="2" stroke-miterlimit="10" stroke-linejoin="round"/>
<path d="M268.951 169.943L251.814 184.376" stroke="#BBC1CF" stroke-width="2" stroke-miterlimit="10" stroke-linejoin="round"/>
<path d="M268.951 185.702L251.814 199.988" stroke="#BBC1CF" stroke-width="2" stroke-miterlimit="10" stroke-linejoin="round"/>
<path d="M278.26 200.725H242.781C241.817 200.725 241.035 201.559 241.035 202.586V208.237H280.007V202.586C280.007 201.559 279.224 200.725 278.26 200.725Z" fill="url(#paint10_linear_1921_11813)"/>
<path d="M107.261 169.796H90.1251C88.743 169.796 87.6377 168.618 87.6377 167.145V96.7442C87.6377 95.2712 88.743 94.0923 90.1251 94.0923H107.261C108.644 94.0923 109.749 95.2712 109.749 96.7442V167.145C109.749 168.618 108.644 169.796 107.261 169.796Z" fill="#E8EDF8"/>
<path d="M98.6933 108.231C100.983 108.231 102.84 106.253 102.84 103.813C102.84 101.372 100.983 99.394 98.6933 99.394C96.4041 99.394 94.5479 101.372 94.5479 103.813C94.5479 106.253 96.4041 108.231 98.6933 108.231Z" fill="url(#paint11_linear_1921_11813)"/>
<path d="M106.018 114.712H91.3688C91.0929 114.712 90.9541 114.564 90.9541 114.27V113.092C90.9541 112.797 91.0929 112.65 91.3688 112.65H105.88C106.156 112.65 106.294 112.797 106.294 113.092V114.27C106.432 114.564 106.156 114.712 106.018 114.712Z" fill="url(#paint12_linear_1921_11813)"/>
<path d="M106.018 120.897H91.3688C91.0929 120.897 90.9541 120.75 90.9541 120.456V119.277C90.9541 118.983 91.0929 118.835 91.3688 118.835H105.88C106.156 118.835 106.294 118.983 106.294 119.277V120.456C106.432 120.75 106.156 120.897 106.018 120.897Z" fill="url(#paint13_linear_1921_11813)"/>
<path d="M106.018 127.084H91.3688C91.0929 127.084 90.9541 126.936 90.9541 126.642V125.464C90.9541 125.169 91.0929 125.022 91.3688 125.022H105.88C106.156 125.022 106.294 125.169 106.294 125.464V126.642C106.432 126.936 106.156 127.084 106.018 127.084Z" fill="url(#paint14_linear_1921_11813)"/>
<path d="M106.018 133.417H91.3688C91.0929 133.417 90.9541 133.269 90.9541 132.975V131.796C90.9541 131.502 91.0929 131.355 91.3688 131.355H105.88C106.156 131.355 106.294 131.502 106.294 131.796V132.975C106.432 133.122 106.156 133.417 106.018 133.417Z" fill="url(#paint15_linear_1921_11813)"/>
<path d="M106.018 139.603H91.3688C91.0929 139.603 90.9541 139.455 90.9541 139.161V137.983C90.9541 137.688 91.0929 137.541 91.3688 137.541H105.88C106.156 137.541 106.294 137.688 106.294 137.983V139.161C106.432 139.308 106.156 139.603 106.018 139.603Z" fill="url(#paint16_linear_1921_11813)"/>
<path d="M106.018 145.788H91.3688C91.0929 145.788 90.9541 145.641 90.9541 145.346V144.168C90.9541 143.874 91.0929 143.726 91.3688 143.726H105.88C106.156 143.726 106.294 143.874 106.294 144.168V145.346C106.432 145.641 106.156 145.788 106.018 145.788Z" fill="url(#paint17_linear_1921_11813)"/>
<path d="M103.392 151.974H94.1325C93.8557 151.974 93.7178 151.827 93.7178 151.533V150.354C93.7178 150.06 93.8557 149.912 94.1325 149.912H103.392C103.668 149.912 103.806 150.06 103.806 150.354V151.533C103.806 151.827 103.53 151.974 103.392 151.974Z" fill="url(#paint18_linear_1921_11813)"/>
<path d="M158.809 159.191H121.91V161.4H158.809V159.191Z" fill="url(#paint19_linear_1921_11813)"/>
<path d="M141.949 165.082H121.91V167.291H141.949V165.082Z" fill="url(#paint20_linear_1921_11813)"/>
<path d="M203.169 159.191H166.271V161.4H203.169V159.191Z" fill="url(#paint21_linear_1921_11813)"/>
<path d="M186.31 165.082H166.271V167.291H186.31V165.082Z" fill="url(#paint22_linear_1921_11813)"/>
<path d="M135.235 87.3896L164.49 81.1867C166.635 80.6969 168.779 81.1867 170.463 82.3293L192.978 96.2046" stroke="#BBC1CF" stroke-width="2" stroke-miterlimit="10" stroke-linejoin="round"/>
<g filter="url(#filter0_d_1921_11813)">
<path d="M192.656 161.988L118.556 150.072C116.259 149.746 114.727 147.46 115.033 145.011L122.538 88.0425C122.845 85.594 124.989 83.9616 127.287 84.2881L201.387 96.2046C203.684 96.5302 205.216 98.8155 204.91 101.265L197.405 158.234C197.099 160.519 194.954 162.315 192.656 161.988Z" fill="white"/>
</g>
<path d="M190.23 155.504L123.991 144.479C122.118 144.213 120.87 142.35 121.12 140.355L127.237 93.9219C127.486 91.9263 129.234 90.5958 131.106 90.862L197.346 101.888C199.219 102.154 200.468 104.016 200.218 106.012L194.101 152.445C193.851 154.308 192.103 155.771 190.23 155.504Z" fill="#EFF3FB"/>
<path d="M231.639 58.3027L242.003 69.3489C242.694 70.0854 243.661 70.5272 244.491 70.5272H270.471V44.6055H230.395V55.5043C230.671 56.6826 230.947 57.5663 231.639 58.3027Z" fill="#B9C0D0"/>
<path d="M255.019 56.3717H265.434C265.917 56.3717 266.307 55.9551 266.307 55.4412V49.7909C266.307 49.2769 265.917 48.8604 265.434 48.8604H255.019C254.537 48.8604 254.146 49.2769 254.146 49.7909V55.4412C254.146 55.9551 254.537 56.3717 255.019 56.3717Z" fill="white"/>
<path d="M239.297 56.3717H249.712C250.194 56.3717 250.585 55.9551 250.585 55.4412V49.7909C250.585 49.2769 250.194 48.8604 249.712 48.8604H239.297C238.815 48.8604 238.424 49.2769 238.424 49.7909V55.4412C238.424 55.9551 238.815 56.3717 239.297 56.3717Z" fill="white"/>
<path d="M1.81738 225.763H342.303" stroke="#CDD6E1" stroke-width="3" stroke-miterlimit="10" stroke-linecap="round" stroke-linejoin="round"/>
<path d="M119.554 224.586H100.897L101.726 222.376L103.661 216.78L105.32 211.919L107.254 206.323L108.637 202.493C108.912 201.757 109.604 201.168 110.295 201.168C110.985 201.168 111.677 201.61 111.953 202.493L113.335 206.323L115.269 211.919L116.928 216.78L118.863 222.376L119.554 224.586Z" fill="#E8EDF8"/>
<path d="M115.275 211.919H105.33L107.199 206.47H113.379L115.275 211.919Z" fill="url(#paint23_linear_1921_11813)"/>
<path d="M118.857 222.377H101.721L103.655 216.78H116.922L118.857 222.377Z" fill="url(#paint24_linear_1921_11813)"/>
<path d="M119.554 224.585H100.759C100.206 224.585 99.6533 224.143 99.6533 223.407C99.6533 222.818 100.068 222.229 100.759 222.229H119.554C120.106 222.229 120.659 222.671 120.659 223.407C120.659 224.143 120.244 224.585 119.554 224.585Z" fill="#E8EDF8"/>
<path d="M221.792 224.586H203.135L203.964 222.376L205.899 216.78L207.557 211.919L209.492 206.323L210.874 202.493C211.151 201.757 211.841 201.168 212.533 201.168C213.223 201.168 213.914 201.61 214.191 202.493L215.573 206.323L217.508 211.919L219.166 216.78L221.1 222.376L221.792 224.586Z" fill="#E8EDF8"/>
<path d="M217.513 211.919H207.568L209.438 206.47H215.617L217.513 211.919Z" fill="url(#paint25_linear_1921_11813)"/>
<path d="M221.094 222.377H203.958L205.893 216.78H219.159L221.094 222.377Z" fill="url(#paint26_linear_1921_11813)"/>
<path d="M221.792 224.585H202.997C202.444 224.585 201.892 224.143 201.892 223.407C201.892 222.818 202.306 222.229 202.997 222.229H221.792C222.345 222.229 222.897 222.671 222.897 223.407C222.897 224.143 222.483 224.585 221.792 224.585Z" fill="#E8EDF8"/>
<path d="M145.894 124.895C147.851 125.212 149.758 123.716 150.056 121.629C150.353 119.544 148.949 117.512 146.992 117.195C145.035 116.878 143.128 118.374 142.831 120.46C142.533 122.545 143.937 124.577 145.894 124.895Z" fill="#989FB0"/>
<path d="M173.588 129.379C175.545 129.697 177.452 128.2 177.749 126.115C178.047 124.029 176.643 121.997 174.686 121.679C172.729 121.363 170.822 122.859 170.524 124.945C170.205 127.19 171.631 129.063 173.588 129.379Z" fill="#989FB0"/>
<path d="M148.118 108.285L139.52 111.571L140.29 113.862L148.888 110.576L148.118 108.285Z" fill="#989FB0"/>
<path d="M175.47 112.653L174.096 114.597L181.391 120.455L182.766 118.511L175.47 112.653Z" fill="#989FB0"/>
<path d="M158.46 136.12C160.788 136.497 162.889 135.294 163.155 133.434C163.42 131.574 161.748 129.759 159.42 129.383C157.094 129.006 154.991 130.209 154.726 132.069C154.461 133.929 156.132 135.743 158.46 136.12Z" fill="#989FB0"/>
<path d="M100.07 239.084H283.661" stroke="#CDD6E1" stroke-width="3" stroke-miterlimit="10" stroke-linecap="round" stroke-linejoin="round"/>
<path d="M40.3564 239.084H63.5576" stroke="#CDD6E1" stroke-width="3" stroke-miterlimit="10" stroke-linecap="round" stroke-linejoin="round"/>
</g>
<defs>
<filter id="filter0_d_1921_11813" x="92.9941" y="79.2466" width="133.955" height="121.78" filterUnits="userSpaceOnUse" color-interpolation-filters="sRGB">
<feFlood flood-opacity="0" result="BackgroundImageFix"/>
<feColorMatrix in="SourceAlpha" type="matrix" values="0 0 0 0 0 0 0 0 0 0 0 0 0 0 0 0 0 0 127 0" result="hardAlpha"/>
<feOffset dy="17"/>
<feGaussianBlur stdDeviation="11"/>
<feColorMatrix type="matrix" values="0 0 0 0 0.397708 0 0 0 0 0.47749 0 0 0 0 0.575 0 0 0 0.37 0"/>
<feBlend mode="normal" in2="BackgroundImageFix" result="effect1_dropShadow_1921_11813"/>
<feBlend mode="normal" in="SourceGraphic" in2="effect1_dropShadow_1921_11813" result="shape"/>
</filter>
<linearGradient id="paint0_linear_1921_11813" x1="150.026" y1="223.735" x2="150.026" y2="198.433" gradientUnits="userSpaceOnUse">
<stop stop-color="#F5F8FF"/>
<stop offset="0.9913" stop-color="#D8E0EB"/>
</linearGradient>
<linearGradient id="paint1_linear_1921_11813" x1="298.207" y1="194.098" x2="298.207" y2="207.5" gradientUnits="userSpaceOnUse">
<stop stop-color="#E3E8F0"/>
<stop offset="1" stop-color="#CCD3DE"/>
</linearGradient>
<linearGradient id="paint2_linear_1921_11813" x1="307.742" y1="194.098" x2="307.742" y2="207.5" gradientUnits="userSpaceOnUse">
<stop stop-color="#E3E8F0"/>
<stop offset="1" stop-color="#CCD3DE"/>
</linearGradient>
<linearGradient id="paint3_linear_1921_11813" x1="317.277" y1="194.098" x2="317.277" y2="207.5" gradientUnits="userSpaceOnUse">
<stop stop-color="#E3E8F0"/>
<stop offset="1" stop-color="#CCD3DE"/>
</linearGradient>
<linearGradient id="paint4_linear_1921_11813" x1="326.813" y1="194.098" x2="326.813" y2="207.5" gradientUnits="userSpaceOnUse">
<stop stop-color="#E3E8F0"/>
<stop offset="1" stop-color="#CCD3DE"/>
</linearGradient>
<linearGradient id="paint5_linear_1921_11813" x1="22.2015" y1="190.268" x2="22.2015" y2="205.438" gradientUnits="userSpaceOnUse">
<stop stop-color="#E3E8F0"/>
<stop offset="1" stop-color="#CCD3DE"/>
</linearGradient>
<linearGradient id="paint6_linear_1921_11813" x1="33.1193" y1="190.268" x2="33.1193" y2="205.438" gradientUnits="userSpaceOnUse">
<stop stop-color="#E3E8F0"/>
<stop offset="1" stop-color="#CCD3DE"/>
</linearGradient>
<linearGradient id="paint7_linear_1921_11813" x1="44.0363" y1="190.268" x2="44.0363" y2="205.438" gradientUnits="userSpaceOnUse">
<stop stop-color="#E3E8F0"/>
<stop offset="1" stop-color="#CCD3DE"/>
</linearGradient>
<linearGradient id="paint8_linear_1921_11813" x1="54.9543" y1="190.268" x2="54.9543" y2="205.438" gradientUnits="userSpaceOnUse">
<stop stop-color="#E3E8F0"/>
<stop offset="1" stop-color="#CCD3DE"/>
</linearGradient>
<linearGradient id="paint9_linear_1921_11813" x1="234.078" y1="223.1" x2="286.828" y2="223.1" gradientUnits="userSpaceOnUse">
<stop stop-color="#B0BACC"/>
<stop offset="1" stop-color="#969EAE"/>
</linearGradient>
<linearGradient id="paint10_linear_1921_11813" x1="241.091" y1="204.536" x2="280.024" y2="204.536" gradientUnits="userSpaceOnUse">
<stop stop-color="#B0BACC"/>
<stop offset="1" stop-color="#969EAE"/>
</linearGradient>
<linearGradient id="paint11_linear_1921_11813" x1="101.287" y1="99.394" x2="96.0627" y2="99.394" gradientUnits="userSpaceOnUse">
<stop stop-color="#E3E8F0"/>
<stop offset="1" stop-color="#CCD3DE"/>
</linearGradient>
<linearGradient id="paint12_linear_1921_11813" x1="103.452" y1="112.65" x2="93.7646" y2="112.65" gradientUnits="userSpaceOnUse">
<stop stop-color="#E3E8F0"/>
<stop offset="1" stop-color="#CCD3DE"/>
</linearGradient>
<linearGradient id="paint13_linear_1921_11813" x1="103.452" y1="118.835" x2="93.7646" y2="118.835" gradientUnits="userSpaceOnUse">
<stop stop-color="#E3E8F0"/>
<stop offset="1" stop-color="#CCD3DE"/>
</linearGradient>
<linearGradient id="paint14_linear_1921_11813" x1="103.452" y1="125.022" x2="93.7646" y2="125.022" gradientUnits="userSpaceOnUse">
<stop stop-color="#E3E8F0"/>
<stop offset="1" stop-color="#CCD3DE"/>
</linearGradient>
<linearGradient id="paint15_linear_1921_11813" x1="103.452" y1="131.355" x2="93.7646" y2="131.355" gradientUnits="userSpaceOnUse">
<stop stop-color="#E3E8F0"/>
<stop offset="1" stop-color="#CCD3DE"/>
</linearGradient>
<linearGradient id="paint16_linear_1921_11813" x1="103.452" y1="137.541" x2="93.7646" y2="137.541" gradientUnits="userSpaceOnUse">
<stop stop-color="#E3E8F0"/>
<stop offset="1" stop-color="#CCD3DE"/>
</linearGradient>
<linearGradient id="paint17_linear_1921_11813" x1="103.452" y1="143.726" x2="93.7646" y2="143.726" gradientUnits="userSpaceOnUse">
<stop stop-color="#E3E8F0"/>
<stop offset="1" stop-color="#CCD3DE"/>
</linearGradient>
<linearGradient id="paint18_linear_1921_11813" x1="101.918" y1="149.912" x2="95.5618" y2="149.912" gradientUnits="userSpaceOnUse">
<stop stop-color="#E3E8F0"/>
<stop offset="1" stop-color="#CCD3DE"/>
</linearGradient>
<linearGradient id="paint19_linear_1921_11813" x1="151.9" y1="159.191" x2="128.653" y2="159.191" gradientUnits="userSpaceOnUse">
<stop stop-color="#E3E8F0"/>
<stop offset="1" stop-color="#CCD3DE"/>
</linearGradient>
<linearGradient id="paint20_linear_1921_11813" x1="138.197" y1="165.082" x2="125.572" y2="165.082" gradientUnits="userSpaceOnUse">
<stop stop-color="#E3E8F0"/>
<stop offset="1" stop-color="#CCD3DE"/>
</linearGradient>
<linearGradient id="paint21_linear_1921_11813" x1="196.261" y1="159.191" x2="173.014" y2="159.191" gradientUnits="userSpaceOnUse">
<stop stop-color="#E3E8F0"/>
<stop offset="1" stop-color="#CCD3DE"/>
</linearGradient>
<linearGradient id="paint22_linear_1921_11813" x1="182.558" y1="165.082" x2="169.933" y2="165.082" gradientUnits="userSpaceOnUse">
<stop stop-color="#E3E8F0"/>
<stop offset="1" stop-color="#CCD3DE"/>
</linearGradient>
<linearGradient id="paint23_linear_1921_11813" x1="113.413" y1="206.47" x2="107.148" y2="206.47" gradientUnits="userSpaceOnUse">
<stop stop-color="#E3E8F0"/>
<stop offset="1" stop-color="#CCD3DE"/>
</linearGradient>
<linearGradient id="paint24_linear_1921_11813" x1="115.648" y1="216.78" x2="104.852" y2="216.78" gradientUnits="userSpaceOnUse">
<stop stop-color="#E3E8F0"/>
<stop offset="1" stop-color="#CCD3DE"/>
</linearGradient>
<linearGradient id="paint25_linear_1921_11813" x1="215.651" y1="206.47" x2="209.386" y2="206.47" gradientUnits="userSpaceOnUse">
<stop stop-color="#E3E8F0"/>
<stop offset="1" stop-color="#CCD3DE"/>
</linearGradient>
<linearGradient id="paint26_linear_1921_11813" x1="217.887" y1="216.78" x2="207.09" y2="216.78" gradientUnits="userSpaceOnUse">
<stop stop-color="#E3E8F0"/>
<stop offset="1" stop-color="#CCD3DE"/>
</linearGradient>
<clipPath id="clip0_1921_11813">
<rect width="344" height="241" fill="white" transform="translate(-0.000976562 0.399902)"/>
</clipPath>
</defs>
</svg>
