<svg width="27" height="27" viewBox="0 0 27 27" fill="none" xmlns="http://www.w3.org/2000/svg">
<path d="M12.8028 2.87921C11.3865 2.87921 10.2423 4.02336 10.2423 5.4397C10.2423 6.85603 11.3865 8.00018 12.8028 8.00018C14.2191 8.00018 15.3633 6.85603 15.3633 5.4397C15.3633 4.02336 14.2191 2.87921 12.8028 2.87921Z" fill="#828282"/>
<path d="M12.8028 10.5607C11.3865 10.5607 10.2423 11.7048 10.2423 13.1212C10.2423 14.5375 11.3865 15.6816 12.8028 15.6816C14.2191 15.6816 15.3633 14.5375 15.3633 13.1212C15.3633 11.7048 14.2191 10.5607 12.8028 10.5607Z" fill="#828282"/>
<path d="M12.8028 18.2421C11.3865 18.2421 10.2423 19.3863 10.2423 20.8026C10.2423 22.2189 11.3865 23.3631 12.8028 23.3631C14.2191 23.3631 15.3633 22.2189 15.3633 20.8026C15.3633 19.3863 14.2191 18.2421 12.8028 18.2421Z" fill="#828282"/>
</svg>
