<svg width="360" height="360" viewBox="0 0 360 360" fill="none" xmlns="http://www.w3.org/2000/svg">
<path d="M25.4336 82.3149H77.371L86.5016 116.391M119.67 240.175H272.136L305.304 116.391H86.5016M119.67 240.175L86.5016 116.391M119.67 240.175H94.2505V277.08H272.136M256.282 299.74L280.628 324.085L256.282 348.431L231.937 324.085L256.282 299.74ZM132.931 299.74L157.277 324.085L132.931 348.431L108.586 324.085L132.931 299.74Z" stroke="#0066CC" stroke-width="17" stroke-linecap="round" stroke-linejoin="round"/>
<path d="M125.853 116.079L158.783 96.4512M177.964 116.079L243.984 76.9837M158.783 96.4512L142.707 23.9888L166.913 18.2003L181.712 83.295M158.783 96.4512L181.712 83.295M181.712 83.295L219.076 61.8569M237.428 116.079L243.984 76.9837M243.984 76.9837L272.159 60.2987L258.477 39.2495L248.002 45.2598M248.002 45.2598L252.162 18.2003L224.799 15.5691L219.076 61.8569M248.002 45.2598L219.076 61.8569" stroke="#0066CC" stroke-width="17" stroke-linecap="round" stroke-linejoin="round"/>
<path d="M212.243 98.8955L210.052 113.919" stroke="#0066CC" stroke-width="17" stroke-linecap="round" stroke-linejoin="round"/>
<path d="M267.506 112.281C268.687 110.508 291.389 75.8392 302.592 58.7266L322.906 70.5454L295.206 115.235M112.015 112.281L104.628 85.6882L125.311 79.7788L133.436 108.587" stroke="#0066CC" stroke-width="17" stroke-linecap="round" stroke-linejoin="round"/>
</svg>
