<svg width="26" height="26" viewBox="0 0 26 26" fill="none" xmlns="http://www.w3.org/2000/svg">
<path d="M23.6481 16.1439C23.3042 16.1439 23.0255 16.4226 23.0255 16.7665V22.2948C23.0243 23.326 22.1888 24.1617 21.1576 24.1627H3.68724C2.65601 24.1617 1.82057 23.326 1.81936 22.2948V6.06969C1.82057 5.0387 2.65601 4.20302 3.68724 4.2018H9.21551C9.55942 4.2018 9.83814 3.92308 9.83814 3.57917C9.83814 3.23551 9.55942 2.95654 9.21551 2.95654H3.68724C1.96869 2.95849 0.576042 4.35114 0.574097 6.06969V22.295C0.576042 24.0136 1.96869 25.4062 3.68724 25.4082H21.1576C22.8762 25.4062 24.2688 24.0136 24.2707 22.295V16.7665C24.2707 16.4226 23.992 16.1439 23.6481 16.1439Z" fill="#46A294"/>
<path d="M24.0242 1.3546C22.93 0.26038 21.156 0.26038 20.0618 1.3546L8.95368 12.4627C8.87756 12.5388 8.82259 12.6332 8.79389 12.7368L7.33315 18.0104C7.27307 18.2266 7.33412 18.4582 7.49269 18.617C7.65151 18.7756 7.88305 18.8366 8.09927 18.7768L13.3729 17.3158C13.4765 17.2871 13.5709 17.2321 13.647 17.156L24.7549 6.04767C25.8474 4.95272 25.8474 3.18017 24.7549 2.08522L24.0242 1.3546ZM10.3103 12.8674L19.4015 3.77605L22.3334 6.708L13.242 15.7994L10.3103 12.8674ZM9.72467 14.0426L12.0671 16.3853L8.82697 17.283L9.72467 14.0426ZM23.8744 5.16724L23.2141 5.82756L20.2819 2.89537L20.9425 2.23504C21.5503 1.62725 22.5358 1.62725 23.1436 2.23504L23.8744 2.96566C24.4812 3.57418 24.4812 4.55896 23.8744 5.16724Z" fill="#46A294"/>
</svg>
