<svg width="24" height="22" viewBox="0 0 24 22" fill="none" xmlns="http://www.w3.org/2000/svg">
<path d="M23.4274 16.5911L15.0524 2.08488C13.6844 -0.311497 10.2252 -0.311497 8.86213 2.08488L0.482192 16.5911C-0.885761 18.9875 0.8168 21.9645 3.57731 21.9645H20.3027C23.0633 21.9645 24.7953 18.9579 23.4274 16.5911ZM11.9523 18.7464C11.2241 18.7464 10.6188 18.1411 10.6188 17.4128C10.6188 16.6846 11.2241 16.0793 11.9523 16.0793C12.6806 16.0793 13.2858 16.6846 13.2563 17.4473C13.2908 18.1411 12.6511 18.7464 11.9523 18.7464ZM13.1677 10.1253C13.1087 11.1586 13.0447 12.1871 12.9857 13.2204C12.9562 13.555 12.9562 13.8601 12.9562 14.1898C12.9266 14.736 12.4985 15.1592 11.9523 15.1592C11.4061 15.1592 10.983 14.7655 10.9485 14.2193C10.8599 12.6102 10.7664 11.0307 10.6779 9.42164C10.6483 8.99846 10.6188 8.57036 10.5844 8.14718C10.5844 7.44844 10.978 6.87272 11.6177 6.69065C12.2574 6.53811 12.8922 6.84319 13.1677 7.44844C13.2612 7.66003 13.2908 7.87162 13.2908 8.11765C13.2612 8.79179 13.1973 9.461 13.1677 10.1253Z" fill="#972563"/>
</svg>