<svg width="15" height="13" viewBox="0 0 15 13" fill="none" xmlns="http://www.w3.org/2000/svg">
<path d="M14.1411 9.57932L9.30254 1.19852C8.51222 -0.185964 6.51368 -0.185964 5.7262 1.19852L0.884782 9.57932C0.0944629 10.9638 1.0781 12.6837 2.67295 12.6837H12.3359C13.9307 12.6837 14.9314 10.9467 14.1411 9.57932ZM7.51153 10.8245C7.09078 10.8245 6.74111 10.4748 6.74111 10.0541C6.74111 9.63333 7.09078 9.28366 7.51153 9.28366C7.93227 9.28366 8.28195 9.63333 8.26489 10.074C8.28479 10.4748 7.91521 10.8245 7.51153 10.8245ZM8.21372 5.84378C8.1796 6.44078 8.14264 7.03494 8.10853 7.63194C8.09147 7.82526 8.09147 8.00152 8.09147 8.19199C8.07442 8.50755 7.82709 8.75204 7.51153 8.75204C7.19597 8.75204 6.95148 8.52461 6.93158 8.20905C6.88041 7.27943 6.82639 6.36687 6.77522 5.43725C6.75816 5.19276 6.74111 4.94543 6.72121 4.70094C6.72121 4.29725 6.94864 3.96464 7.31821 3.85945C7.68778 3.77132 8.05452 3.94758 8.21372 4.29725C8.26773 4.4195 8.28479 4.54174 8.28479 4.68388C8.26773 5.07336 8.23077 5.45999 8.21372 5.84378Z" fill="white"/>
</svg>
