<svg width="109" height="110" viewBox="0 0 109 110" fill="none" xmlns="http://www.w3.org/2000/svg">
<path d="M80.2391 54.7551H14.4727V26.391C14.4727 24.5839 15.9375 23.1191 17.7445 23.1191H76.9671C78.7741 23.1191 80.2389 24.5839 80.2389 26.391V54.7551H80.2391Z" fill="#494A47"/>
<path d="M22.7523 23.1191H17.7445C15.9375 23.1191 14.4727 24.5839 14.4727 26.391V54.7551H19.4804V26.391C19.4802 24.5839 20.9453 23.1191 22.7523 23.1191Z" fill="#333331"/>
<path d="M19.6826 1.37158H75.0294V35.674H19.6826V1.37158Z" fill="white"/>
<path d="M19.6826 1.37158H24.6904V35.674H19.6826V1.37158Z" fill="#CDCDC6"/>
<path d="M101.088 85.5098H7.82762C4.09793 85.5098 1.07422 82.4863 1.07422 78.7564V45.8569C1.07422 42.1272 4.09772 39.1035 7.82762 39.1035H101.088C104.818 39.1035 107.841 42.127 107.841 45.8569V78.7566C107.841 82.4863 104.818 85.5098 101.088 85.5098Z" fill="#CDCDC6"/>
<path d="M6.08201 78.7566V45.8569C6.08201 42.1272 9.10551 39.1035 12.8354 39.1035H7.82762C4.09793 39.1035 1.07422 42.127 1.07422 45.8569V78.7566C1.07422 82.4863 4.09772 85.5098 7.82762 85.5098H12.8354C9.10572 85.5098 6.08201 82.4863 6.08201 78.7566Z" fill="#989898"/>
<path d="M14.4727 54.7549H80.2391V85.5093H14.4727V54.7549Z" fill="#494A47"/>
<path d="M14.4727 54.7549H19.4804V85.5093H14.4727V54.7549Z" fill="#333331"/>
<path d="M19.6826 62.4009H75.0294V108.139H19.6826V62.4009Z" fill="white"/>
<path d="M19.6826 62.3066H24.6904V108.139H19.6826V62.3066Z" fill="#CDCDC6"/>
<path d="M80.2393 55.562H104.875V60.7574H80.2393V55.562Z" fill="#494A47"/>
<path d="M80.2393 60.7573H88.451V79.2653H80.2393V60.7573Z" fill="#F8D250"/>
<path d="M88.4512 60.7573H96.6629V79.2653H88.4512V60.7573Z" fill="#972563"/>
<path d="M96.6631 60.7573H104.875V79.2653H96.6631V60.7573Z" fill="#46A294"/>
<path d="M80.2391 62.4009H14.4727V39.6769C14.4727 35.8439 17.5799 32.7368 21.4128 32.7368H73.299C77.1321 32.7368 80.2391 35.8441 80.2391 39.6769V62.4009Z" fill="#494A47"/>
<path d="M26.4205 32.7368H21.4128C17.5797 32.7368 14.4727 35.8441 14.4727 39.6769V62.4009H19.4804V39.6769C19.4802 35.8441 22.5875 32.7368 26.4205 32.7368Z" fill="#333331"/>
<path d="M73.2778 42.2269C74.8453 42.2269 76.1161 40.9561 76.1161 39.3886C76.1161 37.821 74.8453 36.5503 73.2778 36.5503C71.7102 36.5503 70.4395 37.821 70.4395 39.3886C70.4395 40.9561 71.7102 42.2269 73.2778 42.2269Z" fill="#972563"/>
<path d="M25.2881 84.9961H50.9724V103.043H25.2881V84.9961Z" fill="#46A294"/>
<path d="M53.2557 52.8693H41.4558C39.7925 52.8693 38.4443 51.521 38.4443 49.8579V45.6323H56.2671V49.8579C56.2671 51.521 54.9188 52.8693 53.2557 52.8693Z" fill="#333331"/>
<path d="M43.1297 91.9489C43.3296 91.1533 43.1188 90.2757 42.4966 89.6533C41.8744 89.0311 40.9968 88.8201 40.201 89.0201C39.7797 88.3161 39.0101 87.8447 38.1301 87.8447C37.2501 87.8447 36.4803 88.3161 36.0592 89.0201C35.2637 88.8203 34.386 89.0311 33.7636 89.6533C33.1412 90.2755 32.9305 91.1531 33.1305 91.9489C32.4264 92.3702 31.9551 93.1398 31.9551 94.0198C31.9551 94.8998 32.4264 95.6696 33.1305 96.0906C32.9307 96.8862 33.1414 97.7639 33.7636 98.3863C34.3858 99.0087 35.2635 99.2194 36.0592 99.0194C36.4805 99.7234 37.2501 100.195 38.1301 100.195C39.0101 100.195 39.7799 99.7234 40.201 99.0194C40.9966 99.2192 41.8742 99.0084 42.4966 98.3863C43.1188 97.7641 43.3298 96.8864 43.1297 96.0906C43.8338 95.6693 44.3052 94.8998 44.3052 94.0198C44.3052 93.1398 43.8338 92.3702 43.1297 91.9489Z" fill="#972563"/>
<path d="M38.1303 96.3426C39.4131 96.3426 40.453 95.3027 40.453 94.0199C40.453 92.7372 39.4131 91.6973 38.1303 91.6973C36.8475 91.6973 35.8076 92.7372 35.8076 94.0199C35.8076 95.3027 36.8475 96.3426 38.1303 96.3426Z" fill="#F8D250"/>
<path d="M7.82762 86.5838H18.6083V108.139C18.6083 108.732 19.0893 109.213 19.6825 109.213H75.0295C75.6228 109.213 76.1037 108.732 76.1037 108.139V86.5838H101.088C105.404 86.5838 108.916 83.0724 108.916 78.7561V45.8569C108.916 41.5409 105.404 38.0293 101.088 38.0293H81.3132V26.3912C81.3132 23.9946 79.3635 22.0451 76.9671 22.0451H76.1035V1.37158C76.1035 0.778398 75.6226 0.297363 75.0292 0.297363H19.6823C19.0891 0.297363 18.608 0.778398 18.608 1.37158V22.0449H17.7444C15.3478 22.0449 13.3983 23.9946 13.3983 26.391V38.0291H7.82762C3.51162 38.0291 0 41.5405 0 45.8567V78.7561C0 83.0724 3.51141 86.5838 7.82762 86.5838ZM81.3132 40.1777H101.088C104.219 40.1777 106.767 42.7253 106.767 45.8569V47.9635H81.3132V40.1777ZM81.3132 56.6365H87.3767V59.6834H81.3132V56.6365ZM81.3132 61.8316H87.3767V78.1911H81.3132V61.8316ZM81.3132 80.3396H104.874C105.468 80.3396 105.949 79.8585 105.949 79.2653V55.5623C105.949 54.9691 105.468 54.488 104.874 54.488H81.3132V50.1117H106.767V78.7564C106.767 81.8879 104.22 84.4355 101.088 84.4355H81.3132V80.3396ZM95.5883 61.8316V78.1911H89.525V61.8316H95.5883ZM89.5252 59.6832V56.6363H95.5885V59.6832H89.5252ZM103.8 61.8316V78.1911H97.7367V61.8316H103.8ZM97.7367 59.6832V56.6363H103.8V59.6832H97.7367ZM73.955 107.064H20.7565V63.4752H73.955V107.064ZM79.1648 84.4353H76.1035V63.4752H79.1648V84.4353ZM76.1035 24.1934H76.9671C78.1791 24.1934 79.1648 25.1793 79.1648 26.391V34.224C78.3245 33.3208 77.2795 32.6109 76.1035 32.1701V24.1934ZM20.7565 2.4458H73.955V31.6918C73.7382 31.6742 73.52 31.6628 73.2987 31.6628H21.4126C21.1915 31.6628 20.9733 31.6742 20.7565 31.6918V2.4458ZM15.5467 26.3912C15.5467 25.1793 16.5327 24.1936 17.7444 24.1936H18.608V32.1703C17.432 32.6112 16.387 33.321 15.5465 34.2242L15.5467 26.3912ZM15.5467 39.6769C15.5467 36.4425 18.1781 33.8111 21.4126 33.8111H73.2987C76.5334 33.8111 79.1648 36.4425 79.1648 39.6769V44.558H15.5467V39.6769ZM55.1929 46.7064V49.8575C55.1929 50.9257 54.3239 51.795 53.2557 51.795H41.4558C40.3876 51.795 39.5186 50.9259 39.5186 49.8575V46.7064H55.1929ZM15.5467 46.7064H37.3701V49.8575C37.3701 52.1104 39.203 53.9434 41.4558 53.9434H53.2557C55.5085 53.9434 57.3414 52.1106 57.3414 49.8575V46.7064H79.1648V61.3083H15.5467V46.7064ZM15.5467 63.4752H18.6083V84.4353H15.5467V63.4752ZM2.14844 45.8569C2.14844 42.7253 4.69605 40.1777 7.82762 40.1777H13.3983V47.9632H2.14844V45.8569ZM2.14844 50.1117H13.3983V84.4353H7.82762C4.69605 84.4353 2.14844 81.8877 2.14844 78.7561V50.1117Z" fill="black"/>
<path d="M73.2778 35.4761C71.1203 35.4761 69.3652 37.2311 69.3652 39.3886C69.3652 41.5461 71.1203 43.3011 73.2778 43.3011C75.4352 43.3011 77.1903 41.5461 77.1903 39.3886C77.1903 37.2311 75.4352 35.4761 73.2778 35.4761ZM73.2778 41.1527C72.3052 41.1527 71.5137 40.3612 71.5137 39.3886C71.5137 38.416 72.3052 37.6245 73.2778 37.6245C74.2504 37.6245 75.0418 38.416 75.0418 39.3886C75.0418 40.3612 74.2504 41.1527 73.2778 41.1527Z" fill="black"/>
<path d="M25.2881 104.117H50.9724C51.5656 104.117 52.0467 103.636 52.0467 103.043V84.9961C52.0467 84.4029 51.5656 83.9219 50.9724 83.9219H25.2881C24.6949 83.9219 24.2139 84.4029 24.2139 84.9961V103.043C24.2139 103.636 24.6949 104.117 25.2881 104.117ZM26.3623 86.0703H49.8982V101.969H26.3623V86.0703Z" fill="black"/>
<path d="M69.4233 101.969H55.4209C54.8275 101.969 54.3467 102.45 54.3467 103.043C54.3467 103.636 54.8275 104.117 55.4209 104.117H69.4233C70.0167 104.117 70.4976 103.636 70.4976 103.043C70.4976 102.45 70.0167 101.969 69.4233 101.969Z" fill="black"/>
<path d="M69.4233 97.457H55.4209C54.8275 97.457 54.3467 97.9381 54.3467 98.5312C54.3467 99.1244 54.8275 99.6055 55.4209 99.6055H69.4233C70.0167 99.6055 70.4976 99.1244 70.4976 98.5312C70.4976 97.9381 70.0167 97.457 69.4233 97.457Z" fill="black"/>
<path d="M69.4233 92.9453H55.4209C54.8275 92.9453 54.3467 93.4263 54.3467 94.0195C54.3467 94.6127 54.8275 95.0938 55.4209 95.0938H69.4233C70.0167 95.0938 70.4976 94.6127 70.4976 94.0195C70.4976 93.4263 70.0167 92.9453 69.4233 92.9453Z" fill="black"/>
<path d="M69.4233 88.4336H55.4209C54.8275 88.4336 54.3467 88.9146 54.3467 89.5078C54.3467 90.101 54.8275 90.582 55.4209 90.582H69.4233C70.0167 90.582 70.4976 90.101 70.4976 89.5078C70.4976 88.9146 70.0167 88.4336 69.4233 88.4336Z" fill="black"/>
<path d="M69.4233 83.9219H55.4209C54.8275 83.9219 54.3467 84.4029 54.3467 84.9961C54.3467 85.5893 54.8275 86.0703 55.4209 86.0703H69.4233C70.0167 86.0703 70.4976 85.5893 70.4976 84.9961C70.4976 84.4029 70.0167 83.9219 69.4233 83.9219Z" fill="black"/>
<path d="M25.2881 81.5586H69.4237C70.0171 81.5586 70.4979 81.0776 70.4979 80.4844C70.4979 79.8912 70.0171 79.4102 69.4237 79.4102H25.2881C24.6949 79.4102 24.2139 79.8912 24.2139 80.4844C24.2139 81.0776 24.6949 81.5586 25.2881 81.5586Z" fill="black"/>
<path d="M25.2881 77.0469H69.4237C70.0171 77.0469 70.4979 76.5658 70.4979 75.9727C70.4979 75.3795 70.0171 74.8984 69.4237 74.8984H25.2881C24.6949 74.8984 24.2139 75.3795 24.2139 75.9727C24.2139 76.5658 24.6949 77.0469 25.2881 77.0469Z" fill="black"/>
<path d="M25.2881 72.5352H69.4237C70.0171 72.5352 70.4979 72.0541 70.4979 71.4609C70.4979 70.8678 70.0171 70.3867 69.4237 70.3867H25.2881C24.6949 70.3867 24.2139 70.8678 24.2139 71.4609C24.2139 72.0541 24.6949 72.5352 25.2881 72.5352Z" fill="black"/>
<path d="M25.2881 68.0234H69.4237C70.0171 68.0234 70.4979 67.5424 70.4979 66.9492C70.4979 66.356 70.0171 65.875 69.4237 65.875H25.2881C24.6949 65.875 24.2139 66.356 24.2139 66.9492C24.2139 67.5424 24.6949 68.0234 25.2881 68.0234Z" fill="black"/>
<path d="M43.2563 88.8938C42.5712 88.2087 41.6254 87.846 40.6752 87.8759C40.0222 87.1815 39.0991 86.7705 38.1301 86.7705C37.1612 86.7705 36.238 87.1815 35.5853 87.8759C34.6329 87.8456 33.6893 88.2085 33.0042 88.8938C32.319 89.5787 31.9568 90.5223 31.9862 91.4749C31.2919 92.1276 30.8809 93.0508 30.8809 94.0198C30.8809 94.9887 31.2919 95.9119 31.9862 96.5648C31.9568 97.5174 32.319 98.4608 33.0042 99.1459C33.6893 99.8311 34.635 100.193 35.5853 100.164C36.2382 100.858 37.1612 101.269 38.1301 101.269C39.0991 101.269 40.0222 100.858 40.6752 100.164C41.6291 100.19 42.5712 99.8311 43.2563 99.1459C43.9414 98.4608 44.3037 97.5174 44.2742 96.5648C44.9686 95.9119 45.3796 94.9889 45.3796 94.0198C45.3796 93.0506 44.9686 92.1276 44.2742 91.4749C44.3037 90.5221 43.9414 89.5789 43.2563 88.8938ZM42.5785 95.169C42.172 95.4122 41.9728 95.8932 42.0882 96.3525C42.2044 96.8145 42.0731 97.2908 41.7371 97.6266C41.4015 97.9624 40.9252 98.0936 40.4631 97.9776C40.0027 97.8618 39.5227 98.0612 39.2795 98.4679C39.0348 98.8767 38.6054 99.1208 38.1303 99.1208C37.6555 99.1208 37.2258 98.8767 36.9811 98.4679C36.7841 98.1383 36.4307 97.9452 36.0595 97.9452C35.9727 97.9452 35.8848 97.9557 35.7976 97.9776C35.3359 98.0936 34.8593 97.9626 34.5235 97.6266C34.1877 97.2908 34.0565 96.8145 34.1725 96.3523C34.2879 95.8928 34.0887 95.4122 33.6824 95.169C33.2736 94.9243 33.0295 94.4946 33.0295 94.0196C33.0295 93.5445 33.2736 93.1151 33.6822 92.8704C34.0887 92.6271 34.2879 92.1463 34.1725 91.687C34.0562 91.2249 34.1875 90.7486 34.5235 90.4128C34.8593 90.077 35.3356 89.9459 35.7978 90.0617C36.2569 90.1766 36.7377 89.9779 36.9811 89.5714C37.2258 89.1626 37.6553 88.9185 38.1303 88.9185C38.6054 88.9185 39.0348 89.1626 39.2797 89.5714C39.523 89.9779 40.0033 90.1769 40.4631 90.0615C40.9246 89.9455 41.4013 90.0765 41.7373 90.4125C42.0731 90.7483 42.2042 91.2246 42.0882 91.6866C41.9726 92.1461 42.172 92.6269 42.5785 92.8701C42.9871 93.1146 43.2312 93.5443 43.2312 94.0193C43.2312 94.4944 42.9871 94.9245 42.5785 95.169Z" fill="black"/>
<path d="M38.1303 90.623C36.2573 90.623 34.7334 92.1469 34.7334 94.0199C34.7334 95.893 36.2573 97.4168 38.1303 97.4168C40.0033 97.4168 41.5272 95.893 41.5272 94.0199C41.5272 92.1469 40.0035 90.623 38.1303 90.623ZM38.1303 95.2682C37.4419 95.2682 36.8818 94.7081 36.8818 94.0197C36.8818 93.3314 37.4417 92.7713 38.1303 92.7713C38.8189 92.7713 39.3788 93.3312 39.3788 94.0197C39.3788 94.7083 38.8189 95.2682 38.1303 95.2682Z" fill="black"/>
</svg>
