<svg width="41" height="41" viewBox="0 0 41 41" fill="none" xmlns="http://www.w3.org/2000/svg">
<path d="M20.971 28.826C20.6514 28.826 20.3318 28.8168 20.0105 28.7995C14.3896 28.485 9.21418 25.477 6.1652 20.7527C5.81963 20.2173 5.97367 19.5031 6.50904 19.1575C7.04557 18.812 7.75863 18.9666 8.1042 19.5014C10.7534 23.6078 15.2527 26.2224 20.1391 26.4953C25.3983 26.7912 30.5466 24.2782 33.5627 19.941C33.6631 19.7968 33.7612 19.6502 33.8569 19.5014C34.2019 18.966 34.9156 18.812 35.4521 19.157C35.9875 19.5025 36.1415 20.2162 35.7965 20.7521C35.6869 20.9223 35.5738 21.0908 35.4579 21.2575C32.1718 25.9836 26.6888 28.826 20.971 28.826Z" fill="white"/>
<path d="M34.8278 21.2805C34.4488 21.2805 34.0778 21.0942 33.8568 20.752C31.2077 16.6456 26.7083 14.031 21.8219 13.7581C16.5553 13.4576 11.4138 15.9752 8.39833 20.3124C8.29795 20.4567 8.19987 20.6032 8.10411 20.752C7.75911 21.2874 7.0449 21.4415 6.50895 21.0965C5.97357 20.7509 5.81954 20.0372 6.16453 19.5013C6.27414 19.3311 6.38722 19.1627 6.50318 18.9959C9.9733 14.0056 15.8895 11.1228 21.9506 11.454C27.5714 11.7684 32.7469 14.7764 35.7958 19.5007C36.1414 20.0361 35.9874 20.7503 35.452 21.0959C35.2587 21.2211 35.0418 21.2805 34.8278 21.2805Z" fill="white"/>
<path d="M20.9808 24.7421C18.436 24.7421 16.3655 22.6715 16.3655 20.1268C16.3655 17.582 18.436 15.5115 20.9808 15.5115C23.5255 15.5115 25.5961 17.582 25.5961 20.1268C25.5961 22.6715 23.5255 24.7421 20.9808 24.7421ZM20.9808 17.8191C19.73 17.8191 18.6731 18.876 18.6731 20.1268C18.6731 21.3775 19.73 22.4344 20.9808 22.4344C22.2315 22.4344 23.2884 21.3775 23.2884 20.1268C23.2884 18.876 22.2315 17.8191 20.9808 17.8191Z" fill="white"/>
</svg>
