<svg width="36" height="36" viewBox="0 0 36 36" fill="none" xmlns="http://www.w3.org/2000/svg">
<g clip-path="url(#clip0_678_58877)">
<path fill-rule="evenodd" clip-rule="evenodd" d="M35.1484 18.4C35.1484 8.67806 27.3134 0.796875 17.6484 0.796875C7.98345 0.796875 0.148438 8.67806 0.148438 18.4C0.148438 27.1863 6.54793 34.4687 14.9141 35.7893V23.4884H10.4707V18.4H14.9141V14.5218C14.9141 10.11 17.5267 7.6731 21.5241 7.6731C23.4387 7.6731 25.4414 8.01691 25.4414 8.01691V12.3489H23.2347C21.0608 12.3489 20.3828 13.7059 20.3828 15.0979V18.4H25.2363L24.4604 23.4884H20.3828V35.7893C28.7489 34.4687 35.1484 27.1863 35.1484 18.4Z" fill="#1877F2"/>
</g>
<defs>
<clipPath id="clip0_678_58877">
<rect width="35" height="35" fill="white" transform="translate(0.148438 0.796875)"/>
</clipPath>
</defs>
</svg>
