<svg width="34" height="34" viewBox="0 0 34 34" fill="none" xmlns="http://www.w3.org/2000/svg">
<path fill-rule="evenodd" clip-rule="evenodd" d="M33.5263 17.4276C33.5263 16.2399 33.4197 15.0978 33.2217 14.0015H17.4463V20.4807H26.4608C26.0725 22.5744 24.8924 24.3484 23.1184 25.5361V29.7388H28.5317C31.699 26.8228 33.5263 22.5287 33.5263 17.4276Z" fill="#4285F4"/>
<path fill-rule="evenodd" clip-rule="evenodd" d="M17.4479 33.797C21.9704 33.797 25.762 32.2971 28.5333 29.7389L23.12 25.5362C21.6201 26.5412 19.7015 27.135 17.4479 27.135C13.0853 27.135 9.39266 24.1886 8.07551 20.2295H2.47949V24.5693C5.23562 30.0435 10.9002 33.797 17.4479 33.797Z" fill="#34A853"/>
<path fill-rule="evenodd" clip-rule="evenodd" d="M8.07584 20.2292C7.74085 19.2242 7.5505 18.1507 7.5505 17.0467C7.5505 15.9427 7.74085 14.8692 8.07584 13.8642V9.52441H2.47983C1.3454 11.7857 0.698242 14.3438 0.698242 17.0467C0.698242 19.7495 1.3454 22.3077 2.47983 24.5689L8.07584 20.2292Z" fill="#FBBC05"/>
<path fill-rule="evenodd" clip-rule="evenodd" d="M17.4479 6.9588C19.9071 6.9588 22.115 7.80391 23.8509 9.46368L28.6551 4.65948C25.7543 1.95665 21.9628 0.296875 17.4479 0.296875C10.9002 0.296875 5.23562 4.05039 2.47949 9.52459L8.07551 13.8644C9.39266 9.90527 13.0853 6.9588 17.4479 6.9588Z" fill="#EA4335"/>
</svg>
