<svg width="34" height="27" viewBox="0 0 34 27" fill="none" xmlns="http://www.w3.org/2000/svg">
<path d="M29.0198 0.171875H4.27703C3.20728 0.173033 2.18167 0.598503 1.42524 1.35493C0.668816 2.11136 0.243346 3.13697 0.242188 4.20672V22.387C0.243346 23.4568 0.668816 24.4824 1.42524 25.2388C2.18167 25.9952 3.20728 26.4207 4.27703 26.4219H29.0198C30.0896 26.4207 31.1152 25.9952 31.8716 25.2388C32.6281 24.4824 33.0535 23.4568 33.0547 22.387V4.20672C33.0535 3.13697 32.6281 2.11136 31.8716 1.35493C31.1152 0.598503 30.0896 0.173033 29.0198 0.171875ZM4.27703 2.35938H29.0198C29.5096 2.35995 29.9792 2.55477 30.3255 2.90109C30.6718 3.24741 30.8666 3.71695 30.8672 4.20672V5.04344L16.6484 14.1839L2.42969 5.04344V4.20672C2.43027 3.71695 2.62508 3.24741 2.9714 2.90109C3.31772 2.55477 3.78726 2.35995 4.27703 2.35938ZM29.0198 24.2344H4.27703C3.78726 24.2338 3.31772 24.039 2.9714 23.6927C2.62508 23.3463 2.43027 22.8768 2.42969 22.387V7.64437L16.0567 16.4042C16.2332 16.5177 16.4386 16.5781 16.6484 16.5781C16.8583 16.5781 17.0637 16.5177 17.2402 16.4042L30.8672 7.64437V22.387C30.8666 22.8768 30.6718 23.3463 30.3255 23.6927C29.9792 24.039 29.5096 24.2338 29.0198 24.2344Z" fill="#262626"/>
</svg>
