<svg width="493" height="270" viewBox="0 0 493 270" fill="none" xmlns="http://www.w3.org/2000/svg">
<g clip-path="url(#clip0_692_66162)">
<path d="M126.103 203.981C178.805 203.981 221.529 161.246 221.529 108.529C221.529 55.8128 178.805 13.0776 126.103 13.0776C73.4013 13.0776 30.6777 55.8128 30.6777 108.529C30.6777 161.246 73.4013 203.981 126.103 203.981Z" fill="#EFF3FA"/>
<path d="M474.841 213.278H21.8789L92.3948 118.57L122.634 78.4063L149.03 107.042L154.111 112.496L210.871 33.9036L235.161 0.30957L254.122 27.9534L318.69 122.041L344.715 92.2902L357.975 77.0428L369.253 90.5547L474.841 213.278Z" fill="#D9E0EC"/>
<path d="M122.634 78.4062L121.394 213.278H21.8789L92.3948 118.57L122.634 78.4062Z" fill="#E8EDF8"/>
<path d="M235.161 0.30957L231.072 199.146L154.111 112.496L235.161 0.30957Z" fill="#E8EDF8"/>
<path d="M360.33 193.816L318.689 122.041L357.975 77.0425L360.33 193.816Z" fill="#E8EDF8"/>
<path d="M2.79297 213.278H121.393H474.84H489.34" stroke="#CDD6E1" stroke-width="3" stroke-miterlimit="10" stroke-linecap="round" stroke-linejoin="round"/>
<path d="M258.584 233.36H290.062" stroke="#CDD6E1" stroke-width="3" stroke-miterlimit="10" stroke-linecap="round" stroke-linejoin="round"/>
<path d="M345.334 233.36H376.812" stroke="#CDD6E1" stroke-width="3" stroke-miterlimit="10" stroke-linecap="round" stroke-linejoin="round"/>
<path d="M326.125 233.36H332.817" stroke="#CDD6E1" stroke-width="3" stroke-miterlimit="10" stroke-linecap="round" stroke-linejoin="round"/>
<path d="M117.057 233.36H229.832" stroke="#CDD6E1" stroke-width="3" stroke-miterlimit="10" stroke-linecap="round" stroke-linejoin="round"/>
<path d="M69.4688 233.36H83.7206" stroke="#CDD6E1" stroke-width="3" stroke-miterlimit="10" stroke-linecap="round" stroke-linejoin="round"/>
<path d="M431.713 233.36H471.37" stroke="#CDD6E1" stroke-width="3" stroke-miterlimit="10" stroke-linecap="round" stroke-linejoin="round"/>
<path d="M9.36133 233.36H47.9034" stroke="#CDD6E1" stroke-width="3" stroke-miterlimit="10" stroke-linecap="round" stroke-linejoin="round"/>
<path d="M40.0957 250.095H164.644" stroke="#CDD6E1" stroke-width="3" stroke-miterlimit="10" stroke-linecap="round" stroke-linejoin="round"/>
<path d="M238.26 250.095H326.126" stroke="#CDD6E1" stroke-width="3" stroke-miterlimit="10" stroke-linecap="round" stroke-linejoin="round"/>
<path d="M371.359 250.095H459.225" stroke="#CDD6E1" stroke-width="3" stroke-miterlimit="10" stroke-linecap="round" stroke-linejoin="round"/>
<path d="M201.576 250.095H220.785" stroke="#CDD6E1" stroke-width="3" stroke-miterlimit="10" stroke-linecap="round" stroke-linejoin="round"/>
<path d="M298.984 266.706H405.316" stroke="#CDD6E1" stroke-width="3" stroke-miterlimit="10" stroke-linecap="round" stroke-linejoin="round"/>
<path d="M188.439 266.706H258.584" stroke="#CDD6E1" stroke-width="3" stroke-miterlimit="10" stroke-linecap="round" stroke-linejoin="round"/>
<path d="M143.824 266.706H164.644" stroke="#CDD6E1" stroke-width="3" stroke-miterlimit="10" stroke-linecap="round" stroke-linejoin="round"/>
<path d="M66.1211 266.706H112.099" stroke="#CDD6E1" stroke-width="3" stroke-miterlimit="10" stroke-linecap="round" stroke-linejoin="round"/>
<path d="M168.239 181.171C168.239 188.981 161.918 192.452 154.234 192.452C146.551 192.452 140.23 188.981 140.23 181.171C140.23 173.362 154.234 125.14 154.234 125.14C154.234 125.14 168.239 173.486 168.239 181.171Z" fill="white"/>
<path d="M154.111 167.536V211.79" stroke="url(#paint0_linear_692_66162)" stroke-width="2" stroke-miterlimit="10" stroke-linecap="round" stroke-linejoin="round"/>
<path d="M154.111 175.221L159.192 170.635" stroke="url(#paint1_linear_692_66162)" stroke-width="2" stroke-miterlimit="10" stroke-linecap="round" stroke-linejoin="round"/>
<path d="M154.111 185.758L146.799 177.081" stroke="url(#paint2_linear_692_66162)" stroke-width="2" stroke-miterlimit="10" stroke-linecap="round" stroke-linejoin="round"/>
<path d="M294.152 177.7C294.152 186.378 287.088 190.221 278.537 190.221C269.862 190.221 262.922 186.378 262.922 177.7C262.922 169.023 278.537 115.347 278.537 115.347C278.537 115.347 294.152 169.147 294.152 177.7Z" fill="white"/>
<path d="M278.537 162.453V211.79" stroke="url(#paint3_linear_692_66162)" stroke-width="2" stroke-miterlimit="10" stroke-linecap="round" stroke-linejoin="round"/>
<path d="M278.537 171.13L284.114 165.924" stroke="url(#paint4_linear_692_66162)" stroke-width="2" stroke-miterlimit="10" stroke-linecap="round" stroke-linejoin="round"/>
<path d="M278.537 182.907L270.357 173.114" stroke="url(#paint5_linear_692_66162)" stroke-width="2" stroke-miterlimit="10" stroke-linecap="round" stroke-linejoin="round"/>
<path d="M344.962 190.965C344.962 196.295 340.625 198.651 335.42 198.651C330.091 198.651 325.877 196.295 325.877 190.965C325.877 185.634 335.42 152.784 335.42 152.784C335.42 152.784 344.962 185.634 344.962 190.965Z" fill="white"/>
<path d="M335.297 181.667V211.791" stroke="url(#paint6_linear_692_66162)" stroke-width="2" stroke-miterlimit="10" stroke-linecap="round" stroke-linejoin="round"/>
<path d="M335.297 186.874L338.767 183.775" stroke="url(#paint7_linear_692_66162)" stroke-width="2" stroke-miterlimit="10" stroke-linecap="round" stroke-linejoin="round"/>
<path d="M335.297 194.064L330.34 188.113" stroke="url(#paint8_linear_692_66162)" stroke-width="2" stroke-miterlimit="10" stroke-linecap="round" stroke-linejoin="round"/>
<path d="M396.145 185.014C396.145 191.832 390.693 194.807 383.876 194.807C377.06 194.807 371.607 191.832 371.607 185.014C371.607 178.196 383.876 135.925 383.876 135.925C383.876 135.925 396.145 178.196 396.145 185.014Z" fill="white"/>
<path d="M383.877 172.99V211.79" stroke="url(#paint9_linear_692_66162)" stroke-width="2" stroke-miterlimit="10" stroke-linecap="round" stroke-linejoin="round"/>
<path d="M383.877 179.684L388.214 175.717" stroke="url(#paint10_linear_692_66162)" stroke-width="2" stroke-miterlimit="10" stroke-linecap="round" stroke-linejoin="round"/>
<path d="M383.876 188.981L377.432 181.295" stroke="url(#paint11_linear_692_66162)" stroke-width="2" stroke-miterlimit="10" stroke-linecap="round" stroke-linejoin="round"/>
<path opacity="0.8" d="M155.227 113.24L133.912 115.099L123.998 125.264L112.1 123.157L92.3957 135.429L86.1992 127.371L123.006 78.4062L155.227 113.24Z" fill="white"/>
<path opacity="0.6" d="M263.788 41.9612L253.75 39.7299L243.464 44.5644L235.161 42.457L227.229 56.5888L214.836 50.7626L200.956 56.5888L198.602 51.1345L235.161 0.30957L263.788 41.9612Z" fill="white"/>
<path opacity="0.6" d="M375.82 97.7443L365.41 105.926L355.744 100.595L342.111 108.529L338.27 100.224L358.47 77.0425L375.82 97.7443Z" fill="white"/>
<path d="M113.214 41.7134C115.197 41.2175 117.056 41.0935 119.039 41.0935C120.898 41.0935 122.881 41.2175 124.74 41.4654C126.598 41.7134 128.581 42.2092 130.44 43.0769C132.299 43.9447 134.158 45.1843 135.274 47.2917L133.167 46.7958L135.397 45.0604C136.265 44.5645 137.009 43.9447 137.752 43.4488C139.363 42.4571 141.098 41.5894 142.957 40.9696C144.816 40.3498 146.675 39.8539 148.534 39.606C150.517 39.482 152.376 39.482 154.359 39.9779C154.73 40.1018 154.854 40.4737 154.73 40.7216C154.607 41.0935 154.359 41.2175 153.987 41.0935H153.863C152.252 40.7216 150.393 40.8456 148.658 41.0935C146.923 41.3415 145.188 41.9613 143.577 42.7051C141.966 43.4488 140.479 44.3166 138.991 45.3083C138.248 45.8041 137.504 46.424 136.885 46.9198L134.902 48.6553C134.282 49.1511 133.539 49.0272 133.043 48.5313L132.919 48.6553L132.795 48.4074C132.299 47.0438 130.936 45.9281 129.449 45.1843C127.962 44.4405 126.227 43.8207 124.368 43.4488C122.633 43.0769 120.774 42.829 118.915 42.7051C117.056 42.5811 115.197 42.5811 113.586 42.953H113.462C113.091 43.0769 112.843 42.829 112.719 42.4571C112.719 42.0852 112.843 41.7134 113.214 41.7134Z" fill="url(#paint12_linear_692_66162)"/>
<path d="M58.191 75.6792C60.1739 75.1833 62.0328 75.0594 64.0157 75.0594C65.8747 75.0594 67.8575 75.1833 69.7165 75.4312C71.5754 75.6792 73.5583 76.175 75.4172 77.0428C77.2762 77.9105 79.1351 79.1501 80.2505 81.2575L78.1437 80.7617L80.3744 79.0262C81.2419 78.5303 81.9855 77.9105 82.7291 77.4147C84.3401 76.4229 86.0752 75.5552 87.9341 74.9354C89.793 74.3156 91.652 73.8197 93.5109 73.5718C95.4938 73.4478 97.3527 73.4478 99.3356 73.9437C99.7074 74.0676 99.8313 74.4395 99.7074 74.6875C99.5835 75.0594 99.3356 75.1833 98.9638 75.0594H98.8399C97.2288 74.6875 95.3699 74.8114 93.6349 75.0594C91.8998 75.3073 90.1648 75.9271 88.5538 76.6709C86.9427 77.4147 85.4555 78.2824 83.9684 79.2741C83.2248 79.77 82.4812 80.3898 81.8616 80.8856L79.8787 82.6211C79.259 83.117 78.5155 82.993 78.0197 82.4971L77.8958 82.3732L77.7719 82.1253C77.2762 80.7617 75.9129 79.646 74.4258 78.9022C72.9386 78.1584 71.2036 77.5386 69.3447 77.1667C67.6097 76.7948 65.7507 76.5469 63.8918 76.4229C62.0328 76.299 60.1739 76.299 58.5628 76.6709H58.4389C58.0671 76.7948 57.8192 76.5469 57.6953 76.175C57.6953 76.0511 57.9432 75.6792 58.191 75.6792Z" fill="url(#paint13_linear_692_66162)"/>
<path d="M126.599 70.8447C128.582 70.3488 130.441 70.2249 132.424 70.2249C134.283 70.2249 136.266 70.3488 138.125 70.5968C139.984 70.8447 141.966 71.3406 143.825 72.2083C145.684 73.076 147.543 74.3157 148.659 76.423L146.552 75.9272L148.783 74.1917C149.65 73.6959 150.394 73.076 151.137 72.5802C152.748 71.5885 154.483 70.7207 156.342 70.1009C158.201 69.4811 160.06 68.9853 161.919 68.7373C163.902 68.6134 165.761 68.6134 167.744 69.1092C168.116 69.2332 168.24 69.6051 168.116 69.853C167.992 70.2249 167.744 70.3488 167.372 70.2249H167.248C165.637 69.853 163.778 69.977 162.043 70.2249C160.308 70.4728 158.573 71.0926 156.962 71.8364C155.351 72.5802 153.864 73.4479 152.377 74.4396C151.633 74.9355 150.889 75.5553 150.27 76.0512L148.287 77.7866C147.667 78.2825 146.924 78.1585 146.428 77.6627L146.304 77.5387L146.18 77.2908C145.684 75.9272 144.321 74.8115 142.834 74.0677C141.347 73.324 139.612 72.7041 137.753 72.3323C136.018 71.9604 134.159 71.7124 132.3 71.5885C130.441 71.4645 128.582 71.4645 126.971 71.8364H126.847C126.475 71.9604 126.227 71.7124 126.104 71.3406C126.104 71.2166 126.227 70.8447 126.599 70.8447Z" fill="url(#paint14_linear_692_66162)"/>
<g filter="url(#filter0_d_692_66162)">
<path d="M325.878 72.5398C325.878 79.6739 320.111 85.4431 312.916 85.4431C312.793 85.4431 311.738 85.4431 303.986 85.4431C298.59 85.4431 289.97 85.4431 276.202 85.4431H269.628C261.007 85.6292 254.123 78.7433 254.123 70.4306C254.123 62.0559 261.069 55.108 269.814 55.5422C277.319 32.093 311.676 35.3809 314.591 59.6365C321.041 60.443 325.878 65.9021 325.878 72.5398Z" fill="url(#paint15_linear_692_66162)"/>
</g>
<path d="M312.915 85.4434C320.047 85.4434 325.877 79.6741 325.877 72.54C325.877 65.406 320.047 59.6367 312.915 59.6367C305.783 59.6367 299.953 65.406 299.953 72.54C299.953 79.6741 305.783 85.4434 312.915 85.4434Z" fill="url(#paint16_linear_692_66162)"/>
<path d="M291.768 85.5671C304.482 85.5671 314.839 75.2694 314.839 62.5521C314.839 49.835 304.482 39.5371 291.768 39.5371C279.055 39.5371 268.697 49.835 268.697 62.5521C268.697 75.2694 278.993 85.5671 291.768 85.5671Z" fill="url(#paint17_linear_692_66162)"/>
<g filter="url(#filter1_d_692_66162)">
<path d="M213.28 95.239C213.28 100.616 208.932 104.965 203.509 104.965C203.416 104.965 202.621 104.965 196.777 104.965C192.711 104.965 186.212 104.965 175.835 104.965H170.88C164.382 105.106 159.193 99.915 159.193 93.6492C159.193 87.3365 164.428 82.0994 171.02 82.4267C176.676 64.7513 202.575 67.2296 204.772 85.5129C209.634 86.1208 213.28 90.2356 213.28 95.239Z" fill="url(#paint18_linear_692_66162)"/>
</g>
<path d="M203.51 104.965C208.886 104.965 213.28 100.616 213.28 95.2388C213.28 89.8613 208.886 85.5127 203.51 85.5127C198.134 85.5127 193.74 89.8613 193.74 95.2388C193.74 100.616 198.134 104.965 203.51 104.965Z" fill="url(#paint19_linear_692_66162)"/>
<path d="M187.568 105.058C197.151 105.058 204.959 97.2963 204.959 87.7103C204.959 78.1245 197.151 70.3623 187.568 70.3623C177.984 70.3623 170.178 78.1245 170.178 87.7103C170.178 97.2963 177.938 105.058 187.568 105.058Z" fill="url(#paint20_linear_692_66162)"/>
</g>
<defs>
<filter id="filter0_d_692_66162" x="232.123" y="28.5933" width="115.756" height="89.8535" filterUnits="userSpaceOnUse" color-interpolation-filters="sRGB">
<feFlood flood-opacity="0" result="BackgroundImageFix"/>
<feColorMatrix in="SourceAlpha" type="matrix" values="0 0 0 0 0 0 0 0 0 0 0 0 0 0 0 0 0 0 127 0" result="hardAlpha"/>
<feOffset dy="11"/>
<feGaussianBlur stdDeviation="11"/>
<feColorMatrix type="matrix" values="0 0 0 0 0.397708 0 0 0 0 0.47749 0 0 0 0 0.575 0 0 0 0.27 0"/>
<feBlend mode="normal" in2="BackgroundImageFix" result="effect1_dropShadow_692_66162"/>
<feBlend mode="normal" in="SourceGraphic" in2="effect1_dropShadow_692_66162" result="shape"/>
</filter>
<filter id="filter1_d_692_66162" x="137.193" y="59.4048" width="98.0859" height="78.563" filterUnits="userSpaceOnUse" color-interpolation-filters="sRGB">
<feFlood flood-opacity="0" result="BackgroundImageFix"/>
<feColorMatrix in="SourceAlpha" type="matrix" values="0 0 0 0 0 0 0 0 0 0 0 0 0 0 0 0 0 0 127 0" result="hardAlpha"/>
<feOffset dy="11"/>
<feGaussianBlur stdDeviation="11"/>
<feColorMatrix type="matrix" values="0 0 0 0 0.397708 0 0 0 0 0.47749 0 0 0 0 0.575 0 0 0 0.27 0"/>
<feBlend mode="normal" in2="BackgroundImageFix" result="effect1_dropShadow_692_66162"/>
<feBlend mode="normal" in="SourceGraphic" in2="effect1_dropShadow_692_66162" result="shape"/>
</filter>
<linearGradient id="paint0_linear_692_66162" x1="154.611" y1="169.073" x2="161.941" y2="210.612" gradientUnits="userSpaceOnUse">
<stop stop-color="#48A194"/>
<stop offset="1" stop-color="#7DA0A7"/>
</linearGradient>
<linearGradient id="paint1_linear_692_66162" x1="156.652" y1="170.794" x2="156.668" y2="175.233" gradientUnits="userSpaceOnUse">
<stop stop-color="#48A194"/>
<stop offset="1" stop-color="#7DA0A7"/>
</linearGradient>
<linearGradient id="paint2_linear_692_66162" x1="150.455" y1="177.382" x2="150.495" y2="185.78" gradientUnits="userSpaceOnUse">
<stop stop-color="#48A194"/>
<stop offset="1" stop-color="#7DA0A7"/>
</linearGradient>
<linearGradient id="paint3_linear_692_66162" x1="279.037" y1="164.167" x2="288.081" y2="210.14" gradientUnits="userSpaceOnUse">
<stop stop-color="#48A194"/>
<stop offset="1" stop-color="#7DA0A7"/>
</linearGradient>
<linearGradient id="paint4_linear_692_66162" x1="281.326" y1="166.105" x2="281.345" y2="171.144" gradientUnits="userSpaceOnUse">
<stop stop-color="#48A194"/>
<stop offset="1" stop-color="#7DA0A7"/>
</linearGradient>
<linearGradient id="paint5_linear_692_66162" x1="274.448" y1="173.454" x2="274.493" y2="182.932" gradientUnits="userSpaceOnUse">
<stop stop-color="#48A194"/>
<stop offset="1" stop-color="#7DA0A7"/>
</linearGradient>
<linearGradient id="paint6_linear_692_66162" x1="335.797" y1="182.714" x2="339.249" y2="211.454" gradientUnits="userSpaceOnUse">
<stop stop-color="#48A194"/>
<stop offset="1" stop-color="#7DA0A7"/>
</linearGradient>
<linearGradient id="paint7_linear_692_66162" x1="337.032" y1="183.883" x2="337.043" y2="186.882" gradientUnits="userSpaceOnUse">
<stop stop-color="#48A194"/>
<stop offset="1" stop-color="#7DA0A7"/>
</linearGradient>
<linearGradient id="paint8_linear_692_66162" x1="332.819" y1="188.32" x2="332.846" y2="194.079" gradientUnits="userSpaceOnUse">
<stop stop-color="#48A194"/>
<stop offset="1" stop-color="#7DA0A7"/>
</linearGradient>
<linearGradient id="paint9_linear_692_66162" x1="384.377" y1="174.338" x2="390.051" y2="211.013" gradientUnits="userSpaceOnUse">
<stop stop-color="#48A194"/>
<stop offset="1" stop-color="#7DA0A7"/>
</linearGradient>
<linearGradient id="paint10_linear_692_66162" x1="386.046" y1="175.855" x2="386.06" y2="179.694" gradientUnits="userSpaceOnUse">
<stop stop-color="#48A194"/>
<stop offset="1" stop-color="#7DA0A7"/>
</linearGradient>
<linearGradient id="paint11_linear_692_66162" x1="380.654" y1="181.562" x2="380.69" y2="189.001" gradientUnits="userSpaceOnUse">
<stop stop-color="#48A194"/>
<stop offset="1" stop-color="#7DA0A7"/>
</linearGradient>
<linearGradient id="paint12_linear_692_66162" x1="133.751" y1="39.8648" x2="133.759" y2="48.9955" gradientUnits="userSpaceOnUse">
<stop stop-color="#48A194"/>
<stop offset="1" stop-color="#7DA0A7"/>
</linearGradient>
<linearGradient id="paint13_linear_692_66162" x1="78.7277" y1="73.8306" x2="78.7358" y2="82.9613" gradientUnits="userSpaceOnUse">
<stop stop-color="#48A194"/>
<stop offset="1" stop-color="#7DA0A7"/>
</linearGradient>
<linearGradient id="paint14_linear_692_66162" x1="147.136" y1="68.9962" x2="147.144" y2="78.1268" gradientUnits="userSpaceOnUse">
<stop stop-color="#48A194"/>
<stop offset="1" stop-color="#7DA0A7"/>
</linearGradient>
<linearGradient id="paint15_linear_692_66162" x1="290.001" y1="58.5416" x2="289.977" y2="85.9411" gradientUnits="userSpaceOnUse">
<stop stop-color="white"/>
<stop offset="0.9964" stop-color="#ECF0F5"/>
</linearGradient>
<linearGradient id="paint16_linear_692_66162" x1="298.574" y1="56.8587" x2="310.068" y2="69.4262" gradientUnits="userSpaceOnUse">
<stop stop-color="#BCCBE1"/>
<stop offset="0.9942" stop-color="white" stop-opacity="0"/>
</linearGradient>
<linearGradient id="paint17_linear_692_66162" x1="266.537" y1="51.9912" x2="284.648" y2="59.0768" gradientUnits="userSpaceOnUse">
<stop stop-color="#E2E8F0"/>
<stop offset="0.9942" stop-color="white" stop-opacity="0"/>
</linearGradient>
<linearGradient id="paint18_linear_692_66162" x1="186.236" y1="84.6877" x2="186.219" y2="105.341" gradientUnits="userSpaceOnUse">
<stop stop-color="white"/>
<stop offset="0.9964" stop-color="#ECF0F5"/>
</linearGradient>
<linearGradient id="paint19_linear_692_66162" x1="192.7" y1="83.4186" x2="201.363" y2="92.8916" gradientUnits="userSpaceOnUse">
<stop stop-color="#BCCBE1"/>
<stop offset="0.9942" stop-color="white" stop-opacity="0"/>
</linearGradient>
<linearGradient id="paint20_linear_692_66162" x1="168.549" y1="79.7498" x2="182.201" y2="85.0907" gradientUnits="userSpaceOnUse">
<stop stop-color="#E2E8F0"/>
<stop offset="0.9942" stop-color="white" stop-opacity="0"/>
</linearGradient>
<clipPath id="clip0_692_66162">
<rect width="492" height="269" fill="white" transform="translate(0.28125 0.216309)"/>
</clipPath>
</defs>
</svg>
