<?xml version="1.0" encoding="UTF-8"?><svg xmlns="http://www.w3.org/2000/svg" viewBox="0 0 191.25 199.47"><defs><style>.c{fill:#fff;}.d{fill:#989898;}.e{fill:#494a47;}.f{fill:none;stroke:#000;stroke-miterlimit:10;stroke-width:3px;}.g{fill:#46a294;}.h{fill:#972563;}.i{fill:#f8d250;}.j{fill:#cdcdc6;}.k{fill:#333331;}</style></defs><g id="a"><g><path class="i" d="M188.66,75.5c1.32,1.15,1.46,3.15,.31,4.47-11.22,12.85-22.45,25.71-33.67,38.56-.09-.02-.19-.02-.29-.02h-22.16l2-10.42,3.96,.76c1.15,.22,2.27-.53,2.49-1.69l7.43-38.55,.39-2.03c.23-1.19-.03-2.43-.71-3.44-.68-1-1.74-1.7-2.93-1.93-1.2-.23-2.43,.03-3.44,.71s-1.7,1.73-1.93,2.93l-1.4,7.25c-.22,1.16-1.34,1.91-2.49,1.69l-2.52-.49c-1.15-.22-1.91-1.33-1.69-2.49l1.23-6.36c.22-1.17-.02-2.37-.69-3.35-.66-.98-1.69-1.66-2.85-1.88-1.17-.23-2.37,.02-3.35,.68-.98,.67-1.66,1.7-1.88,2.86l-2.13,11.07c-.23,1.15-1.34,1.91-2.5,1.68l-2.44-.47c-1.15-.22-2.27,.54-2.49,1.69l-7.94,41.21c-.04,.19-.06,.38-.07,.57h-5.83l2.56-13.28c.38-2.01-.93-3.95-2.94-4.34s-3.95,.93-4.34,2.94l-2.83,14.68h-14.83c-2.81-2.45-5.62-4.9-8.42-7.35-1.32-1.15-1.45-3.15-.3-4.47l4.74-5.43,11.76-13.47c4.31-4.93,8.62-9.87,12.93-14.81l4.14-4.74,8.43-9.66c1.61-1.83,3.21-3.67,4.82-5.51h0c3.17-3.64,6.35-7.27,9.52-10.91,2.79-3.2,5.58-6.39,8.37-9.59,1.15-1.31,3.15-1.45,4.47-.3,16.51,14.41,33.01,28.82,49.51,43.23Zm-24.72-10.92c.4-2.07-.96-4.07-3.03-4.46-2.06-.4-4.06,.95-4.46,3.02l-3.09,16.06c-.4,2.07,.95,4.07,3.02,4.47,2.07,.39,4.07-.96,4.46-3.03l3.1-16.06Z"/><path class="k" d="M155.3,118.53c1.13,.07,2.18,.59,2.92,1.46l12.27,14.33c1.07,1.25,1.32,3.02,.63,4.51-.69,1.5-2.19,2.46-3.84,2.46h-35.13c-1.23,0-2.4-.54-3.21-1.48l-18.23-21.3h44.3c.1,0,.2,0,.29,.02Z"/><path class="g" d="M160.91,60.12c2.07,.39,3.43,2.39,3.03,4.46l-3.1,16.06c-.39,2.07-2.39,3.42-4.46,3.03-2.07-.4-3.42-2.4-3.02-4.47l3.09-16.06c.4-2.07,2.4-3.42,4.46-3.02Z"/><path class="d" d="M157.72,141.29v46.12c0,2.8-1.11,5.49-3.09,7.47s-4.67,3.09-7.47,3.09h-36.45V118.51l18.23,21.3c.81,.94,1.98,1.48,3.21,1.48h25.57Z"/><path class="h" d="M148.41,63.14c.68,1.01,.94,2.25,.71,3.44l-.39,2.03-7.43,38.55c-.22,1.16-1.34,1.91-2.49,1.69l-3.96-.76-2,10.42h-9.35l.13-.64c.22-1.16-.54-2.27-1.69-2.49l-3.11-.6c-1.15-.23-2.27,.53-2.49,1.68l-.4,2.05h-9.04c.01-.19,.03-.38,.07-.57l7.94-41.21c.22-1.15,1.34-1.91,2.49-1.69l2.44,.47c1.16,.23,2.27-.53,2.5-1.68l2.13-11.07c.22-1.16,.9-2.19,1.88-2.86,.98-.66,2.18-.91,3.35-.68,1.16,.22,2.19,.9,2.85,1.88,.67,.98,.91,2.18,.69,3.35l-1.23,6.36c-.22,1.16,.54,2.27,1.69,2.49l2.52,.49c1.15,.22,2.27-.53,2.49-1.69l1.4-7.25c.23-1.2,.92-2.25,1.93-2.93s2.24-.94,3.44-.71c1.19,.23,2.25,.93,2.93,1.93Z"/><path class="g" d="M125.21,4.23c1.75,.09,3.09,1.59,2.99,3.34l-1.89,34.59c-3.17,3.64-6.35,7.27-9.52,10.9-.34-1.59-1.27-2.97-2.62-3.88-1.34-.91-2.98-1.27-4.57-.99-1.18-1.66-3.09-2.65-5.12-2.65s-3.95,.99-5.13,2.65c-2-.35-4.05,.31-5.49,1.75s-2.09,3.48-1.75,5.49c-1.66,1.18-2.65,3.09-2.65,5.12s.99,3.95,2.65,5.12c-.34,2.01,.31,4.06,1.75,5.5,1.44,1.43,3.49,2.09,5.49,1.74,.02,.03,.04,.05,.05,.07-4.31,4.94-8.62,9.88-12.93,14.81l-17.25-31.83c.93-17.15,1.87-34.31,2.81-51.46,.09-1.75,1.59-3.09,3.34-2.99,16.61,.9,33.22,1.81,49.84,2.72Zm-18.49,20.77c0-2.04-.99-3.95-2.65-5.12,.34-2.01-.31-4.06-1.75-5.5s-3.48-2.09-5.49-1.74c-1.18-1.67-3.09-2.65-5.12-2.65s-3.95,.98-5.12,2.65c-2.01-.35-4.06,.3-5.5,1.74-1.43,1.44-2.09,3.49-1.74,5.5-1.66,1.17-2.65,3.08-2.65,5.12s.99,3.94,2.65,5.12c-.35,2.01,.31,4.05,1.74,5.49,1.44,1.44,3.49,2.09,5.5,1.75,1.17,1.66,3.08,2.65,5.12,2.65s3.94-.99,5.12-2.65c2.01,.34,4.05-.31,5.49-1.75s2.09-3.48,1.75-5.49c1.66-1.18,2.65-3.09,2.65-5.12Z"/><path class="h" d="M116.79,53.06h0c-1.61,1.85-3.21,3.69-4.82,5.52-.73-2.77-2.93-4.92-5.72-5.57-2.8-.66-5.73,.28-7.61,2.44-1.89,2.17-2.43,5.19-1.4,7.87,1.02,2.68,3.45,4.58,6.3,4.92l-4.14,4.74s-.03-.04-.05-.07c-2,.35-4.05-.31-5.49-1.74-1.44-1.44-2.09-3.49-1.75-5.5-1.66-1.17-2.65-3.08-2.65-5.12s.99-3.94,2.65-5.12c-.34-2.01,.31-4.05,1.75-5.49s3.49-2.1,5.49-1.75c1.18-1.66,3.09-2.65,5.13-2.65s3.94,.99,5.12,2.65c1.59-.28,3.23,.08,4.57,.99,1.35,.91,2.28,2.29,2.62,3.88Z"/><path class="i" d="M111.97,58.58l-8.43,9.66c-2.85-.34-5.28-2.24-6.3-4.92-1.03-2.68-.49-5.7,1.4-7.87,1.88-2.16,4.81-3.1,7.61-2.44,2.79,.65,4.99,2.8,5.72,5.57Z"/><path class="j" d="M110.71,118.51v79.46H32.02c-2.8,0-5.49-1.11-7.47-3.09s-3.09-4.67-3.09-7.47v-46.12H89.26c1.24,0,2.41-.54,3.21-1.48l18.24-21.3Zm-55.85,65v-6.42c0-1.17-.94-2.11-2.11-2.11h-16.73c-1.17,0-2.11,.94-2.11,2.11v6.42c0,1.16,.94,2.11,2.11,2.11h16.73c1.17,0,2.11-.95,2.11-2.11Z"/><path class="e" d="M110.71,118.51l-18.24,21.3c-.8,.94-1.97,1.48-3.21,1.48H11.96c-1.65,0-3.15-.96-3.84-2.46-.69-1.49-.44-3.26,.63-4.51l12.27-14.33c.77-.9,1.88-1.44,3.07-1.47,.05,0,.09,0,.14,0H110.71Z"/><path class="h" d="M104.07,19.88c1.66,1.17,2.65,3.08,2.65,5.12s-.99,3.94-2.65,5.12c.34,2.01-.31,4.05-1.75,5.49s-3.48,2.09-5.49,1.75c-1.18,1.66-3.09,2.65-5.12,2.65s-3.95-.99-5.12-2.65c-2.01,.34-4.06-.31-5.5-1.75-1.43-1.44-2.09-3.48-1.74-5.49-1.66-1.18-2.65-3.09-2.65-5.12s.99-3.95,2.65-5.12c-.35-2.01,.31-4.06,1.74-5.5,1.44-1.44,3.49-2.09,5.5-1.74,1.17-1.67,3.08-2.65,5.12-2.65s3.94,.98,5.12,2.65c2.01-.35,4.05,.3,5.49,1.74s2.09,3.49,1.75,5.5Zm-5.97,9.51c1.16-1.7,1.6-3.78,1.23-5.8-.37-2.03-1.53-3.81-3.23-4.98-1.7-1.16-3.78-1.61-5.8-1.23-2.03,.37-3.81,1.53-4.98,3.23-1.16,1.69-1.61,3.78-1.23,5.8,.37,2.02,1.53,3.81,3.23,4.98,1.69,1.16,3.78,1.6,5.8,1.23,2.02-.38,3.81-1.53,4.98-3.23Z"/><path class="g" d="M100.69,100.89c2.01,.39,3.32,2.33,2.94,4.34l-2.56,13.28h-7.55l2.83-14.68c.39-2.01,2.33-3.33,4.34-2.94Z"/><path class="i" d="M99.33,23.59c.37,2.02-.07,4.1-1.23,5.8-1.17,1.7-2.96,2.85-4.98,3.23-2.02,.37-4.11-.07-5.8-1.23-1.7-1.17-2.86-2.96-3.23-4.98-.38-2.02,.07-4.11,1.23-5.8,1.17-1.7,2.95-2.86,4.98-3.23,2.02-.38,4.1,.07,5.8,1.23,1.7,1.17,2.86,2.95,3.23,4.98Z"/><path class="c" d="M69.22,55.96l17.25,31.83-11.76,13.47-31.82,17.25H24.23c-.05,0-.09,0-.14,0h0c-7.45-13.74-14.89-27.47-22.34-41.2-.14-.26-.22-.55-.24-.84,4.16-2.26,8.32-4.52,12.48-6.77,1.67-.91,2.29-3,1.39-4.68-2.26-4.16-4.52-8.32-6.77-12.48,.17-.23,.4-.43,.66-.57,8.66-4.7,17.32-9.39,25.98-14.09,4.32-2.34,8.65-4.69,12.98-7.04,1.05-.56,2.09-1.13,3.13-1.7,.07-.03,.71-.38,.78-.42,.26-.13,.54-.21,.83-.23,.62-.03,1.23,.21,1.65,.67,.09,.11,.18,.22,.25,.34,.05,.09,.16,.29,.21,.38,.14,.27,.29,.54,.43,.8,.3,.55,.6,1.1,.89,1.65,.63,1.16,1.27,2.32,1.9,3.48,3.64,6.71,7.28,13.43,10.92,20.14Z"/><path class="c" d="M78.69,118.51H42.89l31.82-17.25-4.74,5.43c-1.15,1.32-1.02,3.32,.3,4.47,2.8,2.45,5.61,4.9,8.42,7.35Z"/><path class="g" d="M54.86,177.09v6.42c0,1.16-.94,2.11-2.11,2.11h-16.73c-1.17,0-2.11-.95-2.11-2.11v-6.42c0-1.17,.94-2.11,2.11-2.11h16.73c1.17,0,2.11,.94,2.11,2.11Z"/><path class="j" d="M15.38,65.03c.9,1.68,.28,3.77-1.39,4.68-4.16,2.25-8.32,4.51-12.48,6.77-.02-.25,.01-.5,.08-.74l6.68-22.53c.07-.24,.19-.46,.34-.66,2.25,4.16,4.51,8.32,6.77,12.48Z"/></g><g><path class="f" d="M92.11,55.43c-.34-2.01,.31-4.05,1.75-5.49,1.44-1.44,3.49-2.09,5.49-1.75"/><path class="f" d="M103.54,68.24c-2.85-.35-5.27-2.24-6.3-4.92s-.49-5.71,1.4-7.87c1.89-2.16,4.82-3.1,7.61-2.45,2.79,.66,5,2.8,5.73,5.58"/><path class="f" d="M109.6,48.19c1.6-.27,3.24,.08,4.58,.99,1.34,.91,2.28,2.3,2.62,3.89"/><path class="f" d="M99.35,72.91l.05,.07"/><path class="f" d="M99.35,72.91l.05,.07"/><path class="f" d="M92.11,55.43c-1.66,1.18-2.65,3.09-2.65,5.12s.99,3.94,2.65,5.12"/><path class="f" d="M92.11,65.67c-.34,2.01,.31,4.05,1.75,5.49,1.44,1.44,3.49,2.09,5.49,1.75"/><path class="f" d="M99.35,48.19c1.18-1.66,3.09-2.65,5.12-2.65s3.94,.99,5.12,2.65"/><path class="f" d="M87.32,31.38c-1.7-1.17-2.86-2.95-3.23-4.98-.37-2.02,.07-4.11,1.23-5.8s2.95-2.86,4.98-3.23c2.02-.37,4.11,.07,5.8,1.23s2.86,2.95,3.23,4.98c.37,2.02-.07,4.11-1.23,5.8-1.17,1.7-2.95,2.86-4.98,3.23-2.02,.37-4.11-.07-5.8-1.23Z"/><path class="f" d="M86.59,37.36c1.18,1.66,3.09,2.65,5.12,2.65s3.94-.99,5.12-2.65"/><path class="f" d="M86.59,37.36c1.18,1.66,3.09,2.65,5.12,2.65s3.94-.99,5.12-2.65"/><path class="f" d="M79.35,19.88c-1.66,1.18-2.65,3.09-2.65,5.12s.99,3.94,2.65,5.12"/><path class="f" d="M79.35,30.12c-.34,2.01,.31,4.05,1.75,5.49s3.49,2.09,5.49,1.75"/><path class="f" d="M79.35,30.12c-.34,2.01,.31,4.05,1.75,5.49s3.49,2.09,5.49,1.75"/><path class="f" d="M79.35,19.88c-.34-2.01,.31-4.05,1.75-5.49s3.49-2.09,5.49-1.75"/><path class="f" d="M86.59,12.63c1.18-1.66,3.09-2.65,5.12-2.65s3.94,.99,5.12,2.65"/><path class="f" d="M86.59,12.63c1.18-1.66,3.09-2.65,5.12-2.65s3.94,.99,5.12,2.65"/><path class="f" d="M96.83,12.63c2.01-.34,4.05,.31,5.49,1.75s2.09,3.49,1.75,5.49"/><path class="f" d="M96.83,12.63c2.01-.34,4.05,.31,5.49,1.75s2.09,3.49,1.75,5.49"/><path class="f" d="M104.07,19.88c1.66,1.18,2.65,3.09,2.65,5.12s-.99,3.94-2.65,5.12"/><path class="f" d="M96.83,37.36c2.01,.34,4.05-.31,5.49-1.75s2.09-3.49,1.75-5.49"/><path class="f" d="M126.31,42.16l1.89-34.6c.1-1.75-1.24-3.24-2.99-3.34-16.61-.91-33.23-1.82-49.84-2.72-1.75-.1-3.24,1.24-3.34,2.99-.94,17.16-1.87,34.31-2.81,51.47"/><line class="f" x1="28.38" y1="58.67" x2="53.15" y2="45.24"/><line class="f" x1="60.24" y1="58.32" x2="14.97" y2="82.87"/><line class="f" x1="67.34" y1="71.4" x2="22.06" y2="95.95"/><path class="f" d="M1.75,77.32c-.26-.48-.32-1.05-.16-1.57"/><line class="f" x1="8.27" y1="53.21" x2="1.59" y2="75.74"/><path class="f" d="M8.27,53.21c.16-.53,.51-.97,1-1.23"/><path class="f" d="M1.34,76.57c4.22-2.29,8.43-4.57,12.65-6.86,1.67-.91,2.3-3,1.39-4.68-2.29-4.22-4.57-8.43-6.86-12.65"/><line class="f" x1="74.43" y1="84.48" x2="29.16" y2="109.03"/><path class="f" d="M103.63,105.23c.39-2.01-.93-3.95-2.94-4.34-2.01-.39-3.95,.93-4.34,2.94"/><path class="f" d="M133.24,64.45c.22-1.16-.02-2.37-.69-3.35-.66-.98-1.69-1.66-2.85-1.88-1.16-.22-2.37,.02-3.35,.69s-1.66,1.69-1.88,2.85"/><path class="f" d="M153.36,79.2c-.4,2.07,.96,4.07,3.02,4.47s4.07-.96,4.47-3.02"/><line class="f" x1="160.84" y1="80.64" x2="163.94" y2="64.58"/><path class="f" d="M163.94,64.58c.4-2.07-.96-4.07-3.02-4.47-2.07-.4-4.07,.96-4.47,3.02"/><line class="f" x1="153.36" y1="79.2" x2="156.45" y2="63.14"/><line class="f" x1="134.85" y1="108.09" x2="138.81" y2="108.85"/><path class="f" d="M138.81,108.85c1.15,.22,2.27-.53,2.49-1.69"/><path class="f" d="M149.11,66.58c.23-1.19-.02-2.43-.71-3.44s-1.74-1.7-2.93-1.93c-1.19-.23-2.43,.02-3.44,.71s-1.7,1.74-1.93,2.93"/><line class="f" x1="141.3" y1="107.16" x2="148.72" y2="68.61"/><line class="f" x1="148.72" y1="68.61" x2="149.11" y2="66.58"/><line class="f" x1="138.71" y1="72.1" x2="140.11" y2="64.85"/><path class="f" d="M138.71,72.1c-.22,1.15-1.34,1.91-2.49,1.69"/><line class="f" x1="133.7" y1="73.3" x2="136.22" y2="73.79"/><line class="f" x1="132.01" y1="70.81" x2="133.24" y2="64.45"/><path class="f" d="M133.7,73.3c-1.15-.22-1.91-1.34-1.69-2.49"/><line class="f" x1="122.34" y1="73.82" x2="124.47" y2="62.76"/><path class="f" d="M122.34,73.82c-.22,1.15-1.34,1.91-2.49,1.69"/><line class="f" x1="119.84" y1="75.51" x2="117.4" y2="75.04"/><line class="f" x1="106.97" y1="117.94" x2="114.91" y2="76.73"/><path class="f" d="M117.4,75.04c-1.15-.22-2.27,.53-2.49,1.69"/><path class="f" d="M116.34,116.46c.22-1.15,1.34-1.91,2.49-1.69"/><line class="f" x1="118.83" y1="114.78" x2="121.94" y2="115.37"/><path class="f" d="M121.94,115.37c1.15,.22,1.91,1.34,1.69,2.49"/><path class="f" d="M1.75,77.32c7.45,13.73,14.89,27.46,22.34,41.19"/><path class="f" d="M86.47,87.79c-9.39-17.32-18.79-34.64-28.18-51.96-.63-1.16-1.26-2.32-1.89-3.49-.3-.55-.59-1.1-.89-1.64-.14-.27-.29-.53-.43-.8-.05-.09-.16-.29-.21-.38-.07-.12-.16-.23-.25-.34-.42-.46-1.03-.71-1.65-.67-.29,.02-.57,.1-.83,.23-.07,.04-.71,.38-.78,.42-1.04,.57-2.09,1.13-3.13,1.7-4.33,2.35-8.66,4.7-12.99,7.04-8.66,4.7-17.32,9.39-25.97,14.09"/><line class="f" x1="74.71" y1="101.26" x2="42.89" y2="118.51"/><line class="f" x1="101.07" y1="118.51" x2="103.63" y2="105.23"/><line class="f" x1="93.52" y1="118.51" x2="96.35" y2="103.83"/><line class="f" x1="132.84" y1="118.51" x2="134.85" y2="108.09"/><line class="f" x1="123.5" y1="118.51" x2="123.63" y2="117.87"/><path class="f" d="M106.97,117.94c-.04,.19-.06,.38-.07,.57"/><line class="f" x1="115.94" y1="118.51" x2="116.34" y2="116.46"/><path class="f" d="M155.07,118.79c11.3-12.94,22.6-25.88,33.89-38.82,1.15-1.32,1.02-3.32-.3-4.47-16.5-14.41-33.01-28.82-49.51-43.23-1.32-1.15-3.32-1.02-4.47,.3-21.57,24.71-43.14,49.41-64.72,74.12-1.15,1.32-1.02,3.32,.3,4.47,2.81,2.45,5.61,4.9,8.42,7.35"/><path class="f" d="M36.02,185.62c-1.17,0-2.11-.95-2.11-2.11"/><line class="f" x1="33.91" y1="177.09" x2="33.91" y2="183.51"/><line class="f" x1="36.02" y1="185.62" x2="52.75" y2="185.62"/><path class="f" d="M54.86,183.51c0,1.17-.95,2.11-2.11,2.11"/><line class="f" x1="54.86" y1="177.09" x2="54.86" y2="183.51"/><path class="f" d="M52.75,174.97c1.17,0,2.11,.95,2.11,2.11"/><line class="f" x1="36.02" y1="174.97" x2="52.75" y2="174.97"/><path class="f" d="M33.91,177.09c0-1.17,.95-2.11,2.11-2.11"/><line class="f" x1="87.52" y1="185.62" x2="99.34" y2="185.62"/><line class="f" x1="87.52" y1="174.97" x2="99.34" y2="174.97"/><line class="f" x1="110.71" y1="118.51" x2="110.71" y2="197.97"/><line class="f" x1="155.01" y1="118.51" x2="110.71" y2="118.51"/><line class="f" x1="132.15" y1="141.29" x2="167.28" y2="141.29"/><path class="f" d="M158.22,119.99c-.8-.94-1.97-1.48-3.21-1.48"/><line class="f" x1="158.22" y1="119.99" x2="170.49" y2="134.32"/><path class="f" d="M170.49,134.32c1.07,1.25,1.32,3.02,.63,4.51s-2.19,2.46-3.84,2.46"/><line class="f" x1="110.71" y1="118.51" x2="128.94" y2="139.81"/><path class="f" d="M132.15,141.29c-1.23,0-2.41-.54-3.21-1.48"/><line class="f" x1="110.71" y1="118.51" x2="92.47" y2="139.81"/><line class="f" x1="24.23" y1="118.51" x2="110.71" y2="118.51"/><path class="f" d="M89.26,141.29c1.23,0,2.41-.54,3.21-1.48"/><line class="f" x1="89.26" y1="141.29" x2="11.96" y2="141.29"/><path class="f" d="M21.02,119.99c.8-.94,1.97-1.48,3.21-1.48"/><line class="f" x1="21.02" y1="119.99" x2="8.75" y2="134.32"/><path class="f" d="M8.75,134.32c-1.07,1.25-1.32,3.02-.63,4.51s2.19,2.46,3.84,2.46"/><path class="f" d="M157.72,187.41c0,2.8-1.11,5.49-3.09,7.47s-4.67,3.09-7.47,3.09"/><line class="f" x1="32.02" y1="197.97" x2="147.16" y2="197.97"/><line class="f" x1="157.72" y1="187.41" x2="157.72" y2="141.29"/><path class="f" d="M21.46,187.41c0,2.8,1.11,5.49,3.09,7.47,1.98,1.98,4.67,3.09,7.47,3.09"/><line class="f" x1="21.46" y1="141.29" x2="21.46" y2="187.41"/></g></g><g id="b"/></svg>