<svg width="28" height="28" viewBox="0 0 28 28" fill="none" xmlns="http://www.w3.org/2000/svg">
<path d="M13.7541 1.57788C16.2213 1.57788 18.6331 2.30949 20.6845 3.6802C22.7359 5.0509 24.3348 6.99914 25.279 9.27854C26.2231 11.5579 26.4701 14.0661 25.9888 16.4859C25.5075 18.9057 24.3194 21.1285 22.5748 22.873C20.8303 24.6176 18.6075 25.8057 16.1877 26.287C13.7679 26.7683 11.2597 26.5213 8.98032 25.5771C6.70092 24.633 4.75268 23.0341 3.38197 20.9827C2.01127 18.9313 1.27965 16.5195 1.27965 14.0523C1.28339 10.745 2.59886 7.57428 4.93746 5.23568C7.27606 2.89709 10.4468 1.58162 13.7541 1.57788ZM19.5755 19.541C19.74 19.541 19.9007 19.4923 20.0375 19.4009C20.1743 19.3095 20.2809 19.1796 20.3438 19.0277C20.4068 18.8757 20.4232 18.7085 20.3911 18.5472C20.359 18.3858 20.2798 18.2377 20.1635 18.1214C20.0472 18.005 19.899 17.9258 19.7377 17.8938C19.5764 17.8617 19.4092 17.8781 19.2572 17.9411C19.1053 18.004 18.9754 18.1106 18.884 18.2474C18.7926 18.3841 18.7439 18.5449 18.7439 18.7094C18.7439 18.93 18.8315 19.1415 18.9874 19.2975C19.1434 19.4534 19.3549 19.541 19.5755 19.541ZM19.5755 14.8839C19.74 14.8839 19.9007 14.8351 20.0375 14.7438C20.1743 14.6524 20.2809 14.5225 20.3438 14.3705C20.4068 14.2186 20.4232 14.0514 20.3911 13.89C20.359 13.7287 20.2798 13.5805 20.1635 13.4642C20.0472 13.3479 19.899 13.2687 19.7377 13.2366C19.5764 13.2046 19.4092 13.221 19.2572 13.284C19.1053 13.3469 18.9754 13.4535 18.884 13.5903C18.7926 13.727 18.7439 13.8878 18.7439 14.0523C18.7439 14.2729 18.8315 14.4844 18.9874 14.6403C19.1434 14.7963 19.3549 14.8839 19.5755 14.8839ZM19.5755 10.2268C19.74 10.2268 19.9007 10.178 20.0375 10.0867C20.1743 9.99527 20.2809 9.86539 20.3438 9.71343C20.4068 9.56147 20.4232 9.39425 20.3911 9.23293C20.359 9.07161 20.2798 8.92343 20.1635 8.80713C20.0472 8.69082 19.899 8.61162 19.7377 8.57953C19.5764 8.54744 19.4092 8.56391 19.2572 8.62685C19.1053 8.6898 18.9754 8.79639 18.884 8.93315C18.7926 9.06991 18.7439 9.2307 18.7439 9.39518C18.7439 9.61574 18.8315 9.82727 18.9874 9.98323C19.1434 10.1392 19.3549 10.2268 19.5755 10.2268ZM7.93268 19.541H16.6648C16.8853 19.541 17.0969 19.4534 17.2528 19.2975C17.4088 19.1415 17.4964 18.93 17.4964 18.7094C17.4964 18.4888 17.4088 18.2773 17.2528 18.1214C17.0969 17.9654 16.8853 17.8778 16.6648 17.8778H7.93268C7.71212 17.8778 7.50059 17.9654 7.34463 18.1214C7.18867 18.2773 7.10105 18.4888 7.10105 18.7094C7.10105 18.93 7.18867 19.1415 7.34463 19.2975C7.50059 19.4534 7.71212 19.541 7.93268 19.541ZM7.93268 14.8839H16.6648C16.8853 14.8839 17.0969 14.7963 17.2528 14.6403C17.4088 14.4844 17.4964 14.2729 17.4964 14.0523C17.4964 13.8317 17.4088 13.6202 17.2528 13.4642C17.0969 13.3083 16.8853 13.2207 16.6648 13.2207H7.93268C7.71212 13.2207 7.50059 13.3083 7.34463 13.4642C7.18867 13.6202 7.10105 13.8317 7.10105 14.0523C7.10105 14.2729 7.18867 14.4844 7.34463 14.6403C7.50059 14.7963 7.71212 14.8839 7.93268 14.8839ZM7.93268 10.2268H16.6648C16.8853 10.2268 17.0969 10.1392 17.2528 9.98323C17.4088 9.82727 17.4964 9.61574 17.4964 9.39518C17.4964 9.17462 17.4088 8.96309 17.2528 8.80713C17.0969 8.65117 16.8853 8.56355 16.6648 8.56355H7.93268C7.71212 8.56355 7.50059 8.65117 7.34463 8.80713C7.18867 8.96309 7.10105 9.17462 7.10105 9.39518C7.10105 9.61574 7.18867 9.82727 7.34463 9.98323C7.50059 10.1392 7.71212 10.2268 7.93268 10.2268Z" fill="#972563"/>
</svg>
