<svg width="28" height="28" viewBox="0 0 28 28" fill="none" xmlns="http://www.w3.org/2000/svg">
<path d="M14.2097 1.95679C11.8173 1.95679 9.47854 2.66623 7.48929 3.9954C5.50005 5.32457 3.94962 7.21377 3.03407 9.4241C2.11852 11.6344 1.87897 14.0666 2.34572 16.4131C2.81246 18.7596 3.96453 20.9149 5.65625 22.6066C7.34796 24.2983 9.50334 25.4504 11.8498 25.9172C14.1963 26.3839 16.6285 26.1444 18.8388 25.2288C21.0491 24.3133 22.9383 22.7628 24.2675 20.7736C25.5967 18.7843 26.3061 16.4456 26.3061 14.0532C26.3025 10.8461 25.0269 7.77148 22.7592 5.50375C20.4914 3.23602 17.4168 1.96042 14.2097 1.95679ZM14.2097 21.311C12.7742 21.311 11.371 20.8854 10.1775 20.0879C8.98391 19.2904 8.05365 18.1568 7.50432 16.8306C6.955 15.5044 6.81127 14.0451 7.09131 12.6373C7.37136 11.2294 8.0626 9.93615 9.07763 8.92112C10.0927 7.90609 11.3859 7.21485 12.7938 6.9348C14.2017 6.65476 15.661 6.79849 16.9872 7.34782C18.3134 7.89715 19.4469 8.8274 20.2444 10.0209C21.0419 11.2145 21.4676 12.6177 21.4676 14.0532C21.4652 15.9774 20.6998 17.8221 19.3392 19.1827C17.9786 20.5433 16.1339 21.3087 14.2097 21.311Z" fill="#972563"/>
<path d="M14.1938 8.4082C13.0774 8.4082 11.9859 8.73928 11.0576 9.35955C10.1293 9.97983 9.40579 10.8615 8.97853 11.8929C8.55127 12.9244 8.43948 14.0595 8.6573 15.1545C8.87511 16.2495 9.41274 17.2553 10.2022 18.0448C10.9917 18.8343 11.9975 19.3719 13.0925 19.5897C14.1876 19.8075 15.3226 19.6957 16.3541 19.2685C17.3856 18.8412 18.2672 18.1177 18.8875 17.1894C19.5077 16.2611 19.8388 15.1697 19.8388 14.0532C19.8371 12.5566 19.2418 11.1217 18.1836 10.0635C17.1253 9.0052 15.6904 8.40991 14.1938 8.4082ZM16.6131 14.8596H14.1938C13.9799 14.8596 13.7748 14.7747 13.6236 14.6234C13.4724 14.4722 13.3874 14.2671 13.3874 14.0532V10.8275C13.3874 10.6136 13.4724 10.4085 13.6236 10.2573C13.7748 10.106 13.9799 10.0211 14.1938 10.0211C14.4077 10.0211 14.6128 10.106 14.7641 10.2573C14.9153 10.4085 15.0003 10.6136 15.0003 10.8275V13.2468H16.6131C16.827 13.2468 17.0321 13.3317 17.1833 13.483C17.3346 13.6342 17.4195 13.8393 17.4195 14.0532C17.4195 14.2671 17.3346 14.4722 17.1833 14.6234C17.0321 14.7747 16.827 14.8596 16.6131 14.8596Z" fill="#972563"/>
</svg>
