<svg width="134" height="146" viewBox="0 0 134 146" fill="none" xmlns="http://www.w3.org/2000/svg">
<g clip-path="url(#clip0_972_54183)">
<path d="M66.729 119.807C98.065 119.807 123.468 94.3865 123.468 63.0278C123.468 31.6694 98.065 6.24829 66.729 6.24829C35.393 6.24829 9.99023 31.6694 9.99023 63.0278C9.99023 94.3865 35.393 119.807 66.729 119.807Z" fill="#EAEEF9"/>
<g filter="url(#filter0_d_972_54183)">
<path d="M109.12 114.868H25.2633C22.6876 114.868 20.541 112.791 20.541 110.142V15.9152C20.541 13.3376 22.616 11.2612 25.2633 11.2612H109.12C111.695 11.2612 113.842 13.3376 113.842 15.9868V110.142C113.842 112.719 111.767 114.868 109.12 114.868Z" fill="url(#paint0_linear_972_54183)"/>
</g>
<path d="M103.894 39.6864H29.912C29.0534 39.6864 28.3379 38.9703 28.3379 38.1112V24.0773C28.3379 23.2181 29.0534 22.5021 29.912 22.5021H103.894C104.753 22.5021 105.468 23.2181 105.468 24.0773V38.0395C105.54 38.9703 104.824 39.6864 103.894 39.6864Z" fill="#EAEEF9"/>
<path d="M36.0664 33.242C37.2518 33.242 38.2128 32.2803 38.2128 31.094C38.2128 29.9076 37.2518 28.946 36.0664 28.946C34.8809 28.946 33.9199 29.9076 33.9199 31.094C33.9199 32.2803 34.8809 33.242 36.0664 33.242Z" fill="#989FB0"/>
<path d="M88.8694 32.5261H45.4388C45.0811 32.5261 44.7949 32.2397 44.7949 31.8817V30.2348C44.7949 29.8768 45.0811 29.5905 45.4388 29.5905H88.8694C89.2271 29.5905 89.5133 29.8768 89.5133 30.2348V31.8817C89.5133 32.2397 89.2271 32.5261 88.8694 32.5261Z" fill="#989FB0"/>
<path d="M103.894 61.7391H29.912C29.0534 61.7391 28.3379 61.0231 28.3379 60.1639V46.2017C28.3379 45.3425 29.0534 44.6265 29.912 44.6265H103.894C104.753 44.6265 105.468 45.3425 105.468 46.2017V60.1639C105.54 61.0231 104.824 61.7391 103.894 61.7391Z" fill="#EAEEF9"/>
<path d="M36.0664 55.2953C37.2518 55.2953 38.2128 54.3336 38.2128 53.1474C38.2128 51.961 37.2518 50.9993 36.0664 50.9993C34.8809 50.9993 33.9199 51.961 33.9199 53.1474C33.9199 54.3336 34.8809 55.2953 36.0664 55.2953Z" fill="#989FB0"/>
<path d="M88.8694 54.6508H45.4388C45.0811 54.6508 44.7949 54.3645 44.7949 54.0065V52.3597C44.7949 52.0017 45.0811 51.7152 45.4388 51.7152H88.8694C89.2271 51.7152 89.5133 52.0017 89.5133 52.3597V54.0065C89.5133 54.3645 89.2271 54.6508 88.8694 54.6508Z" fill="#989FB0"/>
<path d="M103.894 105.917H29.912C29.0534 105.917 28.3379 105.201 28.3379 104.342V90.3798C28.3379 89.5205 29.0534 88.8046 29.912 88.8046H103.894C104.753 88.8046 105.468 89.5205 105.468 90.3798V104.342C105.54 105.201 104.824 105.917 103.894 105.917Z" fill="#EAEEF9"/>
<path d="M36.0664 99.4726C37.2518 99.4726 38.2128 98.5115 38.2128 97.325C38.2128 96.1385 37.2518 95.1774 36.0664 95.1774C34.8809 95.1774 33.9199 96.1385 33.9199 97.325C33.9199 98.5115 34.8809 99.4726 36.0664 99.4726Z" fill="#989FB0"/>
<path d="M88.8694 98.7566H45.4388C45.0811 98.7566 44.7949 98.4705 44.7949 98.1125V96.4655C44.7949 96.1075 45.0811 95.8214 45.4388 95.8214H88.8694C89.2271 95.8214 89.5133 96.1075 89.5133 96.4655V98.1125C89.5133 98.4705 89.2271 98.7566 88.8694 98.7566Z" fill="#989FB0"/>
<path d="M120.421 82.8841H46.4391C46.0828 82.8841 45.7734 82.5755 45.7734 82.2173V68.2552C45.7734 67.8971 46.0828 67.5884 46.4391 67.5884H120.421C120.778 67.5884 121.087 67.8971 121.087 68.2552V82.2173C121.087 82.5755 120.778 82.8841 120.421 82.8841Z" fill="#D6DCE8" stroke="url(#paint1_linear_972_54183)" stroke-width="1.81695" stroke-miterlimit="10"/>
<path d="M52.5958 77.4202C53.7812 77.4202 54.7422 76.4585 54.7422 75.2721C54.7422 74.0858 53.7812 73.1241 52.5958 73.1241C51.4103 73.1241 50.4492 74.0858 50.4492 75.2721C50.4492 76.4585 51.4103 77.4202 52.5958 77.4202Z" fill="url(#paint2_linear_972_54183)"/>
<path d="M105.397 76.7037H61.9663C61.6085 76.7037 61.3223 76.4173 61.3223 76.0592V74.4124C61.3223 74.0544 61.6085 73.7681 61.9663 73.7681H105.397C105.754 73.7681 106.041 74.0544 106.041 74.4124V76.0592C106.041 76.4173 105.754 76.7037 105.397 76.7037Z" fill="url(#paint3_linear_972_54183)"/>
<path d="M133.467 112.522C133.047 114.306 132.417 116.197 131.682 117.77C129.687 121.656 126.538 124.7 122.654 126.695C118.664 128.689 113.94 129.529 109.216 128.479C98.0875 126.17 90.9485 115.252 93.2582 104.123C95.5678 92.9948 106.381 85.751 117.509 88.1656C121.499 89.0055 124.963 91.0001 127.903 93.7296C132.837 98.6639 134.937 105.802 133.467 112.522Z" fill="url(#paint4_linear_972_54183)"/>
<path d="M119.924 106.538H115.199V101.813C115.199 100.868 114.465 100.029 113.415 100.029C112.47 100.029 111.63 100.763 111.63 101.813V106.538H106.906C105.961 106.538 105.121 107.272 105.121 108.322C105.121 109.372 105.856 110.107 106.906 110.107H111.63V114.831C111.63 115.776 112.365 116.616 113.415 116.616C114.36 116.616 115.199 115.881 115.199 114.831V110.107H119.924C120.868 110.107 121.708 109.372 121.708 108.322C121.708 107.272 120.868 106.538 119.924 106.538Z" fill="white"/>
</g>
<defs>
<filter id="filter0_d_972_54183" x="0.554613" y="1.26803" width="133.274" height="143.58" filterUnits="userSpaceOnUse" color-interpolation-filters="sRGB">
<feFlood flood-opacity="0" result="BackgroundImageFix"/>
<feColorMatrix in="SourceAlpha" type="matrix" values="0 0 0 0 0 0 0 0 0 0 0 0 0 0 0 0 0 0 127 0" result="hardAlpha"/>
<feOffset dy="9.9932"/>
<feGaussianBlur stdDeviation="9.9932"/>
<feColorMatrix type="matrix" values="0 0 0 0 0.397708 0 0 0 0 0.47749 0 0 0 0 0.575 0 0 0 0.27 0"/>
<feBlend mode="normal" in2="BackgroundImageFix" result="effect1_dropShadow_972_54183"/>
<feBlend mode="normal" in="SourceGraphic" in2="effect1_dropShadow_972_54183" result="shape"/>
</filter>
<linearGradient id="paint0_linear_972_54183" x1="67.1609" y1="8.86468" x2="67.1609" y2="115.985" gradientUnits="userSpaceOnUse">
<stop stop-color="#FDFEFF"/>
<stop offset="0.9964" stop-color="#ECF0F5"/>
</linearGradient>
<linearGradient id="paint1_linear_972_54183" x1="83.4356" y1="68.1197" x2="83.4476" y2="82.9239" gradientUnits="userSpaceOnUse">
<stop stop-color="#48A194"/>
<stop offset="1" stop-color="#7DA0A7"/>
</linearGradient>
<linearGradient id="paint2_linear_972_54183" x1="52.596" y1="73.2733" x2="52.6126" y2="77.4313" gradientUnits="userSpaceOnUse">
<stop stop-color="#48A194"/>
<stop offset="1" stop-color="#7DA0A7"/>
</linearGradient>
<linearGradient id="paint3_linear_972_54183" x1="83.6847" y1="73.87" x2="83.6855" y2="76.7113" gradientUnits="userSpaceOnUse">
<stop stop-color="#48A194"/>
<stop offset="1" stop-color="#7DA0A7"/>
</linearGradient>
<linearGradient id="paint4_linear_972_54183" x1="113.379" y1="89.1333" x2="113.538" y2="129.041" gradientUnits="userSpaceOnUse">
<stop stop-color="#48A194"/>
<stop offset="1" stop-color="#7DA0A7"/>
</linearGradient>
<clipPath id="clip0_972_54183">
<rect width="133.546" height="144.447" fill="white" transform="translate(0.412109 0.798035)"/>
</clipPath>
</defs>
</svg>
