<svg width="257" height="200" viewBox="0 0 257 200" fill="none" xmlns="http://www.w3.org/2000/svg">
<path d="M130.342 164.599C173.431 164.599 208.365 129.727 208.365 86.5588C208.365 43.3907 173.277 8.51819 130.342 8.51819C87.2519 8.51819 52.3184 43.3907 52.3184 86.5588C52.3184 129.727 87.2519 164.599 130.342 164.599Z" fill="#EAEEF9"/>
<path d="M203.286 35.4024C206.77 35.4024 209.596 32.5823 209.596 29.1038C209.596 25.6252 206.77 22.8053 203.286 22.8053C199.802 22.8053 196.977 25.6252 196.977 29.1038C196.977 32.5823 199.802 35.4024 203.286 35.4024Z" fill="#E7EBF6"/>
<path d="M212.52 10.8227C214.901 10.8227 216.829 8.89693 216.829 6.5213C216.829 4.14567 214.901 2.21985 212.52 2.21985C210.141 2.21985 208.211 4.14567 208.211 6.5213C208.211 8.89693 210.141 10.8227 212.52 10.8227Z" fill="#E7EBF6"/>
<path d="M56.473 35.2488C58.8528 35.2488 60.782 33.323 60.782 30.9473C60.782 28.5717 58.8528 26.6459 56.473 26.6459C54.0933 26.6459 52.1641 28.5717 52.1641 30.9473C52.1641 33.323 54.0933 35.2488 56.473 35.2488Z" fill="#E7EBF6"/>
<path d="M30.1577 118.205C34.5773 118.205 38.1601 114.629 38.1601 110.217C38.1601 105.805 34.5773 102.228 30.1577 102.228C25.738 102.228 22.1553 105.805 22.1553 110.217C22.1553 114.629 25.738 118.205 30.1577 118.205Z" fill="#E7EBF6"/>
<path d="M130.296 121.335L127.569 121.297C127.024 121.29 126.486 120.738 126.528 120.066C126.569 119.394 126.994 118.824 127.539 118.831L130.265 118.868C130.811 118.876 131.348 119.427 131.307 120.099C131.232 120.899 130.841 121.342 130.296 121.335Z" fill="#CED7E2"/>
<g filter="url(#filter0_d_678_53070)">
<path d="M117.954 49.6261L151.013 117.389C152.118 119.736 151.142 122.466 148.79 123.569L82.1003 155.01C79.7485 156.113 77.0138 155.139 75.9089 152.791L34.4688 65.088C33.3638 62.7403 34.3401 60.0106 36.6921 58.9075L84.9575 36.2192L117.954 49.6261Z" fill="url(#paint0_linear_678_53070)"/>
</g>
<path d="M84.957 36.219L93.7966 55.0008C95.0794 57.5843 98.3821 58.7231 100.97 57.4423L117.953 49.6258" fill="#D5DDEA"/>
<g filter="url(#filter1_d_678_53070)">
<path d="M176.514 56.38L177.471 131.746C177.468 134.34 175.418 136.393 172.82 136.39L99.0669 136.44C96.4686 136.437 94.4114 134.391 94.4147 131.797L94.3955 34.8279C94.3989 32.2339 96.4481 30.1803 99.0466 30.1838L152.396 30.2073L176.514 56.38Z" fill="url(#paint1_linear_678_53070)"/>
</g>
<path d="M152.396 30.2073L152.368 50.9585C152.425 53.8414 154.926 56.2774 157.814 56.2208L176.515 56.3799" fill="#D5DDEA"/>
<g filter="url(#filter2_d_678_53070)">
<path d="M222.926 89.8062L192.083 158.686C191.058 161.009 188.188 162.027 185.895 160.875L119.075 130.116C116.747 129.092 115.728 126.228 116.754 123.904L157.451 35.9125C158.476 33.5888 161.346 32.5712 163.639 33.7234L212.159 56.0979L222.926 89.8062Z" fill="url(#paint2_linear_678_53070)"/>
</g>
<path d="M212.032 56.0642L203.335 74.9359C202.08 77.6086 203.415 80.8293 206.093 82.0828L222.926 89.8062" fill="#D5DDEA"/>
<defs>
<filter id="filter0_d_678_53070" x="12.0146" y="25.2192" width="161.453" height="163.244" filterUnits="userSpaceOnUse" color-interpolation-filters="sRGB">
<feFlood flood-opacity="0" result="BackgroundImageFix"/>
<feColorMatrix in="SourceAlpha" type="matrix" values="0 0 0 0 0 0 0 0 0 0 0 0 0 0 0 0 0 0 127 0" result="hardAlpha"/>
<feOffset dy="11"/>
<feGaussianBlur stdDeviation="11"/>
<feColorMatrix type="matrix" values="0 0 0 0 0.397708 0 0 0 0 0.47749 0 0 0 0 0.575 0 0 0 0.27 0"/>
<feBlend mode="normal" in2="BackgroundImageFix" result="effect1_dropShadow_678_53070"/>
<feBlend mode="normal" in="SourceGraphic" in2="effect1_dropShadow_678_53070" result="shape"/>
</filter>
<filter id="filter1_d_678_53070" x="72.3955" y="19.1838" width="127.075" height="150.256" filterUnits="userSpaceOnUse" color-interpolation-filters="sRGB">
<feFlood flood-opacity="0" result="BackgroundImageFix"/>
<feColorMatrix in="SourceAlpha" type="matrix" values="0 0 0 0 0 0 0 0 0 0 0 0 0 0 0 0 0 0 127 0" result="hardAlpha"/>
<feOffset dy="11"/>
<feGaussianBlur stdDeviation="11"/>
<feColorMatrix type="matrix" values="0 0 0 0 0.397708 0 0 0 0 0.47749 0 0 0 0 0.575 0 0 0 0.27 0"/>
<feBlend mode="normal" in2="BackgroundImageFix" result="effect1_dropShadow_678_53070"/>
<feBlend mode="normal" in="SourceGraphic" in2="effect1_dropShadow_678_53070" result="shape"/>
</filter>
<filter id="filter2_d_678_53070" x="94.3555" y="22.2469" width="150.57" height="172.104" filterUnits="userSpaceOnUse" color-interpolation-filters="sRGB">
<feFlood flood-opacity="0" result="BackgroundImageFix"/>
<feColorMatrix in="SourceAlpha" type="matrix" values="0 0 0 0 0 0 0 0 0 0 0 0 0 0 0 0 0 0 127 0" result="hardAlpha"/>
<feOffset dy="11"/>
<feGaussianBlur stdDeviation="11"/>
<feColorMatrix type="matrix" values="0 0 0 0 0.397708 0 0 0 0 0.47749 0 0 0 0 0.575 0 0 0 0.27 0"/>
<feBlend mode="normal" in2="BackgroundImageFix" result="effect1_dropShadow_678_53070"/>
<feBlend mode="normal" in="SourceGraphic" in2="effect1_dropShadow_678_53070" result="shape"/>
</filter>
<linearGradient id="paint0_linear_678_53070" x1="82.1591" y1="33.9935" x2="103.907" y2="152.445" gradientUnits="userSpaceOnUse">
<stop stop-color="#FDFEFF"/>
<stop offset="0.9964" stop-color="#ECF0F5"/>
</linearGradient>
<linearGradient id="paint1_linear_678_53070" x1="150.815" y1="27.0031" x2="120.06" y2="143.448" gradientUnits="userSpaceOnUse">
<stop stop-color="#FDFEFF"/>
<stop offset="0.9964" stop-color="#ECF0F5"/>
</linearGradient>
<linearGradient id="paint2_linear_678_53070" x1="188.212" y1="37.3047" x2="157.204" y2="154.706" gradientUnits="userSpaceOnUse">
<stop stop-color="#FDFEFF"/>
<stop offset="0.9964" stop-color="#ECF0F5"/>
</linearGradient>
</defs>
</svg>
