<svg width="37" height="35" viewBox="0 0 37 35" fill="none" xmlns="http://www.w3.org/2000/svg">
<path d="M8.76437 2.81849C11.5985 1.01177 14.9414 0 18.5023 0C28.2402 0 36.1616 7.80504 36.1616 17.4891C36.1616 27.1731 28.2402 34.9779 18.5023 34.9779C8.76438 34.9779 0.843258 27.1731 0.843258 17.4891C0.697916 11.3462 3.89543 5.99832 8.76437 2.81849Z" fill="#972563"/>
<path d="M19.6143 10.5059L24.5559 15.4202C25.1373 15.9983 25.1373 17.0101 24.5559 17.5882C23.9745 18.1664 22.9571 18.1664 22.3031 17.5882L20.0503 15.4202V23.3697C20.0503 24.237 19.3236 24.9597 18.4515 24.9597C17.5795 24.9597 16.8528 24.237 16.8528 23.3697V15.4202L14.6 17.5882C14.0186 18.1664 13.0012 18.1664 12.3472 17.5882C11.9838 17.2269 11.8385 16.8655 11.8385 16.5042C11.8385 16.1429 11.9838 15.637 12.3472 15.4202L17.2888 10.5059C17.5068 10.2891 18.0155 10 18.3789 10C18.7422 10 19.3963 10.1445 19.6143 10.5059Z" fill="white"/>
</svg>
