<svg width="234" height="178" viewBox="0 0 234 178" fill="none" xmlns="http://www.w3.org/2000/svg">
<path d="M117.236 151.946C156.551 151.946 188.586 120.22 188.586 81.2543C188.453 42.1566 156.551 10.4309 117.236 10.4309C77.7889 10.4309 45.8867 42.1566 45.8867 81.1226C45.8867 120.22 77.7889 151.946 117.236 151.946Z" fill="#EAEEF9"/>
<g filter="url(#filter0_d_1601_42761)">
<path d="M193.351 90.2058C193.351 105.345 181.04 117.587 165.685 117.587C165.42 117.587 163.17 117.587 146.623 117.587C135.107 117.587 116.707 117.587 87.3198 117.587H73.2881C54.8881 117.982 40.1946 103.37 40.1946 85.73C40.1946 67.9583 55.0205 53.2144 73.6852 54.1359C89.7025 4.37522 163.037 11.3522 169.259 62.8243C183.026 64.5356 193.351 76.1201 193.351 90.2058Z" fill="url(#paint0_linear_1601_42761)"/>
</g>
<path d="M165.685 117.587C180.908 117.587 193.351 105.345 193.351 90.2058C193.351 75.0669 180.908 62.8242 165.685 62.8242C150.462 62.8242 138.019 75.0669 138.019 90.2058C138.019 105.345 150.462 117.587 165.685 117.587Z" fill="url(#paint1_linear_1601_42761)"/>
<path d="M120.546 117.851C147.682 117.851 169.788 95.9982 169.788 69.0116C169.788 42.0249 147.682 20.1724 120.546 20.1724C93.409 20.1724 71.3025 42.0249 71.3025 69.0116C71.3025 95.9982 93.2766 117.851 120.546 117.851Z" fill="url(#paint2_linear_1601_42761)"/>
<path d="M99.5024 87.8364C104.665 84.5454 110.754 82.7024 117.241 82.7024C134.979 82.7024 149.408 96.9197 149.408 114.56C149.408 132.2 134.979 146.417 117.241 146.417C99.5024 146.417 85.0736 132.2 85.0736 114.56C84.8089 103.37 90.6333 93.6287 99.5024 87.8364Z" fill="#972563"/>
<path d="M119.421 102.317L128.422 111.269C129.481 112.322 129.481 114.165 128.422 115.218C127.363 116.271 125.51 116.271 124.318 115.218L120.215 111.269V125.749C120.215 127.329 118.891 128.645 117.303 128.645C115.714 128.645 114.39 127.329 114.39 125.749V111.269L110.287 115.218C109.228 116.271 107.375 116.271 106.183 115.218C105.521 114.56 105.257 113.902 105.257 113.243C105.257 112.585 105.521 111.664 106.183 111.269L115.185 102.317C115.582 101.922 116.508 101.396 117.17 101.396C117.832 101.396 119.023 101.659 119.421 102.317Z" fill="white"/>
<path d="M190.306 56.5053C193.305 56.5053 195.734 54.0888 195.734 51.108C195.734 48.1271 193.305 45.7107 190.306 45.7107C187.309 45.7107 184.879 48.1271 184.879 51.108C184.879 54.0888 187.309 56.5053 190.306 56.5053Z" fill="#EAEEF9"/>
<path d="M198.249 35.4428C200.297 35.4428 201.955 33.7925 201.955 31.7568C201.955 29.7211 200.297 28.0708 198.249 28.0708C196.202 28.0708 194.542 29.7211 194.542 31.7568C194.542 33.7925 196.202 35.4428 198.249 35.4428Z" fill="#EAEEF9"/>
<path d="M48.1369 47.5538C50.1839 47.5538 51.8434 45.9036 51.8434 43.8679C51.8434 41.8321 50.1839 40.1819 48.1369 40.1819C46.0899 40.1819 44.4304 41.8321 44.4304 43.8679C44.4304 45.9036 46.0899 47.5538 48.1369 47.5538Z" fill="#EAEEF9"/>
<path d="M39.7975 128.645C43.5992 128.645 46.681 125.581 46.681 121.8C46.681 118.019 43.5992 114.955 39.7975 114.955C35.9959 114.955 32.9141 118.019 32.9141 121.8C32.9141 125.581 35.9959 128.645 39.7975 128.645Z" fill="#EAEEF9"/>
<defs>
<filter id="filter0_d_1601_42761" x="0.120285" y="0.254112" width="233.305" height="177.453" filterUnits="userSpaceOnUse" color-interpolation-filters="sRGB">
<feFlood flood-opacity="0" result="BackgroundImageFix"/>
<feColorMatrix in="SourceAlpha" type="matrix" values="0 0 0 0 0 0 0 0 0 0 0 0 0 0 0 0 0 0 127 0" result="hardAlpha"/>
<feOffset dy="20.0371"/>
<feGaussianBlur stdDeviation="20.0371"/>
<feColorMatrix type="matrix" values="0 0 0 0 0.397708 0 0 0 0 0.47749 0 0 0 0 0.575 0 0 0 0.27 0"/>
<feBlend mode="normal" in2="BackgroundImageFix" result="effect1_dropShadow_1601_42761"/>
<feBlend mode="normal" in="SourceGraphic" in2="effect1_dropShadow_1601_42761" result="shape"/>
</filter>
<linearGradient id="paint0_linear_1601_42761" x1="116.773" y1="60.5011" x2="116.724" y2="118.644" gradientUnits="userSpaceOnUse">
<stop stop-color="white"/>
<stop offset="0.9964" stop-color="#ECF0F5"/>
</linearGradient>
<linearGradient id="paint1_linear_1601_42761" x1="135.075" y1="56.929" x2="159.453" y2="83.7392" gradientUnits="userSpaceOnUse">
<stop stop-color="#BCCBE1"/>
<stop offset="0.9942" stop-color="white" stop-opacity="0"/>
</linearGradient>
<linearGradient id="paint2_linear_1601_42761" x1="66.6914" y1="46.6006" x2="105.289" y2="61.789" gradientUnits="userSpaceOnUse">
<stop stop-color="#E2E8F0"/>
<stop offset="0.9942" stop-color="white" stop-opacity="0"/>
</linearGradient>
</defs>
</svg>
