<svg width="41" height="41" viewBox="0 0 41 41" fill="none" xmlns="http://www.w3.org/2000/svg">
<path d="M34.8296 6.17061C31.4482 2.75552 26.9578 0.661156 22.1683 0.265295C17.3787 -0.130567 12.6054 1.19813 8.70924 4.01173C4.81308 6.82533 2.05059 10.9386 0.920072 15.6096C-0.210447 20.2806 0.36542 25.2019 2.5438 29.4857L0.405448 39.8672C0.38326 39.9705 0.382632 40.0773 0.403602 40.1809C0.424573 40.2845 0.466691 40.3826 0.527322 40.4692C0.616143 40.6006 0.74293 40.7017 0.89075 40.7591C1.03857 40.8165 1.20039 40.8275 1.3546 40.7905L11.5293 38.3788C15.8011 40.5021 20.6876 41.0409 25.3193 39.8995C29.9511 38.758 34.0277 36.0104 36.8237 32.1454C39.6198 28.2804 40.9539 23.5487 40.5888 18.7924C40.2236 14.036 38.1829 9.56351 34.8296 6.17061ZM31.6572 31.4911C29.3176 33.824 26.305 35.3641 23.0438 35.8941C19.7826 36.4242 16.4373 35.9175 13.4793 34.4456L12.0611 33.7439L5.82335 35.2212L5.84181 35.1436L7.13443 28.8652L6.44011 27.495C4.92871 24.5267 4.39554 21.1562 4.91699 17.8663C5.43843 14.5765 6.98773 11.536 9.34295 9.18055C12.3023 6.2221 16.3155 4.56014 20.5001 4.56014C24.6846 4.56014 28.6978 6.2221 31.6572 9.18055C31.6824 9.20945 31.7095 9.2366 31.7384 9.2618C34.6611 12.2279 36.2927 16.2291 36.2775 20.3932C36.2622 24.5572 34.6014 28.5464 31.6572 31.4911Z" fill="white"/>
<path d="M31.1031 26.8859C30.3386 28.0898 29.131 29.5634 27.6131 29.929C24.954 30.5717 20.873 29.9512 15.7949 25.2165L15.7321 25.1611C11.2671 21.0211 10.1074 17.5753 10.3881 14.8424C10.5432 13.2913 11.8358 11.8878 12.9253 10.9719C13.0975 10.8249 13.3018 10.7203 13.5217 10.6663C13.7417 10.6124 13.9712 10.6106 14.1919 10.6612C14.4126 10.7118 14.6184 10.8134 14.7929 10.9577C14.9673 11.1021 15.1056 11.2853 15.1966 11.4927L16.8401 15.1859C16.9469 15.4253 16.9864 15.6893 16.9546 15.9496C16.9227 16.2099 16.8205 16.4565 16.6591 16.6631L15.8281 17.7415C15.6498 17.9642 15.5422 18.2351 15.5192 18.5195C15.4962 18.8038 15.5587 19.0885 15.6989 19.337C16.1642 20.1532 17.2796 21.3535 18.5168 22.4651C19.9054 23.7208 21.4455 24.8694 22.4205 25.2609C22.6814 25.3674 22.9682 25.3934 23.244 25.3355C23.5198 25.2776 23.7719 25.1384 23.9679 24.9359L24.9318 23.9645C25.1178 23.7811 25.3491 23.6503 25.6021 23.5855C25.8552 23.5206 26.1209 23.524 26.3722 23.5952L30.2759 24.7032C30.4912 24.7692 30.6886 24.8837 30.8529 25.0377C31.0172 25.1917 31.1442 25.3813 31.224 25.5919C31.3038 25.8026 31.3344 26.0286 31.3135 26.2529C31.2925 26.4772 31.2206 26.6937 31.1031 26.8859Z" fill="white"/>
</svg>
